font.ufo
<glyph name="exclam" format="1">
	<unicode hex="0021"/>
	<advance width="600"/>
	<outline>
		<contour>
			<point x="284" y="219" type="line"/>
			<point x="316" y="219" type="line"/>
			<point x="321" y="599" type="line"/>
			<point x="321" y="670" type="line"/>
			<point x="279" y="670" type="line"/>
			<point x="279" y="599" type="line"/>
		</contour>
		<contour>
			<point x="300" y="-12" type="curve" smooth="yes"/>
			<point x="330" y="-12"/>
			<point x="358" y="11"/>
			<point x="358" y="51" type="curve" smooth="yes"/>
			<point x="358" y="92"/>
			<point x="330" y="114"/>
			<point x="300" y="114" type="curve" smooth="yes"/>
			<point x="270" y="114"/>
			<point x="242" y="92"/>
			<point x="242" y="51" type="curve" smooth="yes"/>
			<point x="242" y="11"/>
			<point x="270" y="-12"/>
		</contour>
	</outline>
</glyph>
<glyph name="quotesingle" format="2">
	<unicode hex="0027"/>
	<advance width="600"/>
	<outline>
		<contour>
			<point x="282" y="381" type="line"/>
			<point x="318" y="381" type="line"/>
			<point x="338" y="599" type="line"/>
			<point x="338" y="688" type="line"/>
			<point x="262" y="688" type="line"/>
			<point x="262" y="599" type="line"/>
		</contour>
	</outline>
</glyph>
<glyph name="parenleft" format="1">
	<unicode hex="0028"/>
	<advance width="600"/>
	<outline>
		<contour>
			<point x="456" y="-174" type="curve"/>
			<point x="481" y="-146" type="line"/>
			<point x="337" y="-35"/>
			<point x="269" y="104"/>
			<point x="269" y="278" type="curve" smooth="yes"/>
			<point x="269" y="452"/>
			<point x="337" y="591"/>
			<point x="481" y="702" type="curve"/>
			<point x="456" y="730" type="line"/>
			<point x="312" y="626"/>
			<point x="224" y="474"/>
			<point x="224" y="278" type="curve" smooth="yes"/>
			<point x="224" y="82"/>
			<point x="312" y="-70"/>
		</contour>
	</outline>
</glyph>
<glyph name="plus" format="2">
	<unicode hex="002B"/>
	<advance width="600"/>
	<outline>
		<contour>
			<point x="279" y="110" type="line"/>
			<point x="321" y="110" type="line"/>
			<point x="321" y="311" type="line"/>
			<point x="505" y="311" type="line"/>
			<point x="505" y="349" type="line"/>
			<point x="321" y="349" type="line"/>
			<point x="321" y="550" type="line"/>
			<point x="279" y="550" type="line"/>
			<point x="279" y="349" type="line"/>
			<point x="95" y="349" type="line"/>
			<point x="95" y="311" type="line"/>
			<point x="279" y="311" type="line"/>
		</contour>
	</outline>
</glyph>
<glyph name="period" format="1">
	<unicode hex="002E"/>
	<advance width="600"/>
	<outline>
		<contour>
			<point x="300" y="-12" type="curve" smooth="yes"/>
			<point x="331" y="-12"/>
			<point x="360" y="12"/>
			<point x="360" y="53" type="curve" smooth="yes"/>
			<point x="360" y="95"/>
			<point x="331" y="118"/>
			<point x="300" y="118" type="curve" smooth="yes"/>
			<point x="269" y="118"/>
			<point x="240" y="95"/>
			<point x="240" y="53" type="curve" smooth="yes"/>
			<point x="240" y="12"/>
			<point x="269" y="-12"/>
		</contour>
	</outline>
</glyph>
<glyph name="three" format="1">
	<unicode hex="0033"/>
	<advance width="600"/>
	<outline>
		<contour>
			<point x="292" y="-12" type="curve" smooth="yes"/>
			<point x="414" y="-12"/>
			<point x="511" y="58"/>
			<point x="511" y="169" type="curve" smooth="yes"/>
			<point x="511" y="259"/>
			<point x="431" y="318"/>
			<point x="342" y="335" type="curve"/>
			<point x="342" y="339" type="line"/>
			<point x="424" y="363"/>
			<point x="487" y="413"/>
			<point x="487" y="497" type="curve" smooth="yes"/>
			<point x="487" y="595"/>
			<point x="400" y="651"/>
			<point x="290" y="651" type="curve" smooth="yes"/>
			<point x="208" y="651"/>
			<point x="141" y="616"/>
			<point x="93" y="573" type="curve"/>
			<point x="120" y="543" type="line"/>
			<point x="160" y="582"/>
			<point x="223" y="613"/>
			<point x="289" y="613" type="curve" smooth="yes"/>
			<point x="379" y="613"/>
			<point x="441" y="566"/>
			<point x="441" y="494" type="curve" smooth="yes"/>
			<point x="441" y="417"/>
			<point x="377" y="355"/>
			<point x="210" y="355" type="curve"/>
			<point x="210" y="316" type="line"/>
			<point x="388" y="316"/>
			<point x="465" y="256"/>
			<point x="465" y="168" type="curve" smooth="yes"/>
			<point x="465" y="83"/>
			<point x="390" y="27"/>
			<point x="292" y="27" type="curve" smooth="yes"/>
			<point x="196" y="27"/>
			<point x="134" y="67"/>
			<point x="92" y="109" type="curve"/>
			<point x="67" y="78" type="line"/>
			<point x="111" y="35"/>
			<point x="181" y="-12"/>
		</contour>
	</outline>
</glyph>
<glyph name="question" format="1">
	<unicode hex="003F"/>
	<advance width="600"/>
	<outline>
		<contour>
			<point x="257" y="219" type="curve"/>
			<point x="297" y="219" type="line"/>
			<point x="276" y="357"/>
			<point x="468" y="391"/>
			<point x="468" y="530" type="curve" smooth="yes"/>
			<point x="468" y="616"/>
			<point x="403" y="682"/>
			<point x="294" y="682" type="curve" smooth="yes"/>
			<point x="217" y="682"/>
			<point x="158" y="649"/>
			<point x="116" y="606" type="curve"/>
			<point x="145" y="579" type="line"/>
			<point x="184" y="620"/>
			<point x="235" y="643"/>
			<point x="291" y="643" type="curve" smooth="yes"/>
			<point x="382" y="643"/>
			<point x="423" y="589"/>
			<point x="423" y="526" type="curve" smooth="yes"/>
			<point x="423" y="408"/>
			<point x="231" y="367"/>
		</contour>
		<contour>
			<point x="286" y="-12" type="curve" smooth="yes"/>
			<point x="316" y="-12"/>
			<point x="344" y="11"/>
			<point x="344" y="51" type="curve" smooth="yes"/>
			<point x="344" y="92"/>
			<point x="316" y="114"/>
			<point x="286" y="114" type="curve" smooth="yes"/>
			<point x="256" y="114"/>
			<point x="228" y="92"/>
			<point x="228" y="51" type="curve" smooth="yes"/>
			<point x="228" y="11"/>
			<point x="256" y="-12"/>
		</contour>
	</outline>
</glyph>
<glyph name="at" format="2">
	<unicode hex="0040"/>
	<advance width="600"/>
	<outline>
		<contour>
			<point x="342" y="-143" type="curve" smooth="yes"/>
			<point x="406" y="-143"/>
			<point x="459" y="-124"/>
			<point x="508" y="-87" type="curve"/>
			<point x="488" y="-59" type="line"/>
			<point x="449" y="-90"/>
			<point x="402" y="-107"/>
			<point x="342" y="-107" type="curve" smooth="yes"/>
			<point x="201" y="-107"/>
			<point x="100" y="28"/>
			<point x="100" y="246" type="curve" smooth="yes"/>
			<point x="100" y="467"/>
			<point x="209" y="595"/>
			<point x="346" y="595" type="curve" smooth="yes"/>
			<point x="460" y="595"/>
			<point x="506" y="506"/>
			<point x="506" y="398" type="curve" smooth="yes"/>
			<point x="506" y="384" type="line"/>
			<point x="325" y="362"/>
			<point x="233" y="311"/>
			<point x="233" y="214" type="curve" smooth="yes"/>
			<point x="233" y="131"/>
			<point x="293" y="88"/>
			<point x="362" y="88" type="curve" smooth="yes"/>
			<point x="413" y="88"/>
			<point x="471" y="125"/>
			<point x="502" y="162" type="curve"/>
			<point x="506" y="162" type="line"/>
			<point x="511" y="100" type="line"/>
			<point x="543" y="100" type="line"/>
			<point x="543" y="396" type="line" smooth="yes"/>
			<point x="543" y="529"/>
			<point x="480" y="630"/>
			<point x="350" y="630" type="curve" smooth="yes"/>
			<point x="184" y="630"/>
			<point x="60" y="493"/>
			<point x="60" y="249" type="curve" smooth="yes"/>
			<point x="60" y="0"/>
			<point x="186" y="-143"/>
		</contour>
		<contour>
			<point x="370" y="124" type="curve" smooth="yes"/>
			<point x="312" y="124"/>
			<point x="274" y="157"/>
			<point x="274" y="214" type="curve" smooth="yes"/>
			<point x="274" y="286"/>
			<point x="340" y="328"/>
			<point x="504" y="351" type="curve"/>
			<point x="504" y="204" type="line"/>
			<point x="459" y="151"/>
			<point x="410" y="124"/>
		</contour>
	</outline>
</glyph>
<glyph name="D" format="2">
	<unicode hex="0044"/>
	<advance width="600"/>
	<outline>
		<contour>
			<point x="96" y="0" type="line"/>
			<point x="249" y="0" type="line" smooth="yes"/>
			<point x="450" y="0"/>
			<point x="546" y="132"/>
			<point x="546" y="332" type="curve" smooth="yes"/>
			<point x="546" y="531"/>
			<point x="450" y="659"/>
			<point x="248" y="659" type="curve" smooth="yes"/>
			<point x="96" y="659" type="line"/>
		</contour>
		<contour>
			<point x="142" y="39" type="line"/>
			<point x="142" y="620" type="line"/>
			<point x="244" y="620" type="line" smooth="yes"/>
			<point x="421" y="620"/>
			<point x="498" y="503"/>
			<point x="498" y="332" type="curve" smooth="yes"/>
			<point x="498" y="160"/>
			<point x="421" y="39"/>
			<point x="244" y="39" type="curve" smooth="yes"/>
		</contour>
	</outline>
	<anchor name="aboveUC" x="300" y="679"/>
	<anchor name="baseLC" x="289" y="0"/>
	<anchor name="belowLC" x="291" y="-20"/>
</glyph>
<glyph name="F" format="1">
	<unicode hex="0046"/>
	<advance width="600"/>
	<outline>
		<contour>
			<point x="150" y="0" type="line"/>
			<point x="196" y="0" type="line"/>
			<point x="196" y="317" type="line"/>
			<point x="481" y="317" type="line"/>
			<point x="481" y="357" type="line"/>
			<point x="196" y="357" type="line"/>
			<point x="196" y="619" type="line"/>
			<point x="535" y="619" type="line"/>
			<point x="535" y="659" type="line"/>
			<point x="150" y="659" type="line"/>
		</contour>
		<contour>
			<point name="aboveUC" x="347" y="679" type="move"/>
		</contour>
		<contour>
			<point name="baseLC" x="166" y="0" type="move"/>
		</contour>
		<contour>
			<point name="belowLC" x="181" y="-20" type="move"/>
		</contour>
	</outline>
</glyph>
<glyph name="G" format="2">
	<unicode hex="0047"/>
	<advance width="600"/>
	<outline>
		<contour>
			<point x="334" y="-12" type="curve" smooth="yes"/>
			<point x="419" y="-12"/>
			<point x="485" y="19"/>
			<point x="525" y="63" type="curve"/>
			<point x="525" y="324" type="line"/>
			<point x="328" y="324" type="line"/>
			<point x="328" y="285" type="line"/>
			<point x="480" y="285" type="line"/>
			<point x="480" y="80" type="line"/>
			<point x="449" y="48"/>
			<point x="395" y="30"/>
			<point x="337" y="30" type="curve" smooth="yes"/>
			<point x="193" y="30"/>
			<point x="107" y="148"/>
			<point x="107" y="331" type="curve" smooth="yes"/>
			<point x="107" y="514"/>
			<point x="198" y="629"/>
			<point x="343" y="629" type="curve" smooth="yes"/>
			<point x="413" y="629"/>
			<point x="458" y="599"/>
			<point x="491" y="562" type="curve"/>
			<point x="518" y="592" type="line"/>
			<point x="484" y="629"/>
			<point x="430" y="671"/>
			<point x="343" y="671" type="curve" smooth="yes"/>
			<point x="173" y="671"/>
			<point x="59" y="540"/>
			<point x="59" y="331" type="curve" smooth="yes"/>
			<point x="59" y="121"/>
			<point x="170" y="-12"/>
		</contour>
	</outline>
	<anchor name="aboveUC" x="330" y="679"/>
	<anchor name="belowLC" x="334" y="-20"/>
</glyph>
<glyph name="I" format="1">
	<unicode hex="0049"/>
	<advance width="600"/>
	<outline>
		<contour>
			<point x="107" y="0" type="line"/>
			<point x="493" y="0" type="line"/>
			<point x="493" y="40" type="line"/>
			<point x="323" y="40" type="line"/>
			<point x="323" y="619" type="line"/>
			<point x="493" y="619" type="line"/>
			<point x="493" y="659" type="line"/>
			<point x="107" y="659" type="line"/>
			<point x="107" y="619" type="line"/>
			<point x="277" y="619" type="line"/>
			<point x="277" y="40" type="line"/>
			<point x="107" y="40" type="line"/>
		</contour>
		<contour>
			<point name="aboveUC" x="300" y="679" type="move"/>
		</contour>
		<contour>
			<point name="ogonekUC" x="300" y="0" type="move"/>
		</contour>
		<contour>
			<point name="baseLC" x="300" y="0" type="move"/>
		</contour>
		<contour>
			<point name="belowLC" x="300" y="-20" type="move"/>
		</contour>
	</outline>
</glyph>
<glyph name="J" format="1">
	<unicode hex="004A"/>
	<advance width="600"/>
	<outline>
		<contour>
			<point x="277" y="-12" type="curve" smooth="yes"/>
			<point x="430" y="-12"/>
			<point x="480" y="84"/>
			<point x="480" y="204" type="curve" smooth="yes"/>
			<point x="480" y="660" type="line"/>
			<point x="147" y="660" type="line"/>
			<point x="147" y="621" type="line"/>
			<point x="434" y="621" type="line"/>
			<point x="434" y="208" type="line" smooth="yes"/>
			<point x="434" y="88"/>
			<point x="387" y="30"/>
			<point x="277" y="30" type="curve" smooth="yes"/>
			<point x="222" y="30"/>
			<point x="164" y="59"/>
			<point x="126" y="125" type="curve"/>
			<point x="93" y="98" type="line"/>
			<point x="132" y="25"/>
			<point x="204" y="-12"/>
		</contour>
		<contour>
			<point name="aboveUC" x="321" y="679" type="move"/>
		</contour>
		<contour>
			<point name="belowLC" x="300" y="-20" type="move"/>
		</contour>
	</outline>
</glyph>
<glyph name="L" format="1">
	<unicode hex="004C"/>
	<advance width="600"/>
	<outline>
		<contour>
			<point x="150" y="0" type="line"/>
			<point x="539" y="0" type="line"/>
			<point x="539" y="40" type="line"/>
			<point x="194" y="40" type="line"/>
			<point x="194" y="659" type="line"/>
			<point x="150" y="659" type="line"/>
		</contour>
		<contour>
			<point name="aboveUC" x="187" y="679" type="move"/>
		</contour>
		<contour>
			<point name="center" x="175" y="332" type="move"/>
		</contour>
		<contour>
			<point name="baseLC" x="357" y="0" type="move"/>
		</contour>
		<contour>
			<point name="belowLC" x="357" y="-20" type="move"/>
		</contour>
	</outline>
</glyph>
<glyph name="M" format="1">
	<unicode hex="004D"/>
	<advance width="600"/>
	<outline>
		<contour>
			<point x="81" y="0" type="line"/>
			<point x="125" y="0" type="line"/>
			<point x="125" y="450" type="line" smooth="yes"/>
			<point x="125" y="497"/>
			<point x="120" y="561"/>
			<point x="118" y="606" type="curve"/>
			<point x="120" y="606" type="line"/>
			<point x="159" y="493" type="line"/>
			<point x="281" y="175" type="line"/>
			<point x="317" y="175" type="line"/>
			<point x="441" y="493" type="line"/>
			<point x="477" y="606" type="line"/>
			<point x="480" y="606" type="line"/>
			<point x="478" y="561"/>
			<point x="474" y="497"/>
			<point x="474" y="450" type="curve" smooth="yes"/>
			<point x="474" y="0" type="line"/>
			<point x="519" y="0" type="line"/>
			<point x="519" y="659" type="line"/>
			<point x="458" y="659" type="line"/>
			<point x="341" y="350" type="line"/>
			<point x="302" y="235" type="line"/>
			<point x="298" y="235" type="line"/>
			<point x="257" y="350" type="line"/>
			<point x="142" y="659" type="line"/>
			<point x="81" y="659" type="line"/>
		</contour>
		<contour>
			<point name="aboveUC" x="300" y="679" type="move"/>
		</contour>
		<contour>
			<point name="baseLC" x="489" y="0" type="move"/>
		</contour>
		<contour>
			<point name="belowLC" x="300" y="-20" type="move"/>
		</contour>
	</outline>
</glyph>
<glyph name="T" format="2">
	<unicode hex="0054"/>
	<advance width="600"/>
	<outline>
		<contour>
			<point x="277" y="0" type="line"/>
			<point x="323" y="0" type="line"/>
			<point x="323" y="619" type="line"/>
			<point x="552" y="619" type="line"/>
			<point x="552" y="659" type="line"/>
			<point x="48" y="659" type="line"/>
			<point x="48" y="619" type="line"/>
			<point x="277" y="619" type="line"/>
		</contour>
	</outline>
	<anchor name="aboveUC" x="300" y="679"/>
	<anchor name="baseLC" x="300" y="0"/>
	<anchor name="belowLC" x="300" y="-20"/>
</glyph>
<glyph name="U" format="1">
	<unicode hex="0055"/>
	<advance width="600"/>
	<outline>
		<contour>
			<point x="300" y="-12" type="curve" smooth="yes"/>
			<point x="411" y="-12"/>
			<point x="511" y="47"/>
			<point x="511" y="247" type="curve" smooth="yes"/>
			<point x="511" y="659" type="line"/>
			<point x="468" y="659" type="line"/>
			<point x="468" y="252" type="line" smooth="yes"/>
			<point x="468" y="82"/>
			<point x="390" y="30"/>
			<point x="300" y="30" type="curve" smooth="yes"/>
			<point x="212" y="30"/>
			<point x="135" y="82"/>
			<point x="135" y="252" type="curve" smooth="yes"/>
			<point x="135" y="659" type="line"/>
			<point x="89" y="659" type="line"/>
			<point x="89" y="247" type="line" smooth="yes"/>
			<point x="89" y="47"/>
			<point x="190" y="-12"/>
		</contour>
		<contour>
			<point name="aboveUC" x="300" y="679" type="move"/>
		</contour>
		<contour>
			<point name="hornLC" x="497" y="669" type="move"/>
		</contour>
		<contour>
			<point name="ogonekUC" x="300" y="0" type="move"/>
		</contour>
		<contour>
			<point name="baseLC" x="300" y="0" type="move"/>
		</contour>
		<contour>
			<point name="belowLC" x="300" y="-20" type="move"/>
		</contour>
	</outline>
</glyph>
<glyph name="Y" format="2">
	<unicode hex="0059"/>
	<advance width="600"/>
	<outline>
		<contour>
			<point x="277" y="0" type="line"/>
			<point x="323" y="0" type="line"/>
			<point x="323" y="242" type="line"/>
			<point x="549" y="659" type="line"/>
			<point x="504" y="659" type="line"/>
			<point x="390" y="442" type="line" smooth="yes"/>
			<point x="362" y="390"/>
			<point x="334" y="339"/>
			<point x="304" y="286" type="curve"/>
			<point x="300" y="286" type="line"/>
			<point x="270" y="339"/>
			<point x="245" y="390"/>
			<point x="215" y="441" type="curve" smooth="yes"/>
			<point x="98" y="659" type="line"/>
			<point x="51" y="659" type="line"/>
			<point x="277" y="242" type="line"/>
		</contour>
	</outline>
	<anchor name="aboveUC" x="300" y="679"/>
	<anchor name="belowLC" x="300" y="-20"/>
	<anchor name="ogonekUC" x="300" y="0"/>
</glyph>
<glyph name="Z" format="1">
	<unicode hex="005A"/>
	<advance width="600"/>
	<outline>
		<contour>
			<point x="70" y="0" type="line"/>
			<point x="535" y="0" type="line"/>
			<point x="535" y="40" type="line"/>
			<point x="125" y="40" type="line"/>
			<point x="528" y="632" type="line"/>
			<point x="528" y="660" type="line"/>
			<point x="104" y="660" type="line"/>
			<point x="104" y="621" type="line"/>
			<point x="473" y="621" type="line"/>
			<point x="70" y="28" type="line"/>
		</contour>
		<contour>
			<point name="aboveUC" x="316" y="679" type="move"/>
		</contour>
		<contour>
			<point name="baseLC" x="320" y="0" type="move"/>
		</contour>
		<contour>
			<point name="belowLC" x="319" y="-20" type="move"/>
		</contour>
	</outline>
</glyph>
<glyph name="asciicircum" format="1">
	<unicode hex="005E"/>
	<advance width="600"/>
	<outline>
		<contour>
			<point x="126" y="290" type="line"/>
			<point x="169" y="290" type="line"/>
			<point x="247" y="493" type="line"/>
			<point x="298" y="626" type="line"/>
			<point x="302" y="626" type="line"/>
			<point x="353" y="493" type="line"/>
			<point x="431" y="290" type="line"/>
			<point x="474" y="290" type="line"/>
			<point x="323" y="670" type="line"/>
			<point x="277" y="670" type="line"/>
		</contour>
	</outline>
</glyph>
<glyph name="d" format="1">
	<unicode hex="0064"/>
	<advance width="600"/>
	<outline>
		<contour>
			<point x="279" y="-12" type="curve" smooth="yes"/>
			<point x="346" y="-12"/>
			<point x="408" y="27"/>
			<point x="450" y="71" type="curve"/>
			<point x="452" y="71" type="line"/>
			<point x="457" y="0" type="line"/>
			<point x="495" y="0" type="line"/>
			<point x="495" y="719" type="line"/>
			<point x="450" y="719" type="line" smooth="yes"/>
			<point x="450" y="521" type="line"/>
			<point x="453" y="424" type="line"/>
			<point x="451" y="424" type="line"/>
			<point x="403" y="467"/>
			<point x="354" y="492"/>
			<point x="293" y="492" type="curve" smooth="yes"/>
			<point x="174" y="492"/>
			<point x="67" y="394"/>
			<point x="67" y="239" type="curve" smooth="yes"/>
			<point x="67" y="77"/>
			<point x="153" y="-12"/>
		</contour>
		<contour>
			<point x="285" y="27" type="curve" smooth="yes"/>
			<point x="178" y="27"/>
			<point x="114" y="112"/>
			<point x="114" y="239" type="curve" smooth="yes"/>
			<point x="114" y="360"/>
			<point x="195" y="453"/>
			<point x="296" y="453" type="curve" smooth="yes"/>
			<point x="346" y="453"/>
			<point x="396" y="434"/>
			<point x="450" y="382" type="curve"/>
			<point x="450" y="115" type="line"/>
			<point x="397" y="59"/>
			<point x="341" y="27"/>
		</contour>
		<contour>
			<point name="aboveUC" x="467" y="739" type="move"/>
		</contour>
		<contour>
			<point name="baseLC" x="306" y="0" type="move"/>
		</contour>
		<contour>
			<point name="belowLC" x="301" y="-20" type="move"/>
		</contour>
	</outline>
</glyph>
<glyph name="i" format="1">
	<unicode hex="0069"/>
	<advance width="600"/>
	<outline>
		<component base="dotlessi"/>
		<component base="dotaccentcmb" xOffset="49"/>
		<contour>
			<point name="aboveUC" x="349" y="725" type="move"/>
		</contour>
		<contour>
			<point name="ogonekLC" x="359" y="0" type="move"/>
		</contour>
		<contour>
			<point name="baseLC" x="354" y="0" type="move"/>
		</contour>
		<contour>
			<point name="belowLC" x="349" y="-20" type="move"/>
		</contour>
	</outline>
</glyph>
<glyph name="k" format="1">
	<unicode hex="006B"/>
	<advance width="600"/>
	<outline>
		<contour>
			<point x="123" y="0" type="line"/>
			<point x="168" y="0" type="line"/>
			<point x="168" y="136" type="line"/>
			<point x="535" y="480" type="line"/>
			<point x="480" y="480" type="line"/>
			<point x="172" y="191" type="line"/>
			<point x="168" y="191" type="line"/>
			<point x="168" y="719" type="line"/>
			<point x="123" y="719" type="line"/>
		</contour>
		<contour>
			<point x="516" y="0" type="line"/>
			<point x="567" y="0" type="line"/>
			<point x="327" y="309" type="line"/>
			<point x="298" y="279" type="line"/>
		</contour>
		<contour>
			<point name="aboveUC" x="185" y="739" type="move"/>
		</contour>
		<contour>
			<point name="belowLC" x="342" y="-20" type="move"/>
		</contour>
	</outline>
</glyph>
<glyph name="m" format="2">
	<unicode hex="006D"/>
	<advance width="600"/>
	<outline>
		<contour>
			<point x="74" y="0" type="line"/>
			<point x="118" y="0" type="line"/>
			<point x="118" y="362" type="line"/>
			<point x="149" y="422"/>
			<point x="177" y="452"/>
			<point x="221" y="452" type="curve" smooth="yes"/>
			<point x="267" y="452"/>
			<point x="289" y="415"/>
			<point x="289" y="343" type="curve" smooth="yes"/>
			<point x="289" y="0" type="line"/>
			<point x="331" y="0" type="line"/>
			<point x="331" y="362" type="line"/>
			<point x="363" y="422"/>
			<point x="390" y="452"/>
			<point x="433" y="452" type="curve" smooth="yes"/>
			<point x="480" y="452"/>
			<point x="502" y="415"/>
			<point x="502" y="343" type="curve" smooth="yes"/>
			<point x="502" y="0" type="line"/>
			<point x="546" y="0" type="line"/>
			<point x="546" y="348" type="line" smooth="yes"/>
			<point x="546" y="444"/>
			<point x="509" y="492"/>
			<point x="442" y="492" type="curve" smooth="yes"/>
			<point x="388" y="492"/>
			<point x="359" y="462"/>
			<point x="324" y="407" type="curve"/>
			<point x="311" y="464"/>
			<point x="281" y="492"/>
			<point x="229" y="492" type="curve" smooth="yes"/>
			<point x="175" y="492"/>
			<point x="146" y="462"/>
			<point x="118" y="415" type="curve"/>
			<point x="116" y="415" type="line"/>
			<point x="111" y="480" type="line"/>
			<point x="74" y="480" type="line"/>
		</contour>
	</outline>
</glyph>
<glyph name="n" format="1">
	<unicode hex="006E"/>
	<advance width="600"/>
	<outline>
		<contour>
			<point x="105" y="0" type="line"/>
			<point x="150" y="0" type="line"/>
			<point x="150" y="344" type="line"/>
			<point x="219" y="417"/>
			<point x="266" y="452"/>
			<point x="334" y="452" type="curve" smooth="yes"/>
			<point x="429" y="452"/>
			<point x="469" y="401"/>
			<point x="469" y="293" type="curve" smooth="yes"/>
			<point x="469" y="0" type="line"/>
			<point x="514" y="0" type="line"/>
			<point x="514" y="299" type="line" smooth="yes"/>
			<point x="514" y="429"/>
			<point x="458" y="492"/>
			<point x="341" y="492" type="curve" smooth="yes"/>
			<point x="264" y="492"/>
			<point x="207" y="447"/>
			<point x="152" y="388" type="curve"/>
			<point x="148" y="388" type="line"/>
			<point x="143" y="480" type="line"/>
			<point x="105" y="480" type="line"/>
		</contour>
		<contour>
			<point name="aboveLC" x="319" y="502" type="move"/>
		</contour>
		<contour>
			<point name="baseLC" x="486" y="0" type="move"/>
		</contour>
		<contour>
			<point name="belowLC" x="317" y="-20" type="move"/>
		</contour>
	</outline>
</glyph>
<glyph name="o" format="1">
	<unicode hex="006F"/>
	<advance width="600"/>
	<outline>
		<contour>
			<point x="300" y="-12" type="curve" smooth="yes"/>
			<point x="426" y="-12"/>
			<point x="533" y="80"/>
			<point x="533" y="239" type="curve" smooth="yes"/>
			<point x="533" y="400"/>
			<point x="426" y="492"/>
			<point x="300" y="492" type="curve" smooth="yes"/>
			<point x="174" y="492"/>
			<point x="67" y="400"/>
			<point x="67" y="239" type="curve" smooth="yes"/>
			<point x="67" y="80"/>
			<point x="174" y="-12"/>
		</contour>
		<contour>
			<point x="300" y="27" type="curve" smooth="yes"/>
			<point x="192" y="27"/>
			<point x="114" y="113"/>
			<point x="114" y="239" type="curve" smooth="yes"/>
			<point x="114" y="366"/>
			<point x="192" y="453"/>
			<point x="300" y="453" type="curve" smooth="yes"/>
			<point x="408" y="453"/>
			<point x="486" y="366"/>
			<point x="486" y="239" type="curve" smooth="yes"/>
			<point x="486" y="113"/>
			<point x="408" y="27"/>
		</contour>
		<contour>
			<point name="hornLC" x="410" y="480" type="move"/>
		</contour>
		<contour>
			<point name="aboveLC" x="300" y="502" type="move"/>
		</contour>
		<contour>
			<point name="ogonekLC" x="300" y="0" type="move"/>
		</contour>
		<contour>
			<point name="baseLC" x="300" y="0" type="move"/>
		</contour>
		<contour>
			<point name="belowLC" x="300" y="-20" type="move"/>
		</contour>
	</outline>
</glyph>
<glyph name="s" format="1">
	<unicode hex="0073"/>
	<advance width="600"/>
	<outline>
		<contour>
			<point x="319" y="-12" type="curve" smooth="yes"/>
			<point x="445" y="-12"/>
			<point x="517" y="51"/>
			<point x="517" y="123" type="curve" smooth="yes"/>
			<point x="517" y="195"/>
			<point x="480" y="233"/>
			<point x="314" y="268" type="curve" smooth="yes"/>
			<point x="206" y="291"/>
			<point x="156" y="316"/>
			<point x="156" y="367" type="curve" smooth="yes"/>
			<point x="156" y="412"/>
			<point x="190" y="454"/>
			<point x="295" y="454" type="curve" smooth="yes"/>
			<point x="360" y="454"/>
			<point x="415" y="433"/>
			<point x="458" y="401" type="curve"/>
			<point x="482" y="433" type="line"/>
			<point x="436" y="467"/>
			<point x="362" y="492"/>
			<point x="298" y="492" type="curve" smooth="yes"/>
			<point x="169" y="492"/>
			<point x="110" y="434"/>
			<point x="110" y="364" type="curve" smooth="yes"/>
			<point x="110" y="294"/>
			<point x="180" y="254"/>
			<point x="302" y="230" type="curve" smooth="yes"/>
			<point x="454" y="199"/>
			<point x="471" y="164"/>
			<point x="471" y="121" type="curve" smooth="yes"/>
			<point x="471" y="70"/>
			<point x="421" y="26"/>
			<point x="323" y="26" type="curve" smooth="yes"/>
			<point x="222" y="26"/>
			<point x="159" y="55"/>
			<point x="105" y="96" type="curve"/>
			<point x="82" y="64" type="line"/>
			<point x="139" y="24"/>
			<point x="220" y="-12"/>
		</contour>
		<contour>
			<point name="aboveLC" x="298" y="502" type="move"/>
		</contour>
		<contour>
			<point name="baseLC" x="315" y="0" type="move"/>
		</contour>
		<contour>
			<point name="belowLC" x="310" y="-20" type="move"/>
		</contour>
	</outline>
</glyph>
<glyph name="t" format="1">
	<unicode hex="0074"/>
	<advance width="600"/>
	<outline>
		<contour>
			<point x="397" y="-12" type="curve" smooth="yes"/>
			<point x="456" y="-12"/>
			<point x="499" y="0"/>
			<point x="543" y="18" type="curve"/>
			<point x="531" y="52" type="line"/>
			<point x="492" y="36"/>
			<point x="453" y="27"/>
			<point x="403" y="27" type="curve" smooth="yes"/>
			<point x="296" y="27"/>
			<point x="269" y="83"/>
			<point x="269" y="176" type="curve" smooth="yes"/>
			<point x="269" y="442" type="line"/>
			<point x="525" y="442" type="line"/>
			<point x="525" y="480" type="line"/>
			<point x="269" y="480" type="line"/>
			<point x="269" y="639" type="line"/>
			<point x="232" y="639" type="line"/>
			<point x="226" y="480" type="line"/>
			<point x="80" y="476" type="line"/>
			<point x="80" y="442" type="line"/>
			<point x="225" y="442" type="line"/>
			<point x="225" y="180" type="line" smooth="yes"/>
			<point x="225" y="65"/>
			<point x="265" y="-12"/>
		</contour>
		<contour>
			<point name="aboveLC" x="252" y="633" type="move"/>
		</contour>
		<contour>
			<point name="baseLC" x="397" y="0" type="move"/>
		</contour>
		<contour>
			<point name="belowLC" x="387" y="-20" type="move"/>
		</contour>
	</outline>
</glyph>
<glyph name="x" format="1">
	<unicode hex="0078"/>
	<advance width="600"/>
	<outline>
		<contour>
			<point x="80" y="0" type="line"/>
			<point x="129" y="0" type="line"/>
			<point x="228" y="129" type="line" smooth="yes"/>
			<point x="251" y="161"/>
			<point x="272" y="189"/>
			<point x="295" y="219" type="curve"/>
			<point x="299" y="219" type="line"/>
			<point x="322" y="191"/>
			<point x="346" y="157"/>
			<point x="367" y="130" type="curve" smooth="yes"/>
			<point x="469" y="0" type="line"/>
			<point x="520" y="0" type="line"/>
			<point x="326" y="247" type="line"/>
			<point x="505" y="480" type="line"/>
			<point x="456" y="480" type="line"/>
			<point x="366" y="360" type="line" smooth="yes"/>
			<point x="347" y="334"/>
			<point x="324" y="304"/>
			<point x="303" y="277" type="curve"/>
			<point x="299" y="277" type="line"/>
			<point x="278" y="304"/>
			<point x="258" y="332"/>
			<point x="239" y="358" type="curve" smooth="yes"/>
			<point x="146" y="480" type="line"/>
			<point x="96" y="480" type="line"/>
			<point x="272" y="249" type="line"/>
		</contour>
		<contour>
			<point name="aboveLC" x="300" y="502" type="move"/>
		</contour>
		<contour>
			<point name="baseLC" x="484" y="0" type="move"/>
		</contour>
		<contour>
			<point name="belowLC" x="300" y="-20" type="move"/>
		</contour>
	</outline>
</glyph>
<glyph name="braceleft" format="2">
	<unicode hex="007B"/>
	<advance width="600"/>
	<outline>
		<contour>
			<point x="453" y="-152" type="curve" smooth="yes"/>
			<point x="505" y="-152" type="line"/>
			<point x="505" y="-123" type="line"/>
			<point x="447" y="-123" type="line" smooth="yes"/>
			<point x="334" y="-123"/>
			<point x="310" y="-91"/>
			<point x="310" y="-20" type="curve" smooth="yes"/>
			<point x="310" y="46"/>
			<point x="317" y="100"/>
			<point x="317" y="172" type="curve" smooth="yes"/>
			<point x="317" y="230"/>
			<point x="298" y="264"/>
			<point x="232" y="276" type="curve"/>
			<point x="232" y="280" type="line"/>
			<point x="298" y="292"/>
			<point x="317" y="326"/>
			<point x="317" y="384" type="curve" smooth="yes"/>
			<point x="317" y="448"/>
			<point x="310" y="516"/>
			<point x="310" y="576" type="curve" smooth="yes"/>
			<point x="310" y="647"/>
			<point x="334" y="679"/>
			<point x="447" y="679" type="curve" smooth="yes"/>
			<point x="505" y="679" type="line"/>
			<point x="505" y="708" type="line"/>
			<point x="453" y="708" type="line" smooth="yes"/>
			<point x="330" y="708"/>
			<point x="269" y="680"/>
			<point x="269" y="580" type="curve" smooth="yes"/>
			<point x="269" y="512"/>
			<point x="278" y="438"/>
			<point x="278" y="374" type="curve" smooth="yes"/>
			<point x="278" y="334"/>
			<point x="253" y="294"/>
			<point x="129" y="294" type="curve"/>
			<point x="129" y="262" type="line"/>
			<point x="253" y="262"/>
			<point x="278" y="222"/>
			<point x="278" y="182" type="curve" smooth="yes"/>
			<point x="278" y="112"/>
			<point x="269" y="50"/>
			<point x="269" y="-24" type="curve" smooth="yes"/>
			<point x="269" y="-124"/>
			<point x="330" y="-152"/>
		</contour>
	</outline>
</glyph>
<glyph name="cent" format="1">
	<unicode hex="00A2"/>
	<advance width="600"/>
	<outline>
		<contour>
			<point x="342" y="80" type="curve" smooth="yes"/>
			<point x="403" y="80"/>
			<point x="455" y="107"/>
			<point x="496" y="144" type="curve"/>
			<point x="473" y="173" type="line"/>
			<point x="440" y="143"/>
			<point x="396" y="119"/>
			<point x="344" y="119" type="curve" smooth="yes"/>
			<point x="237" y="119"/>
			<point x="168" y="196"/>
			<point x="168" y="311" type="curve" smooth="yes"/>
			<point x="168" y="427"/>
			<point x="244" y="504"/>
			<point x="345" y="504" type="curve" smooth="yes"/>
			<point x="392" y="504"/>
			<point x="429" y="483"/>
			<point x="460" y="455" type="curve"/>
			<point x="484" y="483" type="line"/>
			<point x="452" y="514"/>
			<point x="409" y="543"/>
			<point x="344" y="543" type="curve" smooth="yes"/>
			<point x="225" y="543"/>
			<point x="122" y="461"/>
			<point x="122" y="311" type="curve" smooth="yes"/>
			<point x="122" y="163"/>
			<point x="216" y="80"/>
		</contour>
		<contour>
			<point x="315" y="-28" type="line"/>
			<point x="350" y="-28" type="line"/>
			<point x="350" y="652" type="line"/>
			<point x="315" y="652" type="line"/>
		</contour>
	</outline>
</glyph>
<glyph name="copyright" format="1">
	<unicode hex="00A9"/>
	<advance width="600"/>
	<outline>
		<contour>
			<point x="300" y="-12" type="curve" smooth="yes"/>
			<point x="454" y="-12"/>
			<point x="563" y="120"/>
			<point x="563" y="322" type="curve" smooth="yes"/>
			<point x="563" y="524"/>
			<point x="454" y="652"/>
			<point x="300" y="652" type="curve" smooth="yes"/>
			<point x="146" y="652"/>
			<point x="37" y="524"/>
			<point x="37" y="322" type="curve" smooth="yes"/>
			<point x="37" y="120"/>
			<point x="146" y="-12"/>
		</contour>
		<contour>
			<point x="300" y="19" type="curve" smooth="yes"/>
			<point x="163" y="19"/>
			<point x="72" y="141"/>
			<point x="72" y="322" type="curve" smooth="yes"/>
			<point x="72" y="503"/>
			<point x="163" y="622"/>
			<point x="300" y="622" type="curve" smooth="yes"/>
			<point x="437" y="622"/>
			<point x="528" y="503"/>
			<point x="528" y="322" type="curve" smooth="yes"/>
			<point x="528" y="141"/>
			<point x="437" y="19"/>
		</contour>
		<contour>
			<point x="305" y="124" type="curve" smooth="yes"/>
			<point x="360" y="124"/>
			<point x="390" y="146"/>
			<point x="420" y="173" type="curve"/>
			<point x="401" y="201" type="line"/>
			<point x="375" y="179"/>
			<point x="347" y="161"/>
			<point x="307" y="161" type="curve" smooth="yes"/>
			<point x="239" y="161"/>
			<point x="193" y="223"/>
			<point x="193" y="322" type="curve" smooth="yes"/>
			<point x="193" y="412"/>
			<point x="242" y="472"/>
			<point x="310" y="472" type="curve" smooth="yes"/>
			<point x="342" y="472"/>
			<point x="363" y="460"/>
			<point x="388" y="438" type="curve"/>
			<point x="410" y="464" type="line"/>
			<point x="384" y="491"/>
			<point x="355" y="509"/>
			<point x="310" y="509" type="curve" smooth="yes"/>
			<point x="225" y="509"/>
			<point x="150" y="438"/>
			<point x="150" y="322" type="curve" smooth="yes"/>
			<point x="150" y="197"/>
			<point x="221" y="124"/>
		</contour>
	</outline>
</glyph>
<glyph name="logicalnot" format="1">
	<unicode hex="00AC"/>
	<advance width="600"/>
	<outline>
		<contour>
			<point x="464" y="110" type="line"/>
			<point x="505" y="110" type="line"/>
			<point x="505" y="349" type="line"/>
			<point x="95" y="349" type="line"/>
			<point x="95" y="311" type="line"/>
			<point x="464" y="311" type="line"/>
		</contour>
	</outline>
</glyph>
<glyph name="plusminus" format="1">
	<unicode hex="00B1"/>
	<advance width="600"/>
	<outline>
		<contour>
			<point x="279" y="109" type="line"/>
			<point x="321" y="109" type="line"/>
			<point x="321" y="310" type="line"/>
			<point x="505" y="310" type="line"/>
			<point x="505" y="347" type="line"/>
			<point x="321" y="347" type="line"/>
			<point x="321" y="550" type="line"/>
			<point x="279" y="550" type="line"/>
			<point x="279" y="347" type="line"/>
			<point x="95" y="347" type="line"/>
			<point x="95" y="310" type="line"/>
			<point x="279" y="310" type="line"/>
		</contour>
		<contour>
			<point x="95" y="0" type="line"/>
			<point x="505" y="0" type="line"/>
			<point x="505" y="37" type="line"/>
			<point x="95" y="37" type="line"/>
		</contour>
	</outline>
</glyph>
<glyph name="questiondown" format="1">
	<unicode hex="00BF"/>
	<advance width="600"/>
	<outline>
		<contour>
			<point x="306" y="-202" type="curve" smooth="yes"/>
			<point x="383" y="-202"/>
			<point x="442" y="-169"/>
			<point x="484" y="-126" type="curve"/>
			<point x="455" y="-99" type="line"/>
			<point x="416" y="-139"/>
			<point x="365" y="-163"/>
			<point x="309" y="-163" type="curve" smooth="yes"/>
			<point x="218" y="-163"/>
			<point x="177" y="-109"/>
			<point x="177" y="-46" type="curve" smooth="yes"/>
			<point x="177" y="72"/>
			<point x="369" y="113"/>
			<point x="343" y="261" type="curve"/>
			<point x="303" y="261" type="line"/>
			<point x="324" y="123"/>
			<point x="132" y="89"/>
			<point x="132" y="-50" type="curve" smooth="yes"/>
			<point x="132" y="-136"/>
			<point x="197" y="-202"/>
		</contour>
		<contour>
			<point x="314" y="366" type="curve" smooth="yes"/>
			<point x="344" y="366"/>
			<point x="372" y="388"/>
			<point x="372" y="429" type="curve" smooth="yes"/>
			<point x="372" y="470"/>
			<point x="344" y="492"/>
			<point x="314" y="492" type="curve" smooth="yes"/>
			<point x="284" y="492"/>
			<point x="256" y="470"/>
			<point x="256" y="429" type="curve" smooth="yes"/>
			<point x="256" y="388"/>
			<point x="284" y="366"/>
		</contour>
	</outline>
</glyph>
<glyph name="Oslash" format="2">
	<unicode hex="00D8"/>
	<advance width="600"/>
	<outline>
		<contour>
			<point x="52" y="-2" type="line"/>
			<point x="83" y="-23" type="line"/>
			<point x="544" y="661" type="line"/>
			<point x="513" y="682" type="line"/>
		</contour>
		<component base="O"/>
	</outline>
</glyph>
<glyph name="germandbls" format="1">
	<unicode hex="00DF"/>
	<advance width="600"/>
	<outline>
		<contour>
			<point x="403" y="-12" type="curve" smooth="yes"/>
			<point x="493" y="-12"/>
			<point x="560" y="48"/>
			<point x="560" y="127" type="curve" smooth="yes"/>
			<point x="560" y="294"/>
			<point x="332" y="262"/>
			<point x="332" y="377" type="curve" smooth="yes"/>
			<point x="332" y="457"/>
			<point x="439" y="492"/>
			<point x="439" y="595" type="curve" smooth="yes"/>
			<point x="439" y="670"/>
			<point x="382" y="731"/>
			<point x="290" y="731" type="curve" smooth="yes"/>
			<point x="181" y="731"/>
			<point x="104" y="655"/>
			<point x="104" y="533" type="curve" smooth="yes"/>
			<point x="104" y="0" type="line"/>
			<point x="148" y="0" type="line"/>
			<point x="148" y="519" type="line" smooth="yes"/>
			<point x="148" y="637"/>
			<point x="205" y="693"/>
			<point x="288" y="693" type="curve" smooth="yes"/>
			<point x="357" y="693"/>
			<point x="395" y="649"/>
			<point x="395" y="592" type="curve" smooth="yes"/>
			<point x="395" y="502"/>
			<point x="287" y="470"/>
			<point x="287" y="373" type="curve" smooth="yes"/>
			<point x="287" y="229"/>
			<point x="515" y="263"/>
			<point x="515" y="124" type="curve" smooth="yes"/>
			<point x="515" y="74"/>
			<point x="478" y="26"/>
			<point x="403" y="26" type="curve" smooth="yes"/>
			<point x="357" y="26"/>
			<point x="320" y="41"/>
			<point x="280" y="71" type="curve"/>
			<point x="257" y="38" type="line"/>
			<point x="297" y="7"/>
			<point x="346" y="-12"/>
		</contour>
	</outline>
</glyph>
<glyph name="divide" format="1">
	<unicode hex="00F7"/>
	<advance width="600"/>
	<outline>
		<contour>
			<point x="300" y="469" type="curve" smooth="yes"/>
			<point x="321" y="469"/>
			<point x="338" y="485"/>
			<point x="338" y="510" type="curve" smooth="yes"/>
			<point x="338" y="533"/>
			<point x="321" y="549"/>
			<point x="300" y="549" type="curve" smooth="yes"/>
			<point x="279" y="549"/>
			<point x="262" y="533"/>
			<point x="262" y="510" type="curve" smooth="yes"/>
			<point x="262" y="485"/>
			<point x="279" y="469"/>
		</contour>
		<contour>
			<point x="300" y="109" type="curve" smooth="yes"/>
			<point x="321" y="109"/>
			<point x="338" y="125"/>
			<point x="338" y="150" type="curve" smooth="yes"/>
			<point x="338" y="173"/>
			<point x="321" y="189"/>
			<point x="300" y="189" type="curve" smooth="yes"/>
			<point x="279" y="189"/>
			<point x="262" y="173"/>
			<point x="262" y="150" type="curve" smooth="yes"/>
			<point x="262" y="125"/>
			<point x="279" y="109"/>
		</contour>
		<contour>
			<point x="95" y="311" type="line"/>
			<point x="505" y="311" type="line"/>
			<point x="505" y="349" type="line"/>
			<point x="95" y="349" type="line"/>
		</contour>
	</outline>
</glyph>
<glyph name="oslash" format="1">
	<unicode hex="00F8"/>
	<advance width="600"/>
	<outline>
		<contour>
			<point x="300" y="-12" type="curve" smooth="yes"/>
			<point x="426" y="-12"/>
			<point x="533" y="80"/>
			<point x="533" y="239" type="curve" smooth="yes"/>
			<point x="533" y="400"/>
			<point x="426" y="492"/>
			<point x="300" y="492" type="curve" smooth="yes"/>
			<point x="174" y="492"/>
			<point x="67" y="400"/>
			<point x="67" y="239" type="curve" smooth="yes"/>
			<point x="67" y="80"/>
			<point x="174" y="-12"/>
		</contour>
		<contour>
			<point x="300" y="26" type="curve" smooth="yes"/>
			<point x="192" y="26"/>
			<point x="114" y="113"/>
			<point x="114" y="239" type="curve" smooth="yes"/>
			<point x="114" y="366"/>
			<point x="192" y="454"/>
			<point x="300" y="454" type="curve" smooth="yes"/>
			<point x="408" y="454"/>
			<point x="486" y="366"/>
			<point x="486" y="239" type="curve" smooth="yes"/>
			<point x="486" y="113"/>
			<point x="408" y="26"/>
		</contour>
		<contour>
			<point x="96" y="-24" type="line"/>
			<point x="532" y="478" type="line"/>
			<point x="504" y="503" type="line"/>
			<point x="68" y="0" type="line"/>
		</contour>
		<contour>
			<point name="aboveLC" x="300" y="502" type="move"/>
		</contour>
		<contour>
			<point name="baseLC" x="300" y="0" type="move"/>
		</contour>
		<contour>
			<point name="belowLC" x="300" y="-20" type="move"/>
		</contour>
	</outline>
</glyph>
<glyph name="Aogonek" format="1">
	<unicode hex="0104"/>
	<advance width="600"/>
	<outline>
		<contour>
			<point x="520" y="-224" type="curve" smooth="yes"/>
			<point x="558" y="-224"/>
			<point x="581" y="-208"/>
			<point x="602" y="-188" type="curve"/>
			<point x="582" y="-163" type="line"/>
			<point x="568" y="-177"/>
			<point x="551" y="-188"/>
			<point x="526" y="-188" type="curve" smooth="yes"/>
			<point x="494" y="-188"/>
			<point x="465" y="-169"/>
			<point x="465" y="-129" type="curve" smooth="yes"/>
			<point x="465" y="-76"/>
			<point x="506" y="-32"/>
			<point x="555" y="0" type="curve"/>
			<point x="323" y="659" type="line"/>
			<point x="277" y="659" type="line"/>
			<point x="45" y="0" type="line"/>
			<point x="91" y="0" type="line"/>
			<point x="225" y="388" type="line" smooth="yes"/>
			<point x="251" y="466"/>
			<point x="275" y="535"/>
			<point x="298" y="616" type="curve"/>
			<point x="302" y="616" type="line"/>
			<point x="325" y="535"/>
			<point x="348" y="466"/>
			<point x="375" y="388" type="curve" smooth="yes"/>
			<point x="506" y="0" type="line"/>
			<point x="513" y="0" type="line"/>
			<point x="470" y="-31"/>
			<point x="425" y="-75"/>
			<point x="425" y="-135" type="curve" smooth="yes"/>
			<point x="425" y="-196"/>
			<point x="466" y="-224"/>
		</contour>
		<contour>
			<point x="151" y="226" type="line"/>
			<point x="447" y="226" type="line"/>
			<point x="447" y="265" type="line"/>
			<point x="151" y="265" type="line"/>
		</contour>
		<contour>
			<point name="aboveUC" x="300" y="679" type="move"/>
		</contour>
	</outline>
</glyph>
<glyph name="dcaron" format="1">
	<unicode hex="010F"/>
	<advance width="600"/>
	<outline>
		<contour>
			<point x="274" y="-12" type="curve" smooth="yes"/>
			<point x="341" y="-12"/>
			<point x="402" y="28"/>
			<point x="444" y="71" type="curve"/>
			<point x="446" y="71" type="line"/>
			<point x="451" y="0" type="line"/>
			<point x="487" y="0" type="line"/>
			<point x="487" y="719" type="line"/>
			<point x="444" y="719" type="line"/>
			<point x="444" y="521" type="line"/>
			<point x="446" y="424" type="line"/>
			<point x="444" y="424" type="line"/>
			<point x="396" y="467"/>
			<point x="348" y="492"/>
			<point x="289" y="492" type="curve" smooth="yes"/>
			<point x="171" y="492"/>
			<point x="66" y="394"/>
			<point x="66" y="239" type="curve" smooth="yes"/>
			<point x="66" y="77"/>
			<point x="150" y="-12"/>
		</contour>
		<contour>
			<point x="281" y="27" type="curve" smooth="yes"/>
			<point x="174" y="27"/>
			<point x="111" y="112"/>
			<point x="111" y="239" type="curve" smooth="yes"/>
			<point x="111" y="360"/>
			<point x="191" y="453"/>
			<point x="292" y="453" type="curve" smooth="yes"/>
			<point x="341" y="453"/>
			<point x="390" y="433"/>
			<point x="444" y="382" type="curve"/>
			<point x="444" y="115" type="line"/>
			<point x="391" y="59"/>
			<point x="336" y="27"/>
		</contour>
		<component base="caron.a" xOffset="303"/>
	</outline>
</glyph>
<glyph name="Eogonek" format="1">
	<unicode hex="0118"/>
	<advance width="600"/>
	<outline>
		<contour>
			<point x="469" y="-224" type="curve" smooth="yes"/>
			<point x="507" y="-224"/>
			<point x="530" y="-208"/>
			<point x="551" y="-188" type="curve"/>
			<point x="531" y="-163" type="line"/>
			<point x="517" y="-177"/>
			<point x="500" y="-188"/>
			<point x="475" y="-188" type="curve" smooth="yes"/>
			<point x="444" y="-188"/>
			<point x="414" y="-169"/>
			<point x="414" y="-129" type="curve" smooth="yes"/>
			<point x="414" y="-71"/>
			<point x="471" y="-11"/>
			<point x="525" y="0" type="curve"/>
			<point x="527" y="0" type="line"/>
			<point x="527" y="40" type="line"/>
			<point x="173" y="40" type="line"/>
			<point x="173" y="330" type="line"/>
			<point x="463" y="330" type="line"/>
			<point x="463" y="370" type="line"/>
			<point x="173" y="370" type="line"/>
			<point x="173" y="619" type="line"/>
			<point x="517" y="619" type="line"/>
			<point x="517" y="659" type="line"/>
			<point x="127" y="659" type="line"/>
			<point x="127" y="0" type="line"/>
			<point x="463" y="0" type="line"/>
			<point x="415" y="-29"/>
			<point x="374" y="-77"/>
			<point x="374" y="-135" type="curve" smooth="yes"/>
			<point x="374" y="-196"/>
			<point x="415" y="-224"/>
		</contour>
		<contour>
			<point name="aboveUC" x="336" y="679" type="move"/>
		</contour>
	</outline>
</glyph>
<glyph name="eogonek" format="2">
	<unicode hex="0119"/>
	<advance width="600"/>
	<outline>
		<contour>
			<point x="426" y="-224" type="curve" smooth="yes"/>
			<point x="466" y="-224"/>
			<point x="489" y="-209"/>
			<point x="509" y="-188" type="curve"/>
			<point x="489" y="-165" type="line"/>
			<point x="477" y="-178"/>
			<point x="459" y="-189"/>
			<point x="432" y="-189" type="curve" smooth="yes"/>
			<point x="401" y="-189"/>
			<point x="370" y="-170"/>
			<point x="370" y="-129" type="curve" smooth="yes"/>
			<point x="370" y="-71"/>
			<point x="410" y="-29"/>
			<point x="512" y="45" type="curve"/>
			<point x="494" y="78" type="line"/>
			<point x="451" y="47"/>
			<point x="399" y="26"/>
			<point x="333" y="26" type="curve" smooth="yes"/>
			<point x="219" y="26"/>
			<point x="122" y="102"/>
			<point x="122" y="241" type="curve" smooth="yes"/>
			<point x="122" y="376"/>
			<point x="218" y="454"/>
			<point x="318" y="454" type="curve" smooth="yes"/>
			<point x="421" y="454"/>
			<point x="492" y="389"/>
			<point x="492" y="253" type="curve"/>
			<point x="510" y="271" type="line"/>
			<point x="99" y="271" type="line"/>
			<point x="99" y="233" type="line"/>
			<point x="530" y="233" type="line"/>
			<point x="532" y="245"/>
			<point x="532" y="258"/>
			<point x="532" y="270" type="curve" smooth="yes"/>
			<point x="532" y="408"/>
			<point x="449" y="492"/>
			<point x="317" y="492" type="curve" smooth="yes"/>
			<point x="192" y="492"/>
			<point x="77" y="396"/>
			<point x="77" y="239" type="curve" smooth="yes"/>
			<point x="77" y="82"/>
			<point x="191" y="-12"/>
			<point x="330" y="-12" type="curve" smooth="yes"/>
			<point x="358" y="-12"/>
			<point x="388" y="-14"/>
			<point x="442" y="14" type="curve"/>
			<point x="439" y="19" type="line"/>
			<point x="378" y="-22"/>
			<point x="331" y="-70"/>
			<point x="331" y="-135" type="curve" smooth="yes"/>
			<point x="331" y="-196"/>
			<point x="373" y="-224"/>
		</contour>
	</outline>
</glyph>
<glyph name="Hbar" format="2">
	<unicode hex="0126"/>
	<advance width="600"/>
	<outline>
		<contour>
			<point x="14" y="493" type="line"/>
			<point x="586" y="493" type="line"/>
			<point x="586" y="530" type="line"/>
			<point x="89" y="530" type="line"/>
			<point x="14" y="525" type="line"/>
		</contour>
		<component base="H"/>
	</outline>
</glyph>
<glyph name="dotlessi" format="1">
	<unicode hex="0131"/>
	<advance width="600"/>
	<outline>
		<contour>
			<point x="338" y="0" type="line"/>
			<point x="382" y="0" type="line"/>
			<point x="382" y="480" type="line"/>
			<point x="97" y="480" type="line"/>
			<point x="97" y="442" type="line"/>
			<point x="338" y="442" type="line"/>
		</contour>
		<contour>
			<point name="ogonekLC" x="359" y="0" type="move"/>
		</contour>
		<contour>
			<point name="aboveLC" x="349" y="502" type="move"/>
		</contour>
		<contour>
			<point name="baseLC" x="354" y="0" type="move"/>
		</contour>
		<contour>
			<point name="belowLC" x="349" y="-20" type="move"/>
		</contour>
	</outline>
</glyph>
<glyph name="ij" format="2">
	<unicode hex="0133"/>
	<advance width="600"/>
	<outline>
		<contour>
			<point x="132" y="0" type="line"/>
			<point x="177" y="0" type="line"/>
			<point x="177" y="480" type="line"/>
			<point x="132" y="480" type="line"/>
		</contour>
		<contour>
			<point x="155" y="596" type="curve" smooth="yes"/>
			<point x="181" y="596"/>
			<point x="201" y="614"/>
			<point x="201" y="643" type="curve" smooth="yes"/>
			<point x="201" y="671"/>
			<point x="181" y="689"/>
			<point x="155" y="689" type="curve" smooth="yes"/>
			<point x="130" y="689"/>
			<point x="110" y="671"/>
			<point x="110" y="643" type="curve" smooth="yes"/>
			<point x="110" y="614"/>
			<point x="130" y="596"/>
		</contour>
		<contour>
			<point x="379" y="-229" type="curve" smooth="yes"/>
			<point x="453" y="-229"/>
			<point x="487" y="-183"/>
			<point x="487" y="-89" type="curve" smooth="yes"/>
			<point x="487" y="480" type="line"/>
			<point x="442" y="480" type="line"/>
			<point x="442" y="-86" type="line" smooth="yes"/>
			<point x="442" y="-147"/>
			<point x="432" y="-191"/>
			<point x="378" y="-191" type="curve" smooth="yes"/>
			<point x="359" y="-191"/>
			<point x="340" y="-185"/>
			<point x="328" y="-181" type="curve"/>
			<point x="317" y="-217" type="line"/>
			<point x="332" y="-223"/>
			<point x="356" y="-229"/>
		</contour>
		<contour>
			<point x="465" y="596" type="curve" smooth="yes"/>
			<point x="491" y="596"/>
			<point x="511" y="614"/>
			<point x="511" y="643" type="curve" smooth="yes"/>
			<point x="511" y="671"/>
			<point x="491" y="689"/>
			<point x="465" y="689" type="curve" smooth="yes"/>
			<point x="440" y="689"/>
			<point x="420" y="671"/>
			<point x="420" y="643" type="curve" smooth="yes"/>
			<point x="420" y="614"/>
			<point x="440" y="596"/>
		</contour>
	</outline>
</glyph>
<glyph name="Lslash" format="1">
	<unicode hex="0141"/>
	<advance width="600"/>
	<outline>
		<contour>
			<point x="37" y="188" type="line"/>
			<point x="154" y="248" type="line"/>
			<point x="191" y="264" type="line"/>
			<point x="440" y="395" type="line"/>
			<point x="423" y="427" type="line"/>
			<point x="191" y="305" type="line"/>
			<point x="154" y="288" type="line"/>
			<point x="20" y="219" type="line"/>
		</contour>
		<component base="L"/>
		<contour>
			<point name="aboveUC" x="187" y="679" type="move"/>
		</contour>
		<contour>
			<point name="belowLC" x="357" y="-20" type="move"/>
		</contour>
	</outline>
</glyph>
<glyph name="OE" format="1">
	<unicode hex="0152"/>
	<advance width="600"/>
	<outline>
		<contour>
			<point x="301" y="0" type="curve" smooth="yes"/>
			<point x="589" y="0" type="line"/>
			<point x="589" y="40" type="line"/>
			<point x="364" y="40" type="line"/>
			<point x="364" y="330" type="line"/>
			<point x="528" y="330" type="line"/>
			<point x="528" y="370" type="line"/>
			<point x="364" y="370" type="line"/>
			<point x="364" y="621" type="line"/>
			<point x="579" y="621" type="line"/>
			<point x="579" y="660" type="line"/>
			<point x="301" y="660" type="line" smooth="yes"/>
			<point x="131" y="660"/>
			<point x="41" y="531"/>
			<point x="41" y="332" type="curve" smooth="yes"/>
			<point x="41" y="132"/>
			<point x="130" y="0"/>
		</contour>
		<contour>
			<point x="296" y="39" type="line" smooth="yes"/>
			<point x="152" y="39"/>
			<point x="89" y="160"/>
			<point x="89" y="332" type="curve" smooth="yes"/>
			<point x="89" y="504"/>
			<point x="152" y="621"/>
			<point x="296" y="621" type="curve" smooth="yes"/>
			<point x="320" y="621" type="line"/>
			<point x="320" y="39" type="line"/>
		</contour>
		<contour>
			<point name="aboveUC" x="388" y="679" type="move"/>
		</contour>
		<contour>
			<point name="baseLC" x="465" y="0" type="move"/>
		</contour>
	</outline>
</glyph>
<glyph name="tbar" format="2">
	<unicode hex="0167"/>
	<advance width="600"/>
	<outline>
		<contour>
			<point x="80" y="233" type="line"/>
			<point x="505" y="233" type="line"/>
			<point x="505" y="271" type="line"/>
			<point x="226" y="271" type="line"/>
			<point x="80" y="266" type="line"/>
		</contour>
		<component base="t"/>
	</outline>
</glyph>
<glyph name="longs" format="1">
	<unicode hex="017F"/>
	<advance width="600"/>
	<outline>
		<contour>
			<point x="260" y="0" type="line"/>
			<point x="302" y="0" type="line"/>
			<point x="302" y="542" type="line" smooth="yes"/>
			<point x="302" y="632"/>
			<point x="341" y="693"/>
			<point x="442" y="693" type="curve" smooth="yes"/>
			<point x="487" y="693"/>
			<point x="515" y="688"/>
			<point x="560" y="668" type="curve"/>
			<point x="574" y="702" type="line"/>
			<point x="525" y="725"/>
			<point x="482" y="731"/>
			<point x="439" y="731" type="curve" smooth="yes"/>
			<point x="319" y="731"/>
			<point x="260" y="659"/>
			<point x="260" y="538" type="curve" smooth="yes"/>
		</contour>
		<contour>
			<point x="115" y="442" type="line"/>
			<point x="287" y="442" type="line"/>
			<point x="287" y="480" type="line"/>
			<point x="260" y="480" type="line"/>
			<point x="115" y="476" type="line"/>
		</contour>
	</outline>
</glyph>
<glyph name="Dhook" format="1">
	<unicode hex="018A"/>
	<advance width="600"/>
	<outline>
		<contour>
			<point x="226" y="0" type="line"/>
			<point x="296" y="0" type="line" smooth="yes"/>
			<point x="467" y="0"/>
			<point x="559" y="134"/>
			<point x="559" y="339" type="curve" smooth="yes"/>
			<point x="559" y="542"/>
			<point x="469" y="671"/>
			<point x="262" y="671" type="curve" smooth="yes"/>
			<point x="113" y="671"/>
			<point x="35" y="580"/>
			<point x="35" y="453" type="curve" smooth="yes"/>
			<point x="35" y="360"/>
			<point x="75" y="302"/>
			<point x="143" y="268" type="curve"/>
			<point x="167" y="303" type="line"/>
			<point x="108" y="337"/>
			<point x="79" y="380"/>
			<point x="79" y="454" type="curve" smooth="yes"/>
			<point x="79" y="554"/>
			<point x="142" y="630"/>
			<point x="256" y="630" type="curve" smooth="yes"/>
			<point x="265" y="630" type="line" smooth="yes"/>
			<point x="444" y="630"/>
			<point x="511" y="513"/>
			<point x="511" y="339" type="curve" smooth="yes"/>
			<point x="511" y="163"/>
			<point x="445" y="39"/>
			<point x="301" y="39" type="curve" smooth="yes"/>
			<point x="272" y="39" type="line"/>
			<point x="272" y="651" type="line"/>
			<point x="226" y="651" type="line"/>
		</contour>
	</outline>
</glyph>
<glyph name="Schwa" format="2">
	<unicode hex="018F"/>
	<advance width="600"/>
	<outline>
		<contour>
			<point x="299" y="-12" type="curve" smooth="yes"/>
			<point x="445" y="-12"/>
			<point x="544" y="123"/>
			<point x="544" y="331" type="curve" smooth="yes"/>
			<point x="544" y="540"/>
			<point x="456" y="671"/>
			<point x="302" y="671" type="curve" smooth="yes"/>
			<point x="228" y="671"/>
			<point x="172" y="639"/>
			<point x="133" y="597" type="curve"/>
			<point x="157" y="566" type="line"/>
			<point x="194" y="606"/>
			<point x="244" y="631"/>
			<point x="302" y="631" type="curve" smooth="yes"/>
			<point x="430" y="631"/>
			<point x="498" y="514"/>
			<point x="498" y="331" type="curve" smooth="yes"/>
			<point x="498" y="146"/>
			<point x="421" y="28"/>
			<point x="299" y="28" type="curve" smooth="yes"/>
			<point x="180" y="28"/>
			<point x="109" y="143"/>
			<point x="109" y="331" type="curve"/>
			<point x="88" y="299" type="line"/>
			<point x="506" y="299" type="line"/>
			<point x="506" y="337" type="line"/>
			<point x="64" y="337" type="line"/>
			<point x="64" y="335"/>
			<point x="64" y="333"/>
			<point x="64" y="329" type="curve" smooth="yes"/>
			<point x="64" y="130"/>
			<point x="152" y="-12"/>
		</contour>
	</outline>
	<anchor name="aboveUC" x="316" y="679"/>
	<anchor name="baseLC" x="310" y="0"/>
	<anchor name="belowLC" x="301" y="-20"/>
	<anchor name="ogonekUC" x="310" y="0"/>
</glyph>
<glyph name="Istroke" format="2">
	<unicode hex="0197"/>
	<advance width="600"/>
	<outline>
		<contour>
			<point x="158" y="332" type="line"/>
			<point x="435" y="332" type="line"/>
			<point x="435" y="368" type="line"/>
			<point x="279" y="368" type="line"/>
			<point x="158" y="364" type="line"/>
		</contour>
		<component base="I"/>
	</outline>
</glyph>
<glyph name="ohorn" format="1">
	<unicode hex="01A1"/>
	<advance width="600"/>
	<outline>
		<contour>
			<point x="428" y="445" type="line"/>
			<point x="482" y="460"/>
			<point x="539" y="494"/>
			<point x="539" y="573" type="curve" smooth="yes"/>
			<point x="539" y="597"/>
			<point x="532" y="621"/>
			<point x="520" y="644" type="curve"/>
			<point x="482" y="624" type="line"/>
			<point x="492" y="607"/>
			<point x="496" y="587"/>
			<point x="496" y="570" type="curve" smooth="yes"/>
			<point x="496" y="512"/>
			<point x="461" y="480"/>
			<point x="392" y="469" type="curve"/>
		</contour>
		<component base="o"/>
		<contour>
			<point name="aboveLC" x="300" y="502" type="move"/>
		</contour>
		<contour>
			<point name="belowLC" x="300" y="-20" type="move"/>
		</contour>
	</outline>
</glyph>
<glyph name="clickalveolar" format="2">
	<unicode hex="01C2"/>
	<advance width="600"/>
	<outline>
		<contour>
			<point x="279" y="-217" type="line"/>
			<point x="321" y="-217" type="line"/>
			<point x="321" y="719" type="line"/>
			<point x="279" y="719" type="line"/>
		</contour>
		<contour>
			<point x="96" y="330" type="line"/>
			<point x="504" y="330" type="line"/>
			<point x="504" y="367" type="line"/>
			<point x="280" y="367" type="line"/>
			<point x="96" y="363" type="line"/>
		</contour>
		<contour>
			<point x="96" y="174" type="line"/>
			<point x="504" y="174" type="line"/>
			<point x="504" y="212" type="line"/>
			<point x="280" y="212" type="line"/>
			<point x="96" y="208" type="line"/>
		</contour>
	</outline>
</glyph>
<glyph name="clickretroflex" format="2">
	<unicode hex="01C3"/>
	<advance width="283"/>
	<outline>
		<contour>
			<point x="125" y="181" type="line"/>
			<point x="158" y="181" type="line"/>
			<point x="164" y="599" type="line"/>
			<point x="165" y="719" type="line"/>
			<point x="118" y="719" type="line"/>
			<point x="119" y="599" type="line"/>
		</contour>
		<contour>
			<point x="142" y="-12" type="curve" smooth="yes"/>
			<point x="164" y="-12"/>
			<point x="185" y="5"/>
			<point x="185" y="33" type="curve" smooth="yes"/>
			<point x="185" y="63"/>
			<point x="164" y="80"/>
			<point x="142" y="80" type="curve" smooth="yes"/>
			<point x="119" y="80"/>
			<point x="98" y="63"/>
			<point x="98" y="33" type="curve" smooth="yes"/>
			<point x="98" y="5"/>
			<point x="119" y="-12"/>
		</contour>
	</outline>
	<anchor name="aboveUC" x="142" y="731"/>
	<anchor name="belowLC" x="142" y="-22"/>
</glyph>
<glyph name="aringacute" format="1">
	<unicode hex="01FB"/>
	<advance width="600"/>
	<outline>
		<contour>
			<point x="285" y="723" type="line"/>
			<point x="413" y="786" type="line"/>
			<point x="391" y="822" type="line"/>
			<point x="262" y="736" type="line"/>
		</contour>
		<component base="aring"/>
	</outline>
</glyph>
<glyph name="dotlessj" format="1">
	<unicode hex="0237"/>
	<advance width="600"/>
	<outline>
		<contour>
			<point x="194" y="-229" type="curve" smooth="yes"/>
			<point x="337" y="-229"/>
			<point x="382" y="-155"/>
			<point x="382" y="-37" type="curve" smooth="yes"/>
			<point x="382" y="480" type="line"/>
			<point x="97" y="480" type="line"/>
			<point x="97" y="442" type="line"/>
			<point x="338" y="442" type="line"/>
			<point x="338" y="-43" type="line" smooth="yes"/>
			<point x="338" y="-132"/>
			<point x="309" y="-191"/>
			<point x="197" y="-191" type="curve" smooth="yes"/>
			<point x="156" y="-191"/>
			<point x="113" y="-178"/>
			<point x="81" y="-162" type="curve"/>
			<point x="63" y="-197" type="line"/>
			<point x="99" y="-215"/>
			<point x="149" y="-229"/>
		</contour>
		<contour>
			<point name="aboveLC" x="349" y="502" type="move"/>
		</contour>
		<contour>
			<point name="belowLC" x="232" y="-227" type="move"/>
		</contour>
	</outline>
</glyph>
<glyph name="Glottalstop" format="2">
	<unicode hex="0241"/>
	<advance width="453"/>
	<outline>
		<contour>
			<point x="182" y="0" type="line"/>
			<point x="228" y="0" type="line"/>
			<point x="228" y="251" type="line"/>
			<point x="353" y="301"/>
			<point x="427" y="377"/>
			<point x="427" y="487" type="curve" smooth="yes"/>
			<point x="427" y="606"/>
			<point x="334" y="671"/>
			<point x="213" y="671" type="curve" smooth="yes"/>
			<point x="116" y="671"/>
			<point x="44" y="627"/>
			<point x="0" y="583" type="curve"/>
			<point x="28" y="553" type="line"/>
			<point x="69" y="592"/>
			<point x="134" y="629"/>
			<point x="214" y="629" type="curve" smooth="yes"/>
			<point x="319" y="629"/>
			<point x="379" y="572"/>
			<point x="379" y="488" type="curve" smooth="yes"/>
			<point x="379" y="397"/>
			<point x="326" y="329"/>
			<point x="182" y="277" type="curve"/>
		</contour>
	</outline>
	<anchor name="aboveUC" x="225" y="681"/>
	<anchor name="belowLC" x="204" y="-22"/>
</glyph>
<glyph name="oopen" format="2">
	<unicode hex="0254"/>
	<advance width="600"/>
	<outline>
		<contour>
			<point x="259" y="-12" type="curve" smooth="yes"/>
			<point x="403" y="-12"/>
			<point x="513" y="80"/>
			<point x="513" y="239" type="curve" smooth="yes"/>
			<point x="513" y="400"/>
			<point x="401" y="492"/>
			<point x="265" y="492" type="curve" smooth="yes"/>
			<point x="175" y="492"/>
			<point x="117" y="457"/>
			<point x="78" y="419" type="curve"/>
			<point x="103" y="389" type="line"/>
			<point x="144" y="427"/>
			<point x="196" y="453"/>
			<point x="264" y="453" type="curve" smooth="yes"/>
			<point x="384" y="453"/>
			<point x="466" y="366"/>
			<point x="466" y="239" type="curve" smooth="yes"/>
			<point x="466" y="113"/>
			<point x="382" y="27"/>
			<point x="257" y="27" type="curve" smooth="yes"/>
			<point x="190" y="27"/>
			<point x="132" y="56"/>
			<point x="89" y="96" type="curve"/>
			<point x="66" y="65" type="line"/>
			<point x="115" y="19"/>
			<point x="182" y="-12"/>
		</contour>
	</outline>
	<anchor name="aboveLC" x="290" y="502"/>
	<anchor name="baseLC" x="280" y="0"/>
	<anchor name="belowLC" x="280" y="-20"/>
</glyph>
<glyph name="ccurl" format="1">
	<unicode hex="0255"/>
	<advance width="600"/>
	<outline>
		<contour>
			<point x="180" y="-105" type="line"/>
			<point x="221" y="35"/>
			<point x="339" y="139"/>
			<point x="419" y="139" type="curve" smooth="yes"/>
			<point x="468" y="139"/>
			<point x="487" y="118"/>
			<point x="487" y="93" type="curve" smooth="yes"/>
			<point x="487" y="53"/>
			<point x="443" y="26"/>
			<point x="357" y="26" type="curve" smooth="yes"/>
			<point x="228" y="26"/>
			<point x="133" y="111"/>
			<point x="133" y="239" type="curve" smooth="yes"/>
			<point x="133" y="366"/>
			<point x="224" y="454"/>
			<point x="341" y="454" type="curve" smooth="yes"/>
			<point x="405" y="454"/>
			<point x="454" y="430"/>
			<point x="495" y="389" type="curve"/>
			<point x="521" y="419" type="line"/>
			<point x="480" y="461"/>
			<point x="424" y="492"/>
			<point x="340" y="492" type="curve" smooth="yes"/>
			<point x="205" y="492"/>
			<point x="87" y="400"/>
			<point x="87" y="239" type="curve" smooth="yes"/>
			<point x="87" y="80"/>
			<point x="208" y="-12"/>
			<point x="357" y="-12" type="curve" smooth="yes"/>
			<point x="472" y="-12"/>
			<point x="526" y="35"/>
			<point x="526" y="95" type="curve" smooth="yes"/>
			<point x="526" y="143"/>
			<point x="490" y="175"/>
			<point x="421" y="175" type="curve" smooth="yes"/>
			<point x="318" y="175"/>
			<point x="198" y="71"/>
			<point x="141" y="-90" type="curve"/>
		</contour>
		<contour>
			<point name="aboveLC" x="340" y="502" type="move"/>
		</contour>
		<contour>
			<point name="belowLC" x="360" y="-20" type="move"/>
		</contour>
	</outline>
</glyph>
<glyph name="ereversed" format="2">
	<unicode hex="0258"/>
	<advance width="600"/>
	<outline>
		<contour>
			<point x="270" y="-12" type="curve" smooth="yes"/>
			<point x="408" y="-12"/>
			<point x="523" y="82"/>
			<point x="523" y="239" type="curve" smooth="yes"/>
			<point x="523" y="396"/>
			<point x="419" y="492"/>
			<point x="294" y="492" type="curve" smooth="yes"/>
			<point x="163" y="492"/>
			<point x="68" y="408"/>
			<point x="68" y="270" type="curve" smooth="yes"/>
			<point x="68" y="258"/>
			<point x="68" y="245"/>
			<point x="70" y="233" type="curve"/>
			<point x="501" y="233" type="line"/>
			<point x="501" y="271" type="line"/>
			<point x="90" y="271" type="line"/>
			<point x="108" y="253" type="line"/>
			<point x="108" y="389"/>
			<point x="190" y="454"/>
			<point x="293" y="454" type="curve" smooth="yes"/>
			<point x="393" y="454"/>
			<point x="478" y="376"/>
			<point x="478" y="241" type="curve" smooth="yes"/>
			<point x="478" y="102"/>
			<point x="381" y="26"/>
			<point x="268" y="26" type="curve" smooth="yes"/>
			<point x="202" y="26"/>
			<point x="151" y="47"/>
			<point x="106" y="78" type="curve"/>
			<point x="88" y="44" type="line"/>
			<point x="132" y="16"/>
			<point x="185" y="-12"/>
		</contour>
	</outline>
</glyph>
<glyph name="schwa" format="1">
	<unicode hex="0259"/>
	<advance width="600"/>
	<outline>
		<contour>
			<point x="301" y="-12" type="curve" smooth="yes"/>
			<point x="435" y="-12"/>
			<point x="532" y="81"/>
			<point x="532" y="241" type="curve" smooth="yes"/>
			<point x="532" y="398"/>
			<point x="436" y="492"/>
			<point x="291" y="492" type="curve" smooth="yes"/>
			<point x="206" y="492"/>
			<point x="153" y="464"/>
			<point x="109" y="436" type="curve"/>
			<point x="127" y="402" type="line"/>
			<point x="172" y="433"/>
			<point x="223" y="454"/>
			<point x="288" y="454" type="curve" smooth="yes"/>
			<point x="408" y="454"/>
			<point x="487" y="378"/>
			<point x="487" y="239" type="curve" smooth="yes"/>
			<point x="487" y="101"/>
			<point x="409" y="26"/>
			<point x="300" y="26" type="curve" smooth="yes"/>
			<point x="188" y="26"/>
			<point x="117" y="98"/>
			<point x="117" y="238" type="curve"/>
			<point x="99" y="220" type="line"/>
			<point x="510" y="220" type="line"/>
			<point x="510" y="258" type="line"/>
			<point x="80" y="258" type="line"/>
			<point x="78" y="246"/>
			<point x="77" y="233"/>
			<point x="77" y="221" type="curve" smooth="yes"/>
			<point x="77" y="80"/>
			<point x="160" y="-12"/>
		</contour>
		<contour>
			<point name="ogonekLC" x="299" y="0" type="move"/>
		</contour>
		<contour>
			<point name="aboveLC" x="310" y="502" type="move"/>
		</contour>
		<contour>
			<point name="baseLC" x="299" y="0" type="move"/>
		</contour>
		<contour>
			<point name="belowLC" x="299" y="-20" type="move"/>
		</contour>
	</outline>
</glyph>
<glyph name="eopen" format="1">
	<unicode hex="025B"/>
	<advance width="600"/>
	<outline>
		<contour>
			<point x="319" y="-12" type="curve" smooth="yes"/>
			<point x="399" y="-12"/>
			<point x="468" y="6"/>
			<point x="528" y="61" type="curve"/>
			<point x="506" y="92" type="line"/>
			<point x="451" y="42"/>
			<point x="392" y="26"/>
			<point x="323" y="26" type="curve" smooth="yes"/>
			<point x="217" y="26"/>
			<point x="149" y="64"/>
			<point x="149" y="133" type="curve" smooth="yes"/>
			<point x="149" y="200"/>
			<point x="217" y="233"/>
			<point x="336" y="233" type="curve" smooth="yes"/>
			<point x="395" y="233" type="line"/>
			<point x="395" y="271" type="line"/>
			<point x="350" y="271" type="line" smooth="yes"/>
			<point x="234" y="271"/>
			<point x="176" y="306"/>
			<point x="176" y="364" type="curve" smooth="yes"/>
			<point x="176" y="425"/>
			<point x="233" y="454"/>
			<point x="323" y="454" type="curve" smooth="yes"/>
			<point x="399" y="454"/>
			<point x="444" y="432"/>
			<point x="493" y="397" type="curve"/>
			<point x="515" y="427" type="line"/>
			<point x="466" y="465"/>
			<point x="408" y="492"/>
			<point x="322" y="492" type="curve" smooth="yes"/>
			<point x="211" y="492"/>
			<point x="131" y="450"/>
			<point x="131" y="368" type="curve" smooth="yes"/>
			<point x="131" y="316"/>
			<point x="166" y="280"/>
			<point x="217" y="257" type="curve"/>
			<point x="217" y="253" type="line"/>
			<point x="156" y="237"/>
			<point x="103" y="201"/>
			<point x="103" y="130" type="curve" smooth="yes"/>
			<point x="103" y="42"/>
			<point x="187" y="-12"/>
		</contour>
		<contour>
			<point name="aboveLC" x="330" y="502" type="move"/>
		</contour>
		<contour>
			<point name="baseLC" x="319" y="0" type="move"/>
		</contour>
		<contour>
			<point name="belowLC" x="319" y="-20" type="move"/>
		</contour>
	</outline>
</glyph>
<glyph name="dotlessjstroke" format="1">
	<unicode hex="025F"/>
	<advance width="600"/>
	<outline>
		<contour>
			<point x="134" y="229" type="line"/>
			<point x="567" y="229" type="line"/>
			<point x="567" y="268" type="line"/>
			<point x="338" y="268" type="line"/>
			<point x="134" y="263" type="line"/>
		</contour>
		<component base="dotlessj"/>
		<contour>
			<point name="aboveLC" x="349" y="502" type="move"/>
		</contour>
		<contour>
			<point name="belowLC" x="232" y="-227" type="move"/>
		</contour>
	</outline>
</glyph>
<glyph name="gsmall" format="1">
	<unicode hex="0262"/>
	<advance width="600"/>
	<outline>
		<contour>
			<point x="340" y="-12" type="curve" smooth="yes"/>
			<point x="421" y="-12"/>
			<point x="483" y="19"/>
			<point x="523" y="58" type="curve"/>
			<point x="523" y="242" type="line"/>
			<point x="323" y="242" type="line"/>
			<point x="323" y="205" type="line"/>
			<point x="482" y="205" type="line"/>
			<point x="482" y="77" type="line"/>
			<point x="449" y="47"/>
			<point x="400" y="26"/>
			<point x="343" y="26" type="curve" smooth="yes"/>
			<point x="224" y="26"/>
			<point x="133" y="108"/>
			<point x="133" y="242" type="curve" smooth="yes"/>
			<point x="133" y="373"/>
			<point x="229" y="454"/>
			<point x="347" y="454" type="curve" smooth="yes"/>
			<point x="415" y="454"/>
			<point x="461" y="422"/>
			<point x="494" y="389" type="curve"/>
			<point x="520" y="419" type="line"/>
			<point x="483" y="455"/>
			<point x="429" y="492"/>
			<point x="345" y="492" type="curve" smooth="yes"/>
			<point x="202" y="492"/>
			<point x="87" y="396"/>
			<point x="87" y="242" type="curve" smooth="yes"/>
			<point x="87" y="82"/>
			<point x="197" y="-12"/>
		</contour>
		<contour>
			<point name="aboveLC" x="331" y="502" type="move"/>
		</contour>
		<contour>
			<point name="belowLC" x="329" y="-20" type="move"/>
		</contour>
	</outline>
</glyph>
<glyph name="henghook" format="1">
	<unicode hex="0267"/>
	<advance width="600"/>
	<outline>
		<contour>
			<point x="397" y="-181" type="curve" smooth="yes"/>
			<point x="478" y="-181"/>
			<point x="514" y="-132"/>
			<point x="514" y="-32" type="curve"/>
			<point x="514" y="297" type="line" smooth="yes"/>
			<point x="514" y="427"/>
			<point x="458" y="490"/>
			<point x="341" y="490" type="curve" smooth="yes"/>
			<point x="265" y="490"/>
			<point x="206" y="445"/>
			<point x="149" y="383" type="curve"/>
			<point x="145" y="383" type="line"/>
			<point x="150" y="556" type="line"/>
			<point x="151" y="637"/>
			<point x="184" y="693"/>
			<point x="264" y="693" type="curve" smooth="yes"/>
			<point x="285" y="693"/>
			<point x="308" y="688"/>
			<point x="332" y="677" type="curve"/>
			<point x="346" y="713" type="line"/>
			<point x="320" y="724"/>
			<point x="289" y="731"/>
			<point x="263" y="731" type="curve" smooth="yes"/>
			<point x="164" y="731"/>
			<point x="105" y="667"/>
			<point x="105" y="558" type="curve"/>
			<point x="105" y="0" type="line"/>
			<point x="150" y="0" type="line"/>
			<point x="150" y="342" type="line"/>
			<point x="219" y="415"/>
			<point x="266" y="450"/>
			<point x="334" y="450" type="curve" smooth="yes"/>
			<point x="429" y="450"/>
			<point x="469" y="399"/>
			<point x="469" y="291" type="curve" smooth="yes"/>
			<point x="469" y="-29" type="line"/>
			<point x="469" y="-95"/>
			<point x="457" y="-142"/>
			<point x="396" y="-142" type="curve" smooth="yes"/>
			<point x="373" y="-142"/>
			<point x="351" y="-136"/>
			<point x="337" y="-131" type="curve"/>
			<point x="326" y="-167" type="line"/>
			<point x="343" y="-174"/>
			<point x="372" y="-181"/>
		</contour>
		<contour>
			<point name="aboveUC" x="263" y="739" type="move"/>
		</contour>
		<contour>
			<point name="belowLC" x="382" y="-227" type="move"/>
		</contour>
	</outline>
</glyph>
<glyph name="ismall" format="2">
	<unicode hex="026A"/>
	<advance width="600"/>
	<outline>
		<contour>
			<point x="90" y="0" type="line"/>
			<point x="510" y="0" type="line"/>
			<point x="510" y="39" type="line"/>
			<point x="321" y="39" type="line"/>
			<point x="321" y="442" type="line"/>
			<point x="510" y="442" type="line"/>
			<point x="510" y="480" type="line"/>
			<point x="90" y="480" type="line"/>
			<point x="90" y="442" type="line"/>
			<point x="277" y="442" type="line"/>
			<point x="277" y="39" type="line"/>
			<point x="90" y="39" type="line"/>
		</contour>
	</outline>
	<anchor name="aboveLC" x="300" y="502"/>
	<anchor name="belowLC" x="300" y="-20"/>
</glyph>
<glyph name="lezh" format="1">
	<unicode hex="026E"/>
	<advance width="600"/>
	<outline>
		<contour>
			<point x="102" y="0" type="line"/>
			<point x="146" y="0" type="line"/>
			<point x="146" y="719" type="line"/>
			<point x="102" y="719" type="line"/>
		</contour>
		<contour>
			<point x="351" y="-229" type="curve" smooth="yes"/>
			<point x="454" y="-229"/>
			<point x="554" y="-153"/>
			<point x="554" y="-15" type="curve" smooth="yes"/>
			<point x="554" y="110"/>
			<point x="457" y="208"/>
			<point x="287" y="163" type="curve"/>
			<point x="299" y="145" type="line"/>
			<point x="534" y="457" type="line"/>
			<point x="534" y="480" type="line"/>
			<point x="142" y="480" type="line"/>
			<point x="142" y="442" type="line"/>
			<point x="474" y="442" type="line"/>
			<point x="253" y="150" type="line"/>
			<point x="278" y="121" type="line"/>
			<point x="300" y="132"/>
			<point x="317" y="138"/>
			<point x="354" y="138" type="curve" smooth="yes"/>
			<point x="451" y="138"/>
			<point x="508" y="79"/>
			<point x="508" y="-18" type="curve" smooth="yes"/>
			<point x="508" y="-121"/>
			<point x="436" y="-190"/>
			<point x="350" y="-190" type="curve" smooth="yes"/>
			<point x="263" y="-190"/>
			<point x="214" y="-159"/>
			<point x="177" y="-123" type="curve"/>
			<point x="151" y="-154" type="line"/>
			<point x="191" y="-191"/>
			<point x="249" y="-229"/>
		</contour>
		<contour>
			<point name="aboveUC" x="128" y="739" type="move"/>
		</contour>
		<contour>
			<point name="belowLC" x="352" y="-227" type="move"/>
		</contour>
	</outline>
</glyph>
<glyph name="nsmall" format="1">
	<unicode hex="0274"/>
	<advance width="600"/>
	<outline>
		<contour>
			<point x="109" y="0" type="line"/>
			<point x="152" y="0" type="line"/>
			<point x="152" y="240" type="line" smooth="yes"/>
			<point x="152" y="293"/>
			<point x="150" y="354"/>
			<point x="147" y="418" type="curve"/>
			<point x="151" y="418" type="line"/>
			<point x="174" y="386"/>
			<point x="203" y="344"/>
			<point x="225" y="314" type="curve" smooth="yes"/>
			<point x="446" y="0" type="line"/>
			<point x="491" y="0" type="line"/>
			<point x="491" y="480" type="line"/>
			<point x="448" y="480" type="line"/>
			<point x="448" y="240" type="line" smooth="yes"/>
			<point x="448" y="188"/>
			<point x="450" y="126"/>
			<point x="453" y="63" type="curve"/>
			<point x="449" y="63" type="line"/>
			<point x="424" y="94"/>
			<point x="397" y="136"/>
			<point x="375" y="167" type="curve" smooth="yes"/>
			<point x="154" y="480" type="line"/>
			<point x="109" y="480" type="line"/>
		</contour>
		<contour>
			<point name="aboveLC" x="310" y="502" type="move"/>
		</contour>
		<contour>
			<point name="belowLC" x="301" y="-20" type="move"/>
		</contour>
	</outline>
</glyph>
<glyph name="rlonglegturned" format="1">
	<unicode hex="027A"/>
	<advance width="600"/>
	<outline>
		<contour>
			<point x="166" y="-12" type="curve" smooth="yes"/>
			<point x="262" y="-12"/>
			<point x="340" y="42"/>
			<point x="392" y="119" type="curve"/>
			<point x="394" y="119" type="line"/>
			<point x="399" y="0" type="line"/>
			<point x="437" y="0" type="line"/>
			<point x="437" y="719" type="line"/>
			<point x="392" y="719" type="line"/>
			<point x="392" y="180" type="line"/>
			<point x="326" y="71"/>
			<point x="253" y="30"/>
			<point x="173" y="30" type="curve" smooth="yes"/>
			<point x="135" y="30"/>
			<point x="117" y="35"/>
			<point x="82" y="48" type="curve"/>
			<point x="70" y="8" type="line"/>
			<point x="100" y="-8"/>
			<point x="134" y="-12"/>
		</contour>
		<contour>
			<point name="aboveUC" x="410" y="739" type="move"/>
		</contour>
		<contour>
			<point name="belowLC" x="263" y="-20" type="move"/>
		</contour>
	</outline>
</glyph>
<glyph name="rhookturned" format="1">
	<unicode hex="027B"/>
	<advance width="600"/>
	<outline>
		<contour>
			<point x="418" y="-181" type="curve" smooth="yes"/>
			<point x="443" y="-181"/>
			<point x="477" y="-173"/>
			<point x="495" y="-163" type="curve"/>
			<point x="484" y="-127" type="line"/>
			<point x="467" y="-134"/>
			<point x="441" y="-142"/>
			<point x="419" y="-142" type="curve" smooth="yes"/>
			<point x="362" y="-142"/>
			<point x="343" y="-106"/>
			<point x="343" y="-26" type="curve"/>
			<point x="343" y="480" type="line"/>
			<point x="299" y="480" type="line"/>
			<point x="299" y="156" type="line"/>
			<point x="261" y="63"/>
			<point x="215" y="30"/>
			<point x="164" y="30" type="curve" smooth="yes"/>
			<point x="129" y="30"/>
			<point x="114" y="36"/>
			<point x="82" y="48" type="curve"/>
			<point x="70" y="8" type="line"/>
			<point x="101" y="-7"/>
			<point x="129" y="-12"/>
			<point x="159" y="-12" type="curve" smooth="yes"/>
			<point x="225" y="-12"/>
			<point x="267" y="31"/>
			<point x="298" y="91" type="curve"/>
			<point x="301" y="91" type="line"/>
			<point x="301" y="-32" type="line" smooth="yes"/>
			<point x="301" y="-134"/>
			<point x="335" y="-181"/>
		</contour>
		<contour>
			<point name="aboveLC" x="307" y="502" type="move"/>
		</contour>
		<contour>
			<point name="belowLC" x="301" y="-227" type="move"/>
		</contour>
	</outline>
</glyph>
<glyph name="rsmall" format="1">
	<unicode hex="0280"/>
	<advance width="600"/>
	<outline>
		<contour>
			<point x="114" y="0" type="line"/>
			<point x="159" y="0" type="line"/>
			<point x="159" y="209" type="line"/>
			<point x="354" y="209" type="line"/>
			<point x="443" y="209"/>
			<point x="519" y="250"/>
			<point x="519" y="348" type="curve" smooth="yes"/>
			<point x="519" y="445"/>
			<point x="447" y="480"/>
			<point x="347" y="480" type="curve" smooth="yes"/>
			<point x="114" y="480" type="line"/>
		</contour>
		<contour>
			<point x="159" y="247" type="line"/>
			<point x="159" y="442" type="line"/>
			<point x="336" y="442" type="line" smooth="yes"/>
			<point x="421" y="442"/>
			<point x="473" y="415"/>
			<point x="473" y="347" type="curve" smooth="yes"/>
			<point x="473" y="280"/>
			<point x="421" y="247"/>
			<point x="336" y="247" type="curve" smooth="yes"/>
		</contour>
		<contour>
			<point x="481" y="0" type="line"/>
			<point x="533" y="0" type="line"/>
			<point x="360" y="231" type="line"/>
			<point x="322" y="216" type="line"/>
		</contour>
		<contour>
			<point name="aboveLC" x="319" y="502" type="move"/>
		</contour>
		<contour>
			<point name="belowLC" x="319" y="-20" type="move"/>
		</contour>
	</outline>
</glyph>
<glyph name="esh" format="1">
	<unicode hex="0283"/>
	<advance width="600"/>
	<outline>
		<contour>
			<point x="188" y="-229" type="curve" smooth="yes"/>
			<point x="281" y="-229"/>
			<point x="323" y="-172"/>
			<point x="323" y="-53" type="curve" smooth="yes"/>
			<point x="323" y="554" type="line" smooth="yes"/>
			<point x="323" y="635"/>
			<point x="341" y="695"/>
			<point x="426" y="695" type="curve" smooth="yes"/>
			<point x="459" y="695"/>
			<point x="484" y="683"/>
			<point x="515" y="666" type="curve"/>
			<point x="530" y="702" type="line"/>
			<point x="492" y="722"/>
			<point x="465" y="733"/>
			<point x="425" y="733" type="curve" smooth="yes"/>
			<point x="324" y="733"/>
			<point x="279" y="676"/>
			<point x="279" y="557" type="curve" smooth="yes"/>
			<point x="279" y="-50" type="line" smooth="yes"/>
			<point x="279" y="-131"/>
			<point x="264" y="-191"/>
			<point x="187" y="-191" type="curve" smooth="yes"/>
			<point x="147" y="-191"/>
			<point x="112" y="-177"/>
			<point x="81" y="-162" type="curve"/>
			<point x="63" y="-197" type="line"/>
			<point x="103" y="-218"/>
			<point x="142" y="-229"/>
		</contour>
		<contour>
			<point name="aboveUC" x="346" y="739" type="move"/>
		</contour>
		<contour>
			<point name="belowLC" x="274" y="-227" type="move"/>
		</contour>
	</outline>
</glyph>
<glyph name="dotlessjstrokehook" format="1">
	<unicode hex="0284"/>
	<advance width="600"/>
	<outline>
		<contour>
			<point x="87" y="234" type="line"/>
			<point x="510" y="234" type="line"/>
			<point x="510" y="271" type="line"/>
			<point x="279" y="271" type="line"/>
			<point x="87" y="267" type="line"/>
		</contour>
		<component base="esh"/>
		<contour>
			<point name="aboveUC" x="346" y="739" type="move"/>
		</contour>
		<contour>
			<point name="belowLC" x="273" y="-227" type="move"/>
		</contour>
	</outline>
</glyph>
<glyph name="tturned" format="1">
	<unicode hex="0287"/>
	<advance width="600"/>
	<outline>
		<component base="t" xScale="-1" yScale="-1" xOffset="600" yOffset="480"/>
		<contour>
			<point name="aboveLC" x="227" y="502" type="move"/>
		</contour>
		<contour>
			<point name="belowLC" x="358" y="-34" type="move"/>
		</contour>
	</outline>
</glyph>
<glyph name="upsilonlatin" format="1">
	<unicode hex="028A"/>
	<advance width="600"/>
	<outline>
		<contour>
			<point x="300" y="-12" type="curve" smooth="yes"/>
			<point x="447" y="-12"/>
			<point x="531" y="96"/>
			<point x="531" y="214" type="curve" smooth="yes"/>
			<point x="531" y="324"/>
			<point x="474" y="395"/>
			<point x="427" y="440" type="curve"/>
			<point x="427" y="442" type="line"/>
			<point x="543" y="442" type="line"/>
			<point x="543" y="480" type="line"/>
			<point x="365" y="480" type="line"/>
			<point x="365" y="451" type="line"/>
			<point x="431" y="404"/>
			<point x="485" y="331"/>
			<point x="485" y="223" type="curve" smooth="yes"/>
			<point x="485" y="120"/>
			<point x="420" y="27"/>
			<point x="300" y="27" type="curve" smooth="yes"/>
			<point x="180" y="27"/>
			<point x="115" y="120"/>
			<point x="115" y="223" type="curve" smooth="yes"/>
			<point x="115" y="331"/>
			<point x="169" y="404"/>
			<point x="235" y="451" type="curve"/>
			<point x="235" y="480" type="line"/>
			<point x="57" y="480" type="line"/>
			<point x="57" y="442" type="line"/>
			<point x="173" y="442" type="line"/>
			<point x="173" y="440" type="line"/>
			<point x="126" y="395"/>
			<point x="69" y="324"/>
			<point x="69" y="214" type="curve" smooth="yes"/>
			<point x="69" y="96"/>
			<point x="153" y="-12"/>
		</contour>
		<contour>
			<point name="aboveLC" x="300" y="502" type="move"/>
		</contour>
		<contour>
			<point name="belowLC" x="300" y="-20" type="move"/>
		</contour>
	</outline>
</glyph>
<glyph name="vhook" format="1">
	<unicode hex="028B"/>
	<advance width="600"/>
	<outline>
		<contour>
			<point x="296" y="-12" type="curve" smooth="yes"/>
			<point x="451" y="-12"/>
			<point x="533" y="119"/>
			<point x="533" y="288" type="curve" smooth="yes"/>
			<point x="533" y="426"/>
			<point x="480" y="492"/>
			<point x="387" y="492" type="curve" smooth="yes"/>
			<point x="357" y="492"/>
			<point x="345" y="489"/>
			<point x="326" y="484" type="curve"/>
			<point x="336" y="446" type="line"/>
			<point x="353" y="452"/>
			<point x="356" y="454"/>
			<point x="379" y="454" type="curve" smooth="yes"/>
			<point x="451" y="454"/>
			<point x="486" y="391"/>
			<point x="486" y="282" type="curve" smooth="yes"/>
			<point x="486" y="141"/>
			<point x="419" y="27"/>
			<point x="298" y="27" type="curve" smooth="yes"/>
			<point x="209" y="27"/>
			<point x="131" y="78"/>
			<point x="131" y="213" type="curve" smooth="yes"/>
			<point x="131" y="480" type="line"/>
			<point x="87" y="480" type="line"/>
			<point x="87" y="204" type="line" smooth="yes"/>
			<point x="87" y="50"/>
			<point x="181" y="-12"/>
		</contour>
		<contour>
			<point name="aboveLC" x="301" y="502" type="move"/>
		</contour>
		<contour>
			<point name="belowLC" x="301" y="-20" type="move"/>
		</contour>
	</outline>
</glyph>
<glyph name="kturned" format="1">
	<unicode hex="029E"/>
	<advance width="600"/>
	<outline>
		<contour>
			<point x="432" y="-217" type="line"/>
			<point x="477" y="-217" type="line"/>
			<point x="477" y="480" type="line"/>
			<point x="432" y="480" type="line"/>
			<point x="432" y="344" type="line"/>
			<point x="35" y="0" type="line"/>
			<point x="93" y="0" type="line"/>
			<point x="428" y="290" type="line"/>
			<point x="432" y="290" type="line"/>
		</contour>
		<contour>
			<point x="276" y="171" type="line"/>
			<point x="303" y="202" type="line"/>
			<point x="115" y="480" type="line"/>
			<point x="67" y="480" type="line"/>
		</contour>
		<contour>
			<point name="aboveLC" x="277" y="502" type="move"/>
		</contour>
		<contour>
			<point name="belowLC" x="450" y="-227" type="move"/>
		</contour>
	</outline>
</glyph>
<glyph name="lsmall" format="2">
	<unicode hex="029F"/>
	<advance width="600"/>
	<outline>
		<contour>
			<point x="164" y="0" type="line"/>
			<point x="529" y="0" type="line"/>
			<point x="529" y="39" type="line"/>
			<point x="208" y="39" type="line"/>
			<point x="208" y="480" type="line"/>
			<point x="164" y="480" type="line"/>
		</contour>
	</outline>
	<anchor name="aboveLC" x="190" y="502"/>
	<anchor name="belowLC" x="348" y="-20"/>
</glyph>
<glyph name="ts" format="2">
	<unicode hex="02A6"/>
	<advance width="600"/>
	<outline>
		<contour>
			<point x="326" y="-12" type="curve" smooth="yes"/>
			<point x="496" y="-12"/>
			<point x="558" y="39"/>
			<point x="558" y="125" type="curve" smooth="yes"/>
			<point x="558" y="302"/>
			<point x="352" y="270"/>
			<point x="352" y="384" type="curve" smooth="yes"/>
			<point x="352" y="430"/>
			<point x="383" y="455"/>
			<point x="430" y="455" type="curve" smooth="yes"/>
			<point x="470" y="455"/>
			<point x="499" y="440"/>
			<point x="528" y="417" type="curve"/>
			<point x="549" y="446" type="line"/>
			<point x="516" y="474"/>
			<point x="477" y="492"/>
			<point x="430" y="492" type="curve" smooth="yes"/>
			<point x="359" y="492"/>
			<point x="307" y="459"/>
			<point x="307" y="383" type="curve" smooth="yes"/>
			<point x="307" y="242"/>
			<point x="515" y="274"/>
			<point x="515" y="124" type="curve" smooth="yes"/>
			<point x="515" y="65"/>
			<point x="467" y="26"/>
			<point x="325" y="26" type="curve" smooth="yes"/>
			<point x="190" y="26"/>
			<point x="155" y="69"/>
			<point x="155" y="165" type="curve" smooth="yes"/>
			<point x="155" y="442" type="line"/>
			<point x="377" y="442" type="line"/>
			<point x="377" y="480" type="line"/>
			<point x="155" y="480" type="line"/>
			<point x="155" y="639" type="line"/>
			<point x="118" y="639" type="line"/>
			<point x="112" y="480" type="line"/>
			<point x="36" y="476" type="line"/>
			<point x="36" y="442" type="line"/>
			<point x="111" y="442" type="line"/>
			<point x="111" y="169" type="line" smooth="yes"/>
			<point x="111" y="48"/>
			<point x="160" y="-12"/>
		</contour>
	</outline>
	<anchor name="aboveLC" x="330" y="633"/>
	<anchor name="belowLC" x="331" y="-20"/>
</glyph>
<glyph name="ringhalfleftmod" format="2">
	<unicode hex="02BF"/>
	<advance width="600"/>
	<outline>
		<contour>
			<point x="371" y="538" type="curve"/>
			<point x="371" y="570" type="line"/>
			<point x="288" y="570"/>
			<point x="238" y="612"/>
			<point x="238" y="681" type="curve" smooth="yes"/>
			<point x="238" y="749"/>
			<point x="288" y="791"/>
			<point x="371" y="791" type="curve"/>
			<point x="371" y="823" type="line"/>
			<point x="264" y="827"/>
			<point x="197" y="772"/>
			<point x="197" y="681" type="curve" smooth="yes"/>
			<point x="197" y="589"/>
			<point x="264" y="534"/>
		</contour>
	</outline>
</glyph>
<glyph name="glottalstopmod" format="2">
	<unicode hex="02C0"/>
	<advance width="600"/>
	<outline>
		<contour>
			<point x="270" y="410" type="line"/>
			<point x="298" y="410" type="line"/>
			<point x="298" y="494" type="line"/>
			<point x="366" y="524"/>
			<point x="414" y="562"/>
			<point x="414" y="624" type="curve" smooth="yes"/>
			<point x="414" y="697"/>
			<point x="358" y="734"/>
			<point x="288" y="734" type="curve" smooth="yes"/>
			<point x="230" y="734"/>
			<point x="191" y="705"/>
			<point x="168" y="676" type="curve"/>
			<point x="186" y="660" type="line"/>
			<point x="212" y="688"/>
			<point x="240" y="708"/>
			<point x="288" y="708" type="curve" smooth="yes"/>
			<point x="346" y="708"/>
			<point x="384" y="677"/>
			<point x="384" y="626" type="curve" smooth="yes"/>
			<point x="384" y="574"/>
			<point x="352" y="542"/>
			<point x="270" y="510" type="curve"/>
		</contour>
	</outline>
</glyph>
<glyph name="verticallinemod" format="2">
	<unicode hex="02C8"/>
	<advance width="600"/>
	<outline>
		<contour>
			<point x="282" y="408" type="line"/>
			<point x="318" y="408" type="line"/>
			<point x="336" y="701" type="line"/>
			<point x="264" y="701" type="line"/>
		</contour>
	</outline>
</glyph>
<glyph name="colontriangularmod" format="1">
	<unicode hex="02D0"/>
	<advance width="600"/>
	<outline>
		<contour>
			<point x="224" y="0" type="line"/>
			<point x="376" y="0" type="line"/>
			<point x="304" y="128" type="line"/>
			<point x="296" y="128" type="line"/>
		</contour>
		<contour>
			<point x="296" y="358" type="line"/>
			<point x="304" y="358" type="line"/>
			<point x="376" y="485" type="line"/>
			<point x="224" y="485" type="line"/>
		</contour>
	</outline>
</glyph>
<glyph name="x.sups" format="2">
	<unicode hex="02E3"/>
	<advance width="600"/>
	<outline>
		<contour>
			<point x="180" y="406" type="line"/>
			<point x="222" y="406" type="line"/>
			<point x="274" y="487" type="line" smooth="yes"/>
			<point x="287" y="507"/>
			<point x="298" y="526"/>
			<point x="311" y="545" type="curve"/>
			<point x="313" y="545" type="line"/>
			<point x="327" y="526"/>
			<point x="340" y="507"/>
			<point x="352" y="487" type="curve"/>
			<point x="406" y="406" type="line"/>
			<point x="450" y="406" type="line"/>
			<point x="340" y="568" type="line"/>
			<point x="442" y="723" type="line"/>
			<point x="399" y="723" type="line"/>
			<point x="352" y="649" type="line" smooth="yes"/>
			<point x="341" y="631"/>
			<point x="330" y="613"/>
			<point x="320" y="596" type="curve"/>
			<point x="316" y="596" type="line"/>
			<point x="305" y="613"/>
			<point x="293" y="631"/>
			<point x="283" y="649" type="curve"/>
			<point x="233" y="723" type="line"/>
			<point x="189" y="723" type="line"/>
			<point x="290" y="572" type="line"/>
		</contour>
	</outline>
</glyph>
<glyph name="glottalstopreversedsupmod" format="2">
	<unicode hex="02E4"/>
	<advance width="600"/>
	<outline>
		<contour>
			<point x="295" y="406" type="line"/>
			<point x="334" y="406" type="line"/>
			<point x="334" y="612" type="line"/>
			<point x="254" y="653"/>
			<point x="208" y="699"/>
			<point x="208" y="760" type="curve" smooth="yes"/>
			<point x="208" y="816"/>
			<point x="252" y="852"/>
			<point x="316" y="852" type="curve" smooth="yes"/>
			<point x="364" y="852"/>
			<point x="395" y="828"/>
			<point x="421" y="803" type="curve"/>
			<point x="445" y="828" type="line"/>
			<point x="418" y="857"/>
			<point x="375" y="886"/>
			<point x="315" y="886" type="curve" smooth="yes"/>
			<point x="236" y="886"/>
			<point x="167" y="840"/>
			<point x="167" y="760" type="curve" smooth="yes"/>
			<point x="167" y="681"/>
			<point x="226" y="632"/>
			<point x="295" y="591" type="curve"/>
		</contour>
	</outline>
</glyph>
<glyph name="gravecmb" format="1">
	<unicode hex="0300"/>
	<advance width="600"/>
	<outline>
		<contour>
			<point x="331" y="572" type="line"/>
			<point x="355" y="595" type="line"/>
			<point x="221" y="754" type="line"/>
			<point x="187" y="723" type="line"/>
		</contour>
		<contour>
			<point name="_aboveLC" x="300" y="502" type="move"/>
		</contour>
		<contour>
			<point name="aboveLC" x="300" y="532" type="move"/>
		</contour>
	</outline>
</glyph>
<glyph name="acutecmb" format="1">
	<unicode hex="0301"/>
	<advance width="600"/>
	<outline>
		<contour>
			<point x="269" y="572" type="line"/>
			<point x="413" y="723" type="line"/>
			<point x="379" y="754" type="line"/>
			<point x="245" y="595" type="line"/>
		</contour>
		<contour>
			<point name="_aboveLC" x="300" y="502" type="move"/>
		</contour>
		<contour>
			<point name="aboveLC" x="300" y="532" type="move"/>
		</contour>
	</outline>
</glyph>
<glyph name="circumflexcmb" format="2">
	<unicode hex="0302"/>
	<advance width="600"/>
	<outline>
		<contour>
			<point x="184" y="572" type="line"/>
			<point x="298" y="698" type="line"/>
			<point x="302" y="698" type="line"/>
			<point x="416" y="572" type="line"/>
			<point x="438" y="593" type="line"/>
			<point x="321" y="737" type="line"/>
			<point x="279" y="737" type="line"/>
			<point x="162" y="593" type="line"/>
		</contour>
	</outline>
	<anchor name="_aboveLC" x="300" y="502"/>
	<anchor name="aboveLC" x="300" y="729"/>
</glyph>
<glyph name="dotaccentcmb" format="2">
	<unicode hex="0307"/>
	<advance width="600"/>
	<outline>
		<contour>
			<point x="300" y="597" type="curve" smooth="yes"/>
			<point x="326" y="597"/>
			<point x="347" y="615"/>
			<point x="347" y="645" type="curve" smooth="yes"/>
			<point x="347" y="674"/>
			<point x="326" y="693"/>
			<point x="300" y="693" type="curve" smooth="yes"/>
			<point x="274" y="693"/>
			<point x="253" y="674"/>
			<point x="253" y="645" type="curve" smooth="yes"/>
			<point x="253" y="615"/>
			<point x="274" y="597"/>
		</contour>
	</outline>
	<anchor name="_aboveLC" x="300" y="502"/>
	<anchor name="aboveLC" x="300" y="684"/>
</glyph>
<glyph name="dieresiscmb" format="1">
	<unicode hex="0308"/>
	<advance width="600"/>
	<outline>
		<contour>
			<point x="211" y="598" type="curve" smooth="yes"/>
			<point x="234" y="598"/>
			<point x="251" y="617"/>
			<point x="251" y="640" type="curve" smooth="yes"/>
			<point x="251" y="663"/>
			<point x="234" y="681"/>
			<point x="211" y="681" type="curve" smooth="yes"/>
			<point x="188" y="681"/>
			<point x="171" y="663"/>
			<point x="171" y="640" type="curve" smooth="yes"/>
			<point x="171" y="617"/>
			<point x="188" y="598"/>
		</contour>
		<contour>
			<point x="389" y="598" type="curve" smooth="yes"/>
			<point x="412" y="598"/>
			<point x="429" y="617"/>
			<point x="429" y="640" type="curve" smooth="yes"/>
			<point x="429" y="663"/>
			<point x="412" y="681"/>
			<point x="389" y="681" type="curve" smooth="yes"/>
			<point x="366" y="681"/>
			<point x="349" y="663"/>
			<point x="349" y="640" type="curve" smooth="yes"/>
			<point x="349" y="617"/>
			<point x="366" y="598"/>
		</contour>
		<contour>
			<point name="_aboveLC" x="300" y="502" type="move"/>
		</contour>
		<contour>
			<point name="aboveLC" x="300" y="659" type="move"/>
		</contour>
	</outline>
</glyph>
<glyph name="hungarumlautcmb" format="2">
	<unicode hex="030B"/>
	<advance width="600"/>
	<outline>
		<contour>
			<point x="241" y="569" type="line"/>
			<point x="335" y="731" type="line"/>
			<point x="300" y="750" type="line"/>
			<point x="214" y="582" type="line"/>
		</contour>
		<contour>
			<point x="375" y="569" type="line"/>
			<point x="469" y="731" type="line"/>
			<point x="434" y="750" type="line"/>
			<point x="348" y="582" type="line"/>
		</contour>
	</outline>
	<anchor name="_aboveLC" x="300" y="502"/>
</glyph>
<glyph name="breveinvertedcmb" format="1">
	<unicode hex="0311"/>
	<advance width="600"/>
	<outline>
		<contour>
			<point x="184" y="569" type="line"/>
			<point x="192" y="626"/>
			<point x="228" y="688"/>
			<point x="300" y="688" type="curve" smooth="yes"/>
			<point x="372" y="688"/>
			<point x="408" y="626"/>
			<point x="416" y="569" type="curve"/>
			<point x="449" y="575" type="line"/>
			<point x="441" y="640"/>
			<point x="403" y="722"/>
			<point x="300" y="722" type="curve" smooth="yes"/>
			<point x="197" y="722"/>
			<point x="159" y="640"/>
			<point x="151" y="575" type="curve"/>
		</contour>
		<contour>
			<point name="_aboveLC" x="300" y="502" type="move"/>
		</contour>
	</outline>
</glyph>
<glyph name="commaturnedabovecmb" format="2">
	<unicode hex="0312"/>
	<advance width="600"/>
	<outline>
		<contour>
			<point x="299" y="548" type="curve" smooth="yes"/>
			<point x="318" y="548"/>
			<point x="334" y="560"/>
			<point x="334" y="586" type="curve" smooth="yes"/>
			<point x="334" y="610"/>
			<point x="314" y="620"/>
			<point x="298" y="620" type="curve" smooth="yes"/>
			<point x="286" y="620"/>
			<point x="277" y="615"/>
			<point x="267" y="601" type="curve"/>
			<point x="305" y="567" type="line"/>
			<point x="289" y="616" type="line"/>
			<point x="289" y="648"/>
			<point x="304" y="675"/>
			<point x="343" y="696" type="curve"/>
			<point x="328" y="721" type="line"/>
			<point x="276" y="696"/>
			<point x="256" y="653"/>
			<point x="256" y="610" type="curve" smooth="yes"/>
			<point x="256" y="570"/>
			<point x="272" y="548"/>
		</contour>
	</outline>
	<anchor name="_aboveLC" x="300" y="502"/>
</glyph>
<glyph name="leftangleabovecmb" format="1">
	<unicode hex="031A"/>
	<advance width="600"/>
	<outline>
		<contour>
			<point x="343" y="572" type="line"/>
			<point x="377" y="572" type="line"/>
			<point x="377" y="708" type="line"/>
			<point x="231" y="708" type="line"/>
			<point x="231" y="675" type="line"/>
			<point x="343" y="675" type="line"/>
		</contour>
		<contour>
			<point name="_aboverightLC" x="300" y="502" type="move"/>
		</contour>
	</outline>
</glyph>
<glyph name="ringhalfleftbelowcmb" format="1">
	<unicode hex="031C"/>
	<advance width="600"/>
	<outline>
		<contour>
			<point x="359" y="-256" type="curve"/>
			<point x="359" y="-232" type="line"/>
			<point x="306" y="-232"/>
			<point x="275" y="-206"/>
			<point x="275" y="-165" type="curve" smooth="yes"/>
			<point x="275" y="-124"/>
			<point x="306" y="-98"/>
			<point x="359" y="-98" type="curve"/>
			<point x="359" y="-73" type="line"/>
			<point x="283" y="-71"/>
			<point x="237" y="-105"/>
			<point x="237" y="-165" type="curve" smooth="yes"/>
			<point x="237" y="-224"/>
			<point x="283" y="-258"/>
		</contour>
		<contour>
			<point name="_belowLC" x="300" y="-20" type="move"/>
		</contour>
	</outline>
</glyph>
<glyph name="uptackbelowcmb" format="1">
	<unicode hex="031D"/>
	<advance width="600"/>
	<outline>
		<contour>
			<point x="191" y="-200" type="line"/>
			<point x="409" y="-200" type="line"/>
			<point x="409" y="-167" type="line"/>
			<point x="317" y="-167" type="line"/>
			<point x="317" y="-61" type="line"/>
			<point x="283" y="-61" type="line"/>
			<point x="283" y="-167" type="line"/>
			<point x="191" y="-167" type="line"/>
		</contour>
		<contour>
			<point name="_belowLC" x="300" y="-20" type="move"/>
		</contour>
	</outline>
</glyph>
<glyph name="plusbelowcmb" format="1">
	<unicode hex="031F"/>
	<advance width="600"/>
	<outline>
		<contour>
			<point x="283" y="-244" type="line"/>
			<point x="317" y="-244" type="line"/>
			<point x="317" y="-169" type="line"/>
			<point x="409" y="-169" type="line"/>
			<point x="409" y="-136" type="line"/>
			<point x="317" y="-136" type="line"/>
			<point x="317" y="-61" type="line"/>
			<point x="283" y="-61" type="line"/>
			<point x="283" y="-136" type="line"/>
			<point x="191" y="-136" type="line"/>
			<point x="191" y="-169" type="line"/>
			<point x="283" y="-169" type="line"/>
		</contour>
		<contour>
			<point name="_belowLC" x="300" y="-20" type="move"/>
		</contour>
	</outline>
</glyph>
<glyph name="ogonekcmb" format="2">
	<unicode hex="0328"/>
	<advance width="600"/>
	<outline>
		<contour>
			<point x="313" y="-224" type="curve" smooth="yes"/>
			<point x="352" y="-224"/>
			<point x="375" y="-209"/>
			<point x="396" y="-188" type="curve"/>
			<point x="376" y="-165" type="line"/>
			<point x="363" y="-178"/>
			<point x="345" y="-189"/>
			<point x="319" y="-189" type="curve" smooth="yes"/>
			<point x="288" y="-189"/>
			<point x="257" y="-170"/>
			<point x="257" y="-129" type="curve" smooth="yes"/>
			<point x="257" y="-79"/>
			<point x="295" y="-35"/>
			<point x="351" y="4" type="curve"/>
			<point x="307" y="4" type="line"/>
			<point x="264" y="-30"/>
			<point x="219" y="-75"/>
			<point x="219" y="-135" type="curve" smooth="yes"/>
			<point x="219" y="-196"/>
			<point x="259" y="-224"/>
		</contour>
	</outline>
	<anchor name="_ogonekLC" x="300" y="0"/>
</glyph>
<glyph name="bridgebelowcmb" format="1">
	<unicode hex="032A"/>
	<advance width="600"/>
	<outline>
		<contour>
			<point x="182" y="-229" type="line"/>
			<point x="214" y="-229" type="line"/>
			<point x="214" y="-118" type="line"/>
			<point x="386" y="-118" type="line"/>
			<point x="386" y="-229" type="line"/>
			<point x="418" y="-229" type="line"/>
			<point x="418" y="-85" type="line"/>
			<point x="182" y="-85" type="line"/>
		</contour>
		<contour>
			<point name="_belowLC" x="300" y="-20" type="move"/>
		</contour>
	</outline>
</glyph>
<glyph name="bridgeinvertedbelowcmb" format="2">
	<unicode hex="033A"/>
	<advance width="600"/>
	<outline>
		<contour>
			<point x="182" y="-232" type="line"/>
			<point x="418" y="-232" type="line"/>
			<point x="418" y="-88" type="line"/>
			<point x="386" y="-88" type="line"/>
			<point x="386" y="-198" type="line"/>
			<point x="214" y="-198" type="line"/>
			<point x="214" y="-88" type="line"/>
			<point x="182" y="-88" type="line"/>
		</contour>
	</outline>
	<anchor name="_belowLC" x="300" y="-20"/>
</glyph>
<glyph name="xabovecmb" format="1">
	<unicode hex="033D"/>
	<advance width="600"/>
	<outline>
		<contour>
			<point x="239" y="564" type="line"/>
			<point x="300" y="624" type="line"/>
			<point x="361" y="564" type="line"/>
			<point x="382" y="585" type="line"/>
			<point x="322" y="643" type="line"/>
			<point x="382" y="701" type="line"/>
			<point x="361" y="722" type="line"/>
			<point x="300" y="663" type="line"/>
			<point x="239" y="722" type="line"/>
			<point x="218" y="701" type="line"/>
			<point x="278" y="643" type="line"/>
			<point x="218" y="585" type="line"/>
		</contour>
		<contour>
			<point name="_aboveLC" x="300" y="502" type="move"/>
		</contour>
	</outline>
</glyph>
<glyph name="tonoscmb" format="2">
	<unicode hex="0341"/>
	<advance width="600"/>
	<outline>
		<contour>
			<point x="309" y="560" type="line"/>
			<point x="382" y="769" type="line"/>
			<point x="331" y="781" type="line"/>
			<point x="276" y="567" type="line"/>
		</contour>
	</outline>
	<anchor name="_aboveLC" x="300" y="502"/>
</glyph>
<glyph name="iotasubscriptcmb" format="1">
	<unicode hex="0345"/>
	<advance width="600"/>
	<outline>
		<contour>
			<point x="338" y="-191" type="curve" smooth="yes"/>
			<point x="357" y="-191"/>
			<point x="363" y="-189"/>
			<point x="376" y="-185" type="curve"/>
			<point x="369" y="-152" type="line"/>
			<point x="353" y="-156"/>
			<point x="350" y="-156"/>
			<point x="344" y="-156" type="curve" smooth="yes"/>
			<point x="331" y="-156"/>
			<point x="318" y="-147"/>
			<point x="318" y="-126" type="curve" smooth="yes"/>
			<point x="318" y="-109"/>
			<point x="319" y="-84"/>
			<point x="320" y="-66" type="curve"/>
			<point x="281" y="-66" type="line"/>
			<point x="281" y="-120" type="line" smooth="yes"/>
			<point x="281" y="-170"/>
			<point x="302" y="-191"/>
		</contour>
		<contour>
			<point name="_belowLC" x="300" y="-20" type="move"/>
		</contour>
	</outline>
</glyph>
<glyph name="macrondoublebelowcmb" format="1">
	<unicode hex="035F"/>
	<advance width="600"/>
	<outline>
		<contour>
			<point x="-183" y="-160" type="line"/>
			<point x="783" y="-160" type="line"/>
			<point x="783" y="-124" type="line"/>
			<point x="-183" y="-124" type="line"/>
		</contour>
	</outline>
</glyph>
<glyph name="breveinverteddoublecmb" format="1">
	<unicode hex="0361"/>
	<advance width="600"/>
	<outline>
		<contour>
			<point x="-137" y="609" type="line"/>
			<point x="-11" y="688"/>
			<point x="144" y="728"/>
			<point x="300" y="728" type="curve" smooth="yes"/>
			<point x="456" y="728"/>
			<point x="611" y="688"/>
			<point x="737" y="609" type="curve"/>
			<point x="753" y="635" type="line"/>
			<point x="620" y="717"/>
			<point x="474" y="764"/>
			<point x="300" y="764" type="curve" smooth="yes"/>
			<point x="126" y="764"/>
			<point x="-20" y="717"/>
			<point x="-153" y="635" type="curve"/>
		</contour>
	</outline>
</glyph>
<glyph name="Epsilontonos" format="1">
	<unicode hex="0388"/>
	<advance width="600"/>
	<outline>
		<contour>
			<point x="194" y="0" type="line"/>
			<point x="527" y="0" type="line"/>
			<point x="527" y="40" type="line"/>
			<point x="238" y="40" type="line"/>
			<point x="238" y="330" type="line"/>
			<point x="463" y="330" type="line"/>
			<point x="463" y="370" type="line"/>
			<point x="238" y="370" type="line"/>
			<point x="238" y="619" type="line"/>
			<point x="517" y="619" type="line"/>
			<point x="517" y="659" type="line"/>
			<point x="194" y="659" type="line"/>
		</contour>
		<component base="tonos.cap" xOffset="-219"/>
	</outline>
</glyph>
<glyph name="Iotatonos" format="1">
	<unicode hex="038A"/>
	<advance width="600"/>
	<outline>
		<contour>
			<point x="175" y="0" type="line"/>
			<point x="493" y="0" type="line"/>
			<point x="493" y="40" type="line"/>
			<point x="357" y="40" type="line"/>
			<point x="357" y="619" type="line"/>
			<point x="493" y="619" type="line"/>
			<point x="493" y="659" type="line"/>
			<point x="175" y="659" type="line"/>
			<point x="175" y="619" type="line"/>
			<point x="311" y="619" type="line"/>
			<point x="311" y="40" type="line"/>
			<point x="175" y="40" type="line"/>
		</contour>
		<component base="tonos.cap" xOffset="-219"/>
	</outline>
</glyph>
<glyph name="Omicrontonos" format="2">
	<unicode hex="038C"/>
	<advance width="600"/>
	<outline>
		<contour>
			<point x="345" y="-12" type="curve" smooth="yes"/>
			<point x="462" y="-12"/>
			<point x="546" y="113"/>
			<point x="546" y="332" type="curve" smooth="yes"/>
			<point x="546" y="550"/>
			<point x="462" y="671"/>
			<point x="345" y="671" type="curve" smooth="yes"/>
			<point x="228" y="671"/>
			<point x="144" y="550"/>
			<point x="144" y="332" type="curve" smooth="yes"/>
			<point x="144" y="114"/>
			<point x="228" y="-12"/>
		</contour>
		<contour>
			<point x="345" y="30" type="curve" smooth="yes"/>
			<point x="253" y="30"/>
			<point x="191" y="137"/>
			<point x="191" y="332" type="curve" smooth="yes"/>
			<point x="191" y="526"/>
			<point x="253" y="629"/>
			<point x="345" y="629" type="curve" smooth="yes"/>
			<point x="436" y="629"/>
			<point x="499" y="526"/>
			<point x="499" y="332" type="curve" smooth="yes"/>
			<point x="499" y="137"/>
			<point x="436" y="30"/>
		</contour>
		<component base="tonos.cap" xOffset="-219"/>
	</outline>
</glyph>
<glyph name="Omegatonos" format="2">
	<unicode hex="038F"/>
	<advance width="600"/>
	<outline>
		<contour>
			<point x="133" y="0" type="line"/>
			<point x="293" y="0" type="line"/>
			<point x="293" y="34" type="line"/>
			<point x="229" y="109"/>
			<point x="191" y="213"/>
			<point x="191" y="356" type="curve" smooth="yes"/>
			<point x="191" y="513"/>
			<point x="247" y="629"/>
			<point x="343" y="629" type="curve" smooth="yes"/>
			<point x="440" y="629"/>
			<point x="496" y="513"/>
			<point x="496" y="356" type="curve" smooth="yes"/>
			<point x="496" y="213"/>
			<point x="458" y="109"/>
			<point x="394" y="34" type="curve"/>
			<point x="394" y="0" type="line"/>
			<point x="554" y="0" type="line"/>
			<point x="554" y="39" type="line"/>
			<point x="446" y="39" type="line"/>
			<point x="446" y="43" type="line"/>
			<point x="509" y="130"/>
			<point x="542" y="225"/>
			<point x="542" y="358" type="curve" smooth="yes"/>
			<point x="542" y="537"/>
			<point x="466" y="671"/>
			<point x="343" y="671" type="curve" smooth="yes"/>
			<point x="221" y="671"/>
			<point x="144" y="537"/>
			<point x="144" y="358" type="curve" smooth="yes"/>
			<point x="144" y="225"/>
			<point x="178" y="130"/>
			<point x="241" y="43" type="curve"/>
			<point x="241" y="39" type="line"/>
			<point x="133" y="39" type="line"/>
		</contour>
		<component base="tonos.cap" xOffset="-219"/>
	</outline>
</glyph>
<glyph name="Delta" format="1">
	<unicode hex="0394"/>
	<advance width="600"/>
	<outline>
		<contour>
			<point x="50" y="0" type="line"/>
			<point x="550" y="0" type="line"/>
			<point x="550" y="27" type="line"/>
			<point x="324" y="659" type="line"/>
			<point x="276" y="659" type="line"/>
			<point x="50" y="27" type="line"/>
		</contour>
		<contour>
			<point x="101" y="40" type="line"/>
			<point x="222" y="384" type="line" smooth="yes"/>
			<point x="248" y="459"/>
			<point x="271" y="532"/>
			<point x="299" y="612" type="curve"/>
			<point x="303" y="612" type="line"/>
			<point x="328" y="532"/>
			<point x="352" y="459"/>
			<point x="377" y="384" type="curve" smooth="yes"/>
			<point x="499" y="40" type="line"/>
		</contour>
	</outline>
</glyph>
<glyph name="Phi" format="2">
	<unicode hex="03A6"/>
	<advance width="600"/>
	<outline>
		<contour>
			<point x="288" y="67" type="curve"/>
			<point x="312" y="67" type="line" smooth="yes"/>
			<point x="466" y="67"/>
			<point x="567" y="170"/>
			<point x="567" y="332" type="curve" smooth="yes"/>
			<point x="567" y="493"/>
			<point x="466" y="592"/>
			<point x="312" y="592" type="curve" smooth="yes"/>
			<point x="288" y="592" type="line" smooth="yes"/>
			<point x="134" y="592"/>
			<point x="33" y="493"/>
			<point x="33" y="332" type="curve" smooth="yes"/>
			<point x="33" y="170"/>
			<point x="134" y="67"/>
		</contour>
		<contour>
			<point x="287" y="105" type="line" smooth="yes"/>
			<point x="159" y="105"/>
			<point x="80" y="197"/>
			<point x="80" y="332" type="curve" smooth="yes"/>
			<point x="80" y="466"/>
			<point x="159" y="554"/>
			<point x="287" y="554" type="curve" smooth="yes"/>
			<point x="313" y="554" type="line" smooth="yes"/>
			<point x="440" y="554"/>
			<point x="520" y="466"/>
			<point x="520" y="332" type="curve" smooth="yes"/>
			<point x="520" y="197"/>
			<point x="440" y="105"/>
			<point x="313" y="105" type="curve" smooth="yes"/>
		</contour>
		<contour>
			<point x="279" y="-22" type="line"/>
			<point x="321" y="-22" type="line"/>
			<point x="321" y="681" type="line"/>
			<point x="279" y="681" type="line"/>
		</contour>
	</outline>
</glyph>
<glyph name="beta" format="2">
	<unicode hex="03B2"/>
	<advance width="600"/>
	<outline>
		<contour>
			<point x="105" y="-180" type="line"/>
			<point x="150" y="-180" type="line"/>
			<point x="149" y="-95"/>
			<point x="149" y="-17"/>
			<point x="147" y="66" type="curve"/>
			<point x="198" y="8"/>
			<point x="269" y="-12"/>
			<point x="337" y="-12" type="curve" smooth="yes"/>
			<point x="444" y="-12"/>
			<point x="535" y="66"/>
			<point x="535" y="189" type="curve" smooth="yes"/>
			<point x="535" y="296"/>
			<point x="467" y="369"/>
			<point x="353" y="383" type="curve"/>
			<point x="353" y="387" type="line"/>
			<point x="431" y="430"/>
			<point x="473" y="489"/>
			<point x="473" y="564" type="curve" smooth="yes"/>
			<point x="473" y="675"/>
			<point x="389" y="731"/>
			<point x="297" y="731" type="curve" smooth="yes"/>
			<point x="168" y="731"/>
			<point x="105" y="636"/>
			<point x="105" y="507" type="curve" smooth="yes"/>
		</contour>
		<contour>
			<point x="332" y="27" type="curve" smooth="yes"/>
			<point x="271" y="27"/>
			<point x="202" y="44"/>
			<point x="148" y="112" type="curve"/>
			<point x="148" y="240"/>
			<point x="149" y="365"/>
			<point x="149" y="493" type="curve" smooth="yes"/>
			<point x="149" y="627"/>
			<point x="209" y="693"/>
			<point x="299" y="693" type="curve" smooth="yes"/>
			<point x="369" y="693"/>
			<point x="427" y="649"/>
			<point x="427" y="562" type="curve" smooth="yes"/>
			<point x="427" y="492"/>
			<point x="377" y="411"/>
			<point x="251" y="383" type="curve"/>
			<point x="260" y="345" type="line"/>
			<point x="279" y="349"/>
			<point x="298" y="351"/>
			<point x="316" y="351" type="curve" smooth="yes"/>
			<point x="432" y="351"/>
			<point x="490" y="283"/>
			<point x="490" y="191" type="curve" smooth="yes"/>
			<point x="490" y="91"/>
			<point x="419" y="27"/>
		</contour>
	</outline>
</glyph>
<glyph name="gamma" format="1">
	<unicode hex="03B3"/>
	<advance width="600"/>
	<outline>
		<contour>
			<point x="276" y="-180" type="curve"/>
			<point x="321" y="-180" type="line"/>
			<point x="321" y="-124"/>
			<point x="319" y="-55"/>
			<point x="312" y="0" type="curve"/>
			<point x="439" y="197"/>
			<point x="491" y="317"/>
			<point x="525" y="480" type="curve"/>
			<point x="479" y="480" type="line"/>
			<point x="457" y="336"/>
			<point x="389" y="194"/>
			<point x="307" y="56" type="curve"/>
			<point x="303" y="56" type="line"/>
			<point x="269" y="216"/>
			<point x="190" y="394"/>
			<point x="107" y="492" type="curve"/>
			<point x="64" y="478" type="line"/>
			<point x="171" y="356"/>
			<point x="279" y="105"/>
			<point x="279" y="-68" type="curve" smooth="yes"/>
			<point x="279" y="-113"/>
			<point x="278" y="-134"/>
		</contour>
	</outline>
</glyph>
<glyph name="delta" format="1">
	<unicode hex="03B4"/>
	<advance width="600"/>
	<outline>
		<contour>
			<point x="302" y="-12" type="curve" smooth="yes"/>
			<point x="445" y="-12"/>
			<point x="528" y="80"/>
			<point x="528" y="217" type="curve" smooth="yes"/>
			<point x="528" y="339"/>
			<point x="439" y="407"/>
			<point x="344" y="464" type="curve" smooth="yes"/>
			<point x="239" y="528"/>
			<point x="173" y="567"/>
			<point x="173" y="629" type="curve" smooth="yes"/>
			<point x="173" y="662"/>
			<point x="204" y="694"/>
			<point x="277" y="694" type="curve" smooth="yes"/>
			<point x="331" y="694"/>
			<point x="398" y="685"/>
			<point x="509" y="646" type="curve"/>
			<point x="522" y="686" type="line"/>
			<point x="416" y="721"/>
			<point x="344" y="731"/>
			<point x="279" y="731" type="curve" smooth="yes"/>
			<point x="173" y="731"/>
			<point x="127" y="682"/>
			<point x="127" y="629" type="curve" smooth="yes"/>
			<point x="127" y="550"/>
			<point x="209" y="500"/>
			<point x="316" y="434" type="curve" smooth="yes"/>
			<point x="403" y="380"/>
			<point x="482" y="319"/>
			<point x="482" y="215" type="curve" smooth="yes"/>
			<point x="482" y="109"/>
			<point x="426" y="27"/>
			<point x="303" y="27" type="curve" smooth="yes"/>
			<point x="207" y="27"/>
			<point x="117" y="99"/>
			<point x="117" y="207" type="curve" smooth="yes"/>
			<point x="117" y="316"/>
			<point x="199" y="397"/>
			<point x="340" y="427" type="curve"/>
			<point x="315" y="456" type="line"/>
			<point x="180" y="425"/>
			<point x="72" y="339"/>
			<point x="72" y="205" type="curve" smooth="yes"/>
			<point x="72" y="69"/>
			<point x="189" y="-12"/>
		</contour>
	</outline>
</glyph>
<glyph name="zeta" format="1">
	<unicode hex="03B6"/>
	<advance width="600"/>
	<outline>
		<contour>
			<point x="463" y="-183" type="line"/>
			<point x="502" y="-133"/>
			<point x="518" y="-93"/>
			<point x="518" y="-66" type="curve" smooth="yes"/>
			<point x="518" y="-6"/>
			<point x="464" y="10"/>
			<point x="362" y="29" type="curve" smooth="yes"/>
			<point x="261" y="47"/>
			<point x="180" y="86"/>
			<point x="180" y="220" type="curve" smooth="yes"/>
			<point x="180" y="388"/>
			<point x="364" y="580"/>
			<point x="517" y="681" type="curve"/>
			<point x="521" y="681" type="line"/>
			<point x="521" y="719" type="line"/>
			<point x="164" y="719" type="line"/>
			<point x="164" y="681" type="line"/>
			<point x="241" y="683"/>
			<point x="388" y="683"/>
			<point x="463" y="684" type="curve"/>
			<point x="325" y="592"/>
			<point x="133" y="398"/>
			<point x="133" y="219" type="curve" smooth="yes"/>
			<point x="133" y="62"/>
			<point x="224" y="13"/>
			<point x="336" y="-8" type="curve" smooth="yes"/>
			<point x="448" y="-30"/>
			<point x="476" y="-41"/>
			<point x="476" y="-73" type="curve" smooth="yes"/>
			<point x="476" y="-100"/>
			<point x="465" y="-115"/>
			<point x="427" y="-162" type="curve"/>
		</contour>
	</outline>
</glyph>
<glyph name="iota" format="1">
	<unicode hex="03B9"/>
	<advance width="600"/>
	<outline>
		<contour>
			<point x="404" y="-12" type="curve" smooth="yes"/>
			<point x="449" y="-12"/>
			<point x="481" y="-2"/>
			<point x="515" y="14" type="curve"/>
			<point x="501" y="48" type="line"/>
			<point x="468" y="33"/>
			<point x="438" y="27"/>
			<point x="411" y="27" type="curve" smooth="yes"/>
			<point x="346" y="27"/>
			<point x="312" y="63"/>
			<point x="312" y="139" type="curve" smooth="yes"/>
			<point x="312" y="249"/>
			<point x="315" y="367"/>
			<point x="315" y="480" type="curve"/>
			<point x="92" y="480" type="line"/>
			<point x="92" y="442" type="line"/>
			<point x="271" y="442" type="line"/>
			<point x="271" y="145" type="line" smooth="yes"/>
			<point x="271" y="36"/>
			<point x="317" y="-12"/>
		</contour>
		<contour>
			<point name="aboveLC" x="285" y="502" type="move"/>
		</contour>
	</outline>
</glyph>
<glyph name="mu" format="1">
	<unicode hex="03BC"/>
	<advance width="600"/>
	<outline>
		<contour>
			<point x="96" y="-182" type="line"/>
			<point x="140" y="-182" type="line"/>
			<point x="136" y="-97"/>
			<point x="135" y="-56"/>
			<point x="135" y="58" type="curve"/>
			<point x="166" y="2"/>
			<point x="211" y="-11"/>
			<point x="267" y="-11" type="curve" smooth="yes"/>
			<point x="332" y="-11"/>
			<point x="395" y="22"/>
			<point x="441" y="99" type="curve"/>
			<point x="443" y="99" type="line"/>
			<point x="440" y="11"/>
			<point x="457" y="-12"/>
			<point x="500" y="-12" type="curve" smooth="yes"/>
			<point x="513" y="-12"/>
			<point x="522" y="-10"/>
			<point x="531" y="-7" type="curve"/>
			<point x="524" y="29" type="line"/>
			<point x="514" y="27"/>
			<point x="510" y="27"/>
			<point x="506" y="27" type="curve" smooth="yes"/>
			<point x="493" y="27"/>
			<point x="482" y="37"/>
			<point x="482" y="58" type="curve" smooth="yes"/>
			<point x="482" y="195"/>
			<point x="484" y="340"/>
			<point x="485" y="480" type="curve"/>
			<point x="441" y="480" type="line"/>
			<point x="441" y="149" type="line"/>
			<point x="378" y="42"/>
			<point x="320" y="28"/>
			<point x="264" y="28" type="curve" smooth="yes"/>
			<point x="176" y="28"/>
			<point x="140" y="87"/>
			<point x="140" y="187" type="curve" smooth="yes"/>
			<point x="140" y="480" type="line"/>
			<point x="96" y="480" type="line"/>
		</contour>
	</outline>
</glyph>
<glyph name="xi" format="1">
	<unicode hex="03BE"/>
	<advance width="600"/>
	<outline>
		<contour>
			<point x="467" y="-183" type="line"/>
			<point x="506" y="-132"/>
			<point x="522" y="-93"/>
			<point x="522" y="-66" type="curve" smooth="yes"/>
			<point x="522" y="-6"/>
			<point x="470" y="10"/>
			<point x="366" y="29" type="curve" smooth="yes"/>
			<point x="266" y="47"/>
			<point x="174" y="77"/>
			<point x="174" y="189" type="curve" smooth="yes"/>
			<point x="174" y="303"/>
			<point x="279" y="366"/>
			<point x="377" y="366" type="curve" smooth="yes"/>
			<point x="406" y="366"/>
			<point x="424" y="366"/>
			<point x="451" y="361" type="curve"/>
			<point x="451" y="406" type="line"/>
			<point x="422" y="401"/>
			<point x="409" y="401"/>
			<point x="380" y="401" type="curve" smooth="yes"/>
			<point x="313" y="401"/>
			<point x="223" y="457"/>
			<point x="223" y="542" type="curve" smooth="yes"/>
			<point x="223" y="631"/>
			<point x="298" y="681"/>
			<point x="375" y="681" type="curve" smooth="yes"/>
			<point x="521" y="681" type="line"/>
			<point x="521" y="719" type="line"/>
			<point x="111" y="719" type="line"/>
			<point x="111" y="681" type="line"/>
			<point x="178" y="683"/>
			<point x="208" y="684"/>
			<point x="274" y="684" type="curve"/>
			<point x="214" y="656"/>
			<point x="177" y="610"/>
			<point x="177" y="542" type="curve" smooth="yes"/>
			<point x="177" y="466"/>
			<point x="230" y="419"/>
			<point x="295" y="391" type="curve"/>
			<point x="295" y="387" type="line"/>
			<point x="206" y="363"/>
			<point x="128" y="288"/>
			<point x="128" y="186" type="curve" smooth="yes"/>
			<point x="128" y="56"/>
			<point x="226" y="14"/>
			<point x="339" y="-8" type="curve" smooth="yes"/>
			<point x="452" y="-29"/>
			<point x="480" y="-41"/>
			<point x="480" y="-73" type="curve" smooth="yes"/>
			<point x="480" y="-100"/>
			<point x="469" y="-115"/>
			<point x="430" y="-162" type="curve"/>
		</contour>
	</outline>
</glyph>
<glyph name="omicron" format="1">
	<unicode hex="03BF"/>
	<advance width="600"/>
	<outline>
		<contour>
			<point x="300" y="-12" type="curve" smooth="yes"/>
			<point x="426" y="-12"/>
			<point x="529" y="80"/>
			<point x="529" y="239" type="curve" smooth="yes"/>
			<point x="529" y="400"/>
			<point x="426" y="492"/>
			<point x="300" y="492" type="curve" smooth="yes"/>
			<point x="174" y="492"/>
			<point x="71" y="400"/>
			<point x="71" y="239" type="curve" smooth="yes"/>
			<point x="71" y="80"/>
			<point x="174" y="-12"/>
		</contour>
		<contour>
			<point x="300" y="27" type="curve" smooth="yes"/>
			<point x="192" y="27"/>
			<point x="118" y="113"/>
			<point x="118" y="239" type="curve" smooth="yes"/>
			<point x="118" y="366"/>
			<point x="192" y="453"/>
			<point x="300" y="453" type="curve" smooth="yes"/>
			<point x="408" y="453"/>
			<point x="482" y="366"/>
			<point x="482" y="239" type="curve" smooth="yes"/>
			<point x="482" y="113"/>
			<point x="408" y="27"/>
		</contour>
		<contour>
			<point name="aboveLC" x="300" y="502" type="move"/>
		</contour>
	</outline>
</glyph>
<glyph name="pi" format="1">
	<unicode hex="03C0"/>
	<advance width="600"/>
	<outline>
		<contour>
			<point x="498" y="-12" type="curve" smooth="yes"/>
			<point x="517" y="-12"/>
			<point x="528" y="-8"/>
			<point x="540" y="-3" type="curve"/>
			<point x="533" y="33" type="line"/>
			<point x="518" y="29"/>
			<point x="510" y="27"/>
			<point x="504" y="27" type="curve" smooth="yes"/>
			<point x="472" y="27"/>
			<point x="458" y="42"/>
			<point x="458" y="76" type="curve" smooth="yes"/>
			<point x="458" y="137"/>
			<point x="460" y="316"/>
			<point x="466" y="440" type="curve"/>
			<point x="564" y="440" type="line"/>
			<point x="564" y="480" type="line"/>
			<point x="103" y="480" type="line"/>
			<point x="36" y="476" type="line"/>
			<point x="36" y="440" type="line"/>
			<point x="140" y="440" type="line"/>
			<point x="140" y="296"/>
			<point x="137" y="148"/>
			<point x="123" y="0" type="curve"/>
			<point x="167" y="-3" type="line"/>
			<point x="177" y="145"/>
			<point x="181" y="294"/>
			<point x="181" y="440" type="curve"/>
			<point x="422" y="440" type="line"/>
			<point x="421" y="320"/>
			<point x="417" y="144"/>
			<point x="417" y="82" type="curve" smooth="yes"/>
			<point x="417" y="17"/>
			<point x="441" y="-12"/>
		</contour>
	</outline>
</glyph>
<glyph name="rho" format="1">
	<unicode hex="03C1"/>
	<advance width="600"/>
	<outline>
		<contour>
			<point x="105" y="-180" type="line"/>
			<point x="150" y="-180" type="line"/>
			<point x="149" y="-86"/>
			<point x="149" y="-29"/>
			<point x="147" y="65" type="curve"/>
			<point x="199" y="4"/>
			<point x="257" y="-12"/>
			<point x="321" y="-12" type="curve" smooth="yes"/>
			<point x="429" y="-12"/>
			<point x="533" y="84"/>
			<point x="533" y="247" type="curve" smooth="yes"/>
			<point x="533" y="397"/>
			<point x="461" y="492"/>
			<point x="321" y="492" type="curve" smooth="yes"/>
			<point x="206" y="492"/>
			<point x="105" y="412"/>
			<point x="105" y="255" type="curve" smooth="yes"/>
		</contour>
		<contour>
			<point x="318" y="27" type="curve" smooth="yes"/>
			<point x="264" y="27"/>
			<point x="205" y="38"/>
			<point x="149" y="108" type="curve"/>
			<point x="149" y="245" type="line" smooth="yes"/>
			<point x="149" y="389"/>
			<point x="231" y="453"/>
			<point x="319" y="453" type="curve" smooth="yes"/>
			<point x="438" y="453"/>
			<point x="486" y="365"/>
			<point x="486" y="247" type="curve" smooth="yes"/>
			<point x="486" y="117"/>
			<point x="412" y="27"/>
		</contour>
		<contour>
			<point name="aboveLC" x="339" y="502" type="move"/>
		</contour>
	</outline>
</glyph>
<glyph name="sigma.end" format="2">
	<unicode hex="03C2"/>
	<advance width="600"/>
	<outline>
		<contour>
			<point x="425" y="-177" type="line"/>
			<point x="464" y="-127"/>
			<point x="485" y="-80"/>
			<point x="485" y="-48" type="curve" smooth="yes"/>
			<point x="485" y="11"/>
			<point x="456" y="34"/>
			<point x="346" y="56" type="curve" smooth="yes"/>
			<point x="240" y="76"/>
			<point x="147" y="120"/>
			<point x="147" y="253" type="curve" smooth="yes"/>
			<point x="147" y="373"/>
			<point x="230" y="453"/>
			<point x="342" y="453" type="curve" smooth="yes"/>
			<point x="406" y="453"/>
			<point x="447" y="431"/>
			<point x="489" y="392" type="curve"/>
			<point x="515" y="423" type="line"/>
			<point x="474" y="461"/>
			<point x="425" y="492"/>
			<point x="340" y="492" type="curve" smooth="yes"/>
			<point x="213" y="492"/>
			<point x="100" y="407"/>
			<point x="100" y="253" type="curve" smooth="yes"/>
			<point x="100" y="97"/>
			<point x="206" y="41"/>
			<point x="323" y="18" type="curve" smooth="yes"/>
			<point x="430" y="-2"/>
			<point x="443" y="-22"/>
			<point x="443" y="-54" type="curve" smooth="yes"/>
			<point x="443" y="-85"/>
			<point x="427" y="-110"/>
			<point x="388" y="-157" type="curve"/>
		</contour>
	</outline>
</glyph>
<glyph name="sigma" format="2">
	<unicode hex="03C3"/>
	<advance width="600"/>
	<outline>
		<contour>
			<point x="293" y="-12" type="curve" smooth="yes"/>
			<point x="414" y="-12"/>
			<point x="514" y="76"/>
			<point x="514" y="232" type="curve" smooth="yes"/>
			<point x="514" y="333"/>
			<point x="472" y="403"/>
			<point x="402" y="442" type="curve"/>
			<point x="402" y="446" type="line"/>
			<point x="460" y="446"/>
			<point x="511" y="443"/>
			<point x="569" y="439" type="curve"/>
			<point x="569" y="480" type="line"/>
			<point x="295" y="480" type="line" smooth="yes"/>
			<point x="176" y="480"/>
			<point x="67" y="405"/>
			<point x="67" y="235" type="curve" smooth="yes"/>
			<point x="67" y="76"/>
			<point x="172" y="-12"/>
		</contour>
		<contour>
			<point x="293" y="27" type="curve" smooth="yes"/>
			<point x="192" y="27"/>
			<point x="114" y="109"/>
			<point x="114" y="235" type="curve" smooth="yes"/>
			<point x="114" y="371"/>
			<point x="194" y="441"/>
			<point x="295" y="441" type="curve" smooth="yes"/>
			<point x="406" y="441"/>
			<point x="469" y="342"/>
			<point x="469" y="234" type="curve" smooth="yes"/>
			<point x="469" y="108"/>
			<point x="394" y="27"/>
		</contour>
	</outline>
</glyph>
<glyph name="phi" format="1">
	<unicode hex="03C6"/>
	<advance width="600"/>
	<outline>
		<contour>
			<point x="286" y="-10" type="curve"/>
			<point x="286" y="27" type="line"/>
			<point x="178" y="27"/>
			<point x="100" y="110"/>
			<point x="100" y="241" type="curve" smooth="yes"/>
			<point x="100" y="372"/>
			<point x="178" y="453"/>
			<point x="286" y="453" type="curve"/>
			<point x="286" y="490" type="line"/>
			<point x="159" y="490"/>
			<point x="54" y="402"/>
			<point x="54" y="241" type="curve" smooth="yes"/>
			<point x="54" y="80"/>
			<point x="159" y="-10"/>
		</contour>
		<contour>
			<point x="314" y="-10" type="line"/>
			<point x="441" y="-10"/>
			<point x="546" y="80"/>
			<point x="546" y="241" type="curve" smooth="yes"/>
			<point x="546" y="402"/>
			<point x="441" y="490"/>
			<point x="314" y="490" type="curve"/>
			<point x="314" y="453" type="line"/>
			<point x="422" y="453"/>
			<point x="500" y="372"/>
			<point x="500" y="241" type="curve" smooth="yes"/>
			<point x="500" y="110"/>
			<point x="422" y="27"/>
			<point x="314" y="27" type="curve"/>
		</contour>
		<contour>
			<point x="278" y="-180" type="line"/>
			<point x="322" y="-180" type="line"/>
			<point x="322" y="619" type="line"/>
			<point x="278" y="619" type="line"/>
		</contour>
	</outline>
</glyph>
<glyph name="koppa" format="1">
	<unicode hex="03D9"/>
	<advance width="600"/>
	<outline>
		<contour>
			<point x="300" y="-12" type="curve" smooth="yes"/>
			<point x="429" y="-12"/>
			<point x="529" y="79"/>
			<point x="529" y="239" type="curve" smooth="yes"/>
			<point x="529" y="402"/>
			<point x="429" y="492"/>
			<point x="300" y="492" type="curve" smooth="yes"/>
			<point x="171" y="492"/>
			<point x="71" y="402"/>
			<point x="71" y="239" type="curve" smooth="yes"/>
			<point x="71" y="79"/>
			<point x="171" y="-12"/>
		</contour>
		<contour>
			<point x="300" y="26" type="curve" smooth="yes"/>
			<point x="188" y="26"/>
			<point x="117" y="110"/>
			<point x="117" y="239" type="curve" smooth="yes"/>
			<point x="117" y="367"/>
			<point x="188" y="453"/>
			<point x="300" y="453" type="curve" smooth="yes"/>
			<point x="412" y="453"/>
			<point x="483" y="367"/>
			<point x="483" y="239" type="curve" smooth="yes"/>
			<point x="483" y="110"/>
			<point x="412" y="26"/>
		</contour>
		<contour>
			<point x="281" y="-180" type="line"/>
			<point x="326" y="-180" type="line"/>
			<point x="325" y="-95"/>
			<point x="325" y="-71"/>
			<point x="323" y="12" type="curve"/>
			<point x="281" y="12" type="line"/>
		</contour>
	</outline>
</glyph>
<glyph name="digamma" format="1">
	<unicode hex="03DD"/>
	<advance width="600"/>
	<outline>
		<contour>
			<point x="163" y="-180" type="line"/>
			<point x="208" y="-180" type="line"/>
			<point x="207" y="-60"/>
			<point x="207" y="42"/>
			<point x="207" y="154" type="curve"/>
			<point x="483" y="154" type="line"/>
			<point x="483" y="190" type="line"/>
			<point x="207" y="190" type="line"/>
			<point x="205" y="442" type="line"/>
			<point x="521" y="442" type="line"/>
			<point x="521" y="480" type="line"/>
			<point x="163" y="480" type="line"/>
		</contour>
	</outline>
</glyph>
<glyph name="Dje" format="1">
	<unicode hex="0402"/>
	<advance width="600"/>
	<outline>
		<contour>
			<point x="409" y="-12" type="curve" smooth="yes"/>
			<point x="488" y="-12"/>
			<point x="579" y="36"/>
			<point x="579" y="192" type="curve" smooth="yes"/>
			<point x="579" y="336"/>
			<point x="489" y="397"/>
			<point x="351" y="397" type="curve" smooth="yes"/>
			<point x="309" y="397"/>
			<point x="261" y="392"/>
			<point x="229" y="386" type="curve"/>
			<point x="229" y="619" type="line"/>
			<point x="466" y="619" type="line"/>
			<point x="466" y="659" type="line"/>
			<point x="-4" y="659" type="line"/>
			<point x="-4" y="619" type="line"/>
			<point x="183" y="619" type="line"/>
			<point x="183" y="0" type="line"/>
			<point x="229" y="0" type="line"/>
			<point x="229" y="345" type="line"/>
			<point x="259" y="351"/>
			<point x="306" y="357"/>
			<point x="347" y="357" type="curve" smooth="yes"/>
			<point x="463" y="357"/>
			<point x="532" y="307"/>
			<point x="532" y="192" type="curve" smooth="yes"/>
			<point x="532" y="67"/>
			<point x="461" y="29"/>
			<point x="404" y="29" type="curve" smooth="yes"/>
			<point x="389" y="29"/>
			<point x="367" y="34"/>
			<point x="358" y="38" type="curve"/>
			<point x="348" y="-2" type="line"/>
			<point x="361" y="-6"/>
			<point x="388" y="-12"/>
		</contour>
	</outline>
</glyph>
<glyph name="Nje" format="1">
	<unicode hex="040A"/>
	<advance width="600"/>
	<outline>
		<contour>
			<point x="44" y="0" type="line"/>
			<point x="88" y="0" type="line"/>
			<point x="88" y="330" type="line"/>
			<point x="283" y="330" type="line"/>
			<point x="283" y="370" type="line"/>
			<point x="88" y="370" type="line"/>
			<point x="88" y="659" type="line"/>
			<point x="44" y="659" type="line"/>
		</contour>
		<contour>
			<point x="279" y="0" type="line"/>
			<point x="372" y="0" type="line" smooth="yes"/>
			<point x="498" y="0"/>
			<point x="568" y="65"/>
			<point x="568" y="195" type="curve" smooth="yes"/>
			<point x="568" y="319"/>
			<point x="490" y="372"/>
			<point x="369" y="372" type="curve" smooth="yes"/>
			<point x="323" y="372" type="line"/>
			<point x="323" y="659" type="line"/>
			<point x="279" y="659" type="line"/>
		</contour>
		<contour>
			<point x="323" y="39" type="line"/>
			<point x="323" y="333" type="line"/>
			<point x="358" y="333" type="line" smooth="yes"/>
			<point x="469" y="333"/>
			<point x="524" y="292"/>
			<point x="524" y="193" type="curve" smooth="yes"/>
			<point x="524" y="85"/>
			<point x="471" y="39"/>
			<point x="362" y="39" type="curve" smooth="yes"/>
		</contour>
	</outline>
</glyph>
<glyph name="Tshe" format="2">
	<unicode hex="040B"/>
	<advance width="600"/>
	<outline>
		<contour>
			<point x="182" y="0" type="line"/>
			<point x="228" y="0" type="line"/>
			<point x="228" y="345" type="line"/>
			<point x="258" y="351"/>
			<point x="305" y="357"/>
			<point x="346" y="357" type="curve" smooth="yes"/>
			<point x="461" y="357"/>
			<point x="522" y="316"/>
			<point x="522" y="204" type="curve" smooth="yes"/>
			<point x="522" y="0" type="line"/>
			<point x="567" y="0" type="line"/>
			<point x="567" y="204" type="line" smooth="yes"/>
			<point x="567" y="341"/>
			<point x="488" y="397"/>
			<point x="351" y="397" type="curve" smooth="yes"/>
			<point x="308" y="397"/>
			<point x="261" y="392"/>
			<point x="228" y="386" type="curve"/>
			<point x="228" y="659" type="line"/>
			<point x="182" y="659" type="line"/>
		</contour>
		<contour>
			<point x="-5" y="619" type="line"/>
			<point x="465" y="619" type="line"/>
			<point x="465" y="659" type="line"/>
			<point x="-5" y="659" type="line"/>
		</contour>
	</outline>
</glyph>
<glyph name="Be" format="1">
	<unicode hex="0411"/>
	<advance width="600"/>
	<outline>
		<contour>
			<point x="114" y="0" type="line"/>
			<point x="308" y="0" type="line" smooth="yes"/>
			<point x="456" y="0"/>
			<point x="538" y="65"/>
			<point x="538" y="194" type="curve" smooth="yes"/>
			<point x="538" y="318"/>
			<point x="445" y="370"/>
			<point x="304" y="370" type="curve" smooth="yes"/>
			<point x="160" y="370" type="line"/>
			<point x="160" y="620" type="line"/>
			<point x="494" y="620" type="line"/>
			<point x="494" y="659" type="line"/>
			<point x="114" y="659" type="line"/>
		</contour>
		<contour>
			<point x="160" y="39" type="line"/>
			<point x="160" y="330" type="line"/>
			<point x="292" y="330" type="line" smooth="yes"/>
			<point x="424" y="330"/>
			<point x="492" y="290"/>
			<point x="492" y="191" type="curve" smooth="yes"/>
			<point x="492" y="85"/>
			<point x="426" y="39"/>
			<point x="295" y="39" type="curve" smooth="yes"/>
		</contour>
	</outline>
</glyph>
<glyph name="De" format="1">
	<unicode hex="0414"/>
	<advance width="600"/>
	<outline>
		<contour>
			<point x="35" y="-188" type="line"/>
			<point x="73" y="-188" type="line"/>
			<point x="73" y="0" type="line"/>
			<point x="527" y="0" type="line"/>
			<point x="527" y="-188" type="line"/>
			<point x="565" y="-188" type="line"/>
			<point x="572" y="14" type="line"/>
			<point x="572" y="40" type="line"/>
			<point x="28" y="40" type="line"/>
			<point x="28" y="14" type="line"/>
		</contour>
		<contour>
			<point x="457" y="0" type="line"/>
			<point x="503" y="0" type="line"/>
			<point x="503" y="659" type="line"/>
			<point x="208" y="659" type="line"/>
			<point x="185" y="509"/>
			<point x="171" y="421"/>
			<point x="146" y="281" type="curve" smooth="yes"/>
			<point x="113" y="99"/>
			<point x="84" y="51"/>
			<point x="58" y="40" type="curve"/>
			<point x="83" y="16" type="line"/>
			<point x="120" y="31"/>
			<point x="153" y="76"/>
			<point x="188" y="272" type="curve" smooth="yes"/>
			<point x="212" y="401"/>
			<point x="222" y="488"/>
			<point x="245" y="619" type="curve"/>
			<point x="457" y="619" type="line"/>
		</contour>
	</outline>
</glyph>
<glyph name="Zhe" format="1">
	<unicode hex="0416"/>
	<advance width="600"/>
	<outline>
		<contour>
			<point x="3" y="0" type="line"/>
			<point x="56" y="0" type="line"/>
			<point x="192" y="330" type="line"/>
			<point x="279" y="330" type="line"/>
			<point x="279" y="0" type="line"/>
			<point x="321" y="0" type="line"/>
			<point x="321" y="330" type="line"/>
			<point x="408" y="330" type="line"/>
			<point x="544" y="0" type="line"/>
			<point x="597" y="0" type="line"/>
			<point x="436" y="370" type="line"/>
			<point x="321" y="370" type="line"/>
			<point x="321" y="659" type="line"/>
			<point x="279" y="659" type="line"/>
			<point x="279" y="370" type="line"/>
			<point x="164" y="370" type="line"/>
		</contour>
		<contour>
			<point x="159" y="347" type="line"/>
			<point x="201" y="355" type="line"/>
			<point x="142" y="547" type="line" smooth="yes"/>
			<point x="107" y="657"/>
			<point x="71" y="671"/>
			<point x="27" y="671" type="curve" smooth="yes"/>
			<point x="18" y="671"/>
			<point x="7" y="669"/>
			<point x="0" y="667" type="curve"/>
			<point x="8" y="620" type="line"/>
			<point x="14" y="622"/>
			<point x="22" y="624"/>
			<point x="28" y="624" type="curve" smooth="yes"/>
			<point x="51" y="624"/>
			<point x="76" y="618"/>
			<point x="104" y="529" type="curve" smooth="yes"/>
		</contour>
		<contour>
			<point x="441" y="347" type="line"/>
			<point x="496" y="529" type="line" smooth="yes"/>
			<point x="524" y="618"/>
			<point x="549" y="624"/>
			<point x="572" y="624" type="curve" smooth="yes"/>
			<point x="578" y="624"/>
			<point x="586" y="622"/>
			<point x="592" y="620" type="curve"/>
			<point x="600" y="667" type="line"/>
			<point x="593" y="669"/>
			<point x="581" y="671"/>
			<point x="572" y="671" type="curve" smooth="yes"/>
			<point x="528" y="671"/>
			<point x="492" y="657"/>
			<point x="458" y="547" type="curve" smooth="yes"/>
			<point x="399" y="355" type="line"/>
		</contour>
		<contour>
			<point name="aboveUC" x="300" y="679" type="move"/>
		</contour>
	</outline>
</glyph>
<glyph name="Tse" format="1">
	<unicode hex="0426"/>
	<advance width="600"/>
	<outline>
		<contour>
			<point x="88" y="0" type="line"/>
			<point x="511" y="0" type="line"/>
			<point x="511" y="659" type="line"/>
			<point x="465" y="659" type="line"/>
			<point x="465" y="40" type="line"/>
			<point x="134" y="40" type="line"/>
			<point x="134" y="659" type="line"/>
			<point x="88" y="659" type="line"/>
		</contour>
		<contour>
			<point x="535" y="-188" type="line"/>
			<point x="573" y="-188" type="line"/>
			<point x="580" y="14" type="line"/>
			<point x="580" y="40" type="line"/>
			<point x="491" y="40" type="line"/>
			<point x="491" y="0" type="line"/>
			<point x="535" y="0" type="line"/>
		</contour>
	</outline>
</glyph>
<glyph name="Che" format="1">
	<unicode hex="0427"/>
	<advance width="600"/>
	<outline>
		<contour>
			<point x="455" y="0" type="line"/>
			<point x="501" y="0" type="line"/>
			<point x="501" y="659" type="line"/>
			<point x="455" y="659" type="line"/>
			<point x="455" y="352" type="line"/>
			<point x="423" y="346"/>
			<point x="377" y="341"/>
			<point x="319" y="341" type="curve" smooth="yes"/>
			<point x="196" y="341"/>
			<point x="123" y="379"/>
			<point x="123" y="503" type="curve" smooth="yes"/>
			<point x="123" y="659" type="line"/>
			<point x="78" y="659" type="line"/>
			<point x="78" y="503" type="line" smooth="yes"/>
			<point x="78" y="353"/>
			<point x="168" y="300"/>
			<point x="315" y="300" type="curve" smooth="yes"/>
			<point x="375" y="300"/>
			<point x="420" y="306"/>
			<point x="455" y="311" type="curve"/>
		</contour>
	</outline>
</glyph>
<glyph name="Shcha" format="1">
	<unicode hex="0429"/>
	<advance width="600"/>
	<outline>
		<contour>
			<point x="42" y="0" type="line"/>
			<point x="516" y="0" type="line"/>
			<point x="516" y="659" type="line"/>
			<point x="473" y="659" type="line"/>
			<point x="473" y="40" type="line"/>
			<point x="301" y="40" type="line"/>
			<point x="301" y="659" type="line"/>
			<point x="258" y="659" type="line"/>
			<point x="258" y="40" type="line"/>
			<point x="86" y="40" type="line"/>
			<point x="86" y="659" type="line"/>
			<point x="42" y="659" type="line"/>
		</contour>
		<contour>
			<point x="540" y="-188" type="line"/>
			<point x="576" y="-188" type="line"/>
			<point x="583" y="14" type="line"/>
			<point x="583" y="40" type="line"/>
			<point x="497" y="40" type="line"/>
			<point x="497" y="0" type="line"/>
			<point x="540" y="0" type="line"/>
		</contour>
	</outline>
</glyph>
<glyph name="Ecyr" format="1">
	<unicode hex="042D"/>
	<advance width="600"/>
	<outline>
		<contour>
			<point x="263" y="-12" type="curve" smooth="yes"/>
			<point x="422" y="-12"/>
			<point x="527" y="113"/>
			<point x="527" y="331" type="curve" smooth="yes"/>
			<point x="527" y="549"/>
			<point x="426" y="671"/>
			<point x="262" y="671" type="curve" smooth="yes"/>
			<point x="183" y="671"/>
			<point x="112" y="633"/>
			<point x="74" y="592" type="curve"/>
			<point x="101" y="561" type="line"/>
			<point x="139" y="602"/>
			<point x="198" y="629"/>
			<point x="261" y="629" type="curve" smooth="yes"/>
			<point x="403" y="629"/>
			<point x="482" y="520"/>
			<point x="482" y="337" type="curve" smooth="yes"/>
			<point x="482" y="139"/>
			<point x="397" y="30"/>
			<point x="261" y="30" type="curve" smooth="yes"/>
			<point x="187" y="30"/>
			<point x="133" y="58"/>
			<point x="83" y="111" type="curve"/>
			<point x="56" y="82" type="line"/>
			<point x="108" y="24"/>
			<point x="172" y="-12"/>
		</contour>
		<contour>
			<point x="178" y="330" type="line"/>
			<point x="512" y="330" type="line"/>
			<point x="512" y="370" type="line"/>
			<point x="178" y="370" type="line"/>
		</contour>
		<contour>
			<point name="aboveUC" x="288" y="679" type="move"/>
		</contour>
	</outline>
</glyph>
<glyph name="Yu" format="2">
	<unicode hex="042E"/>
	<advance width="600"/>
	<outline>
		<contour>
			<point x="51" y="0" type="line"/>
			<point x="97" y="0" type="line"/>
			<point x="97" y="330" type="line"/>
			<point x="225" y="330" type="line"/>
			<point x="225" y="370" type="line"/>
			<point x="97" y="370" type="line"/>
			<point x="97" y="659" type="line"/>
			<point x="51" y="659" type="line"/>
		</contour>
		<contour>
			<point x="376" y="-12" type="curve" smooth="yes"/>
			<point x="482" y="-12"/>
			<point x="555" y="98"/>
			<point x="555" y="332" type="curve" smooth="yes"/>
			<point x="555" y="565"/>
			<point x="482" y="671"/>
			<point x="376" y="671" type="curve" smooth="yes"/>
			<point x="271" y="671"/>
			<point x="202" y="564"/>
			<point x="202" y="336" type="curve" smooth="yes"/>
			<point x="202" y="97"/>
			<point x="271" y="-12"/>
		</contour>
		<contour>
			<point x="376" y="30" type="curve" smooth="yes"/>
			<point x="298" y="30"/>
			<point x="247" y="122"/>
			<point x="247" y="332" type="curve" smooth="yes"/>
			<point x="247" y="541"/>
			<point x="298" y="629"/>
			<point x="376" y="629" type="curve" smooth="yes"/>
			<point x="456" y="629"/>
			<point x="506" y="541"/>
			<point x="506" y="332" type="curve" smooth="yes"/>
			<point x="506" y="122"/>
			<point x="456" y="30"/>
		</contour>
	</outline>
</glyph>
<glyph name="ve" format="1">
	<unicode hex="0432"/>
	<advance width="600"/>
	<outline>
		<contour>
			<point x="116" y="0" type="line"/>
			<point x="341" y="0" type="line" smooth="yes"/>
			<point x="459" y="0"/>
			<point x="534" y="44"/>
			<point x="534" y="137" type="curve" smooth="yes"/>
			<point x="534" y="208"/>
			<point x="481" y="241"/>
			<point x="427" y="254" type="curve"/>
			<point x="427" y="257" type="line"/>
			<point x="475" y="272"/>
			<point x="512" y="301"/>
			<point x="512" y="362" type="curve" smooth="yes"/>
			<point x="512" y="444"/>
			<point x="445" y="480"/>
			<point x="336" y="480" type="curve" smooth="yes"/>
			<point x="116" y="480" type="line"/>
		</contour>
		<contour>
			<point x="160" y="271" type="line"/>
			<point x="160" y="442" type="line"/>
			<point x="327" y="442" type="line" smooth="yes"/>
			<point x="425" y="442"/>
			<point x="467" y="412"/>
			<point x="467" y="358" type="curve" smooth="yes"/>
			<point x="467" y="304"/>
			<point x="426" y="271"/>
			<point x="318" y="271" type="curve" smooth="yes"/>
		</contour>
		<contour>
			<point x="160" y="38" type="line"/>
			<point x="160" y="233" type="line"/>
			<point x="324" y="233" type="line" smooth="yes"/>
			<point x="430" y="233"/>
			<point x="488" y="200"/>
			<point x="488" y="139" type="curve" smooth="yes"/>
			<point x="488" y="72"/>
			<point x="436" y="38"/>
			<point x="331" y="38" type="curve" smooth="yes"/>
		</contour>
		<contour>
			<point name="aboveLC" x="320" y="502" type="move"/>
		</contour>
	</outline>
</glyph>
<glyph name="de" format="2">
	<unicode hex="0434"/>
	<advance width="600"/>
	<outline>
		<contour>
			<point x="432" y="0" type="line"/>
			<point x="476" y="0" type="line"/>
			<point x="476" y="480" type="line"/>
			<point x="177" y="480" type="line"/>
			<point x="150" y="254" type="line" smooth="yes"/>
			<point x="130" y="88"/>
			<point x="105" y="54"/>
			<point x="76" y="39" type="curve"/>
			<point x="99" y="12" type="line"/>
			<point x="129" y="27"/>
			<point x="168" y="61"/>
			<point x="190" y="248" type="curve" smooth="yes"/>
			<point x="213" y="442" type="line"/>
			<point x="432" y="442" type="line"/>
		</contour>
		<contour>
			<point x="62" y="-172" type="line"/>
			<point x="100" y="-172" type="line"/>
			<point x="100" y="0" type="line"/>
			<point x="498" y="0" type="line"/>
			<point x="498" y="-172" type="line"/>
			<point x="536" y="-172" type="line"/>
			<point x="542" y="13" type="line"/>
			<point x="542" y="39" type="line"/>
			<point x="57" y="39" type="line"/>
			<point x="57" y="13" type="line"/>
		</contour>
	</outline>
	<anchor name="aboveLC" x="338" y="502"/>
</glyph>
<glyph name="zhe" format="2">
	<unicode hex="0436"/>
	<advance width="600"/>
	<outline>
		<contour>
			<point x="9" y="0" type="line"/>
			<point x="57" y="0" type="line"/>
			<point x="185" y="233" type="line"/>
			<point x="279" y="233" type="line"/>
			<point x="279" y="0" type="line"/>
			<point x="321" y="0" type="line"/>
			<point x="321" y="233" type="line"/>
			<point x="415" y="233" type="line"/>
			<point x="543" y="0" type="line"/>
			<point x="591" y="0" type="line"/>
			<point x="440" y="271" type="line"/>
			<point x="321" y="271" type="line"/>
			<point x="321" y="480" type="line"/>
			<point x="279" y="480" type="line"/>
			<point x="279" y="271" type="line"/>
			<point x="160" y="271" type="line"/>
		</contour>
		<contour>
			<point x="161" y="240" type="line"/>
			<point x="200" y="245" type="line"/>
			<point x="145" y="389" type="line" smooth="yes"/>
			<point x="113" y="470"/>
			<point x="78" y="492"/>
			<point x="36" y="492" type="curve" smooth="yes"/>
			<point x="28" y="492"/>
			<point x="18" y="490"/>
			<point x="13" y="488" type="curve"/>
			<point x="23" y="445" type="line"/>
			<point x="29" y="447"/>
			<point x="30" y="447"/>
			<point x="37" y="447" type="curve" smooth="yes"/>
			<point x="62" y="447"/>
			<point x="85" y="436"/>
			<point x="110" y="372" type="curve" smooth="yes"/>
		</contour>
		<contour>
			<point x="439" y="240" type="line"/>
			<point x="490" y="372" type="line" smooth="yes"/>
			<point x="515" y="436"/>
			<point x="538" y="447"/>
			<point x="563" y="447" type="curve" smooth="yes"/>
			<point x="570" y="447"/>
			<point x="571" y="447"/>
			<point x="577" y="445" type="curve"/>
			<point x="587" y="488" type="line"/>
			<point x="582" y="490"/>
			<point x="572" y="492"/>
			<point x="564" y="492" type="curve" smooth="yes"/>
			<point x="522" y="492"/>
			<point x="487" y="470"/>
			<point x="455" y="389" type="curve" smooth="yes"/>
			<point x="400" y="245" type="line"/>
		</contour>
	</outline>
</glyph>
<glyph name="em" format="1">
	<unicode hex="043C"/>
	<advance width="600"/>
	<outline>
		<contour>
			<point x="83" y="0" type="line"/>
			<point x="126" y="0" type="line"/>
			<point x="126" y="272" type="line" smooth="yes"/>
			<point x="126" y="309"/>
			<point x="123" y="365"/>
			<point x="120" y="412" type="curve"/>
			<point x="124" y="412" type="line"/>
			<point x="138" y="377"/>
			<point x="152" y="344"/>
			<point x="166" y="311" type="curve" smooth="yes"/>
			<point x="280" y="47" type="line"/>
			<point x="322" y="47" type="line"/>
			<point x="433" y="311" type="line" smooth="yes"/>
			<point x="447" y="344"/>
			<point x="462" y="377"/>
			<point x="476" y="412" type="curve"/>
			<point x="480" y="412" type="line"/>
			<point x="477" y="365"/>
			<point x="474" y="309"/>
			<point x="474" y="272" type="curve" smooth="yes"/>
			<point x="474" y="0" type="line"/>
			<point x="517" y="0" type="line"/>
			<point x="517" y="480" type="line"/>
			<point x="464" y="480" type="line"/>
			<point x="352" y="219" type="line"/>
			<point x="337" y="178"/>
			<point x="319" y="137"/>
			<point x="302" y="96" type="curve"/>
			<point x="298" y="96" type="line"/>
			<point x="283" y="137"/>
			<point x="266" y="178"/>
			<point x="250" y="219" type="curve"/>
			<point x="136" y="480" type="line"/>
			<point x="83" y="480" type="line"/>
		</contour>
		<contour>
			<point name="aboveLC" x="300" y="502" type="move"/>
		</contour>
	</outline>
</glyph>
<glyph name="es" format="1">
	<unicode hex="0441"/>
	<advance width="600"/>
	<outline>
		<component base="c"/>
		<contour>
			<point name="aboveLC" x="349" y="502" type="move"/>
		</contour>
	</outline>
</glyph>
<glyph name="sha" format="1">
	<unicode hex="0448"/>
	<advance width="600"/>
	<outline>
		<contour>
			<point x="74" y="0" type="line"/>
			<point x="526" y="0" type="line"/>
			<point x="526" y="480" type="line"/>
			<point x="482" y="480" type="line"/>
			<point x="482" y="39" type="line"/>
			<point x="321" y="39" type="line"/>
			<point x="321" y="480" type="line"/>
			<point x="279" y="480" type="line"/>
			<point x="279" y="39" type="line"/>
			<point x="118" y="39" type="line"/>
			<point x="118" y="480" type="line"/>
			<point x="74" y="480" type="line"/>
		</contour>
		<contour>
			<point name="aboveLC" x="300" y="502" type="move"/>
		</contour>
	</outline>
</glyph>
<glyph name="dje" format="1">
	<unicode hex="0452"/>
	<advance width="600"/>
	<outline>
		<contour>
			<point x="344" y="-229" type="curve" smooth="yes"/>
			<point x="460" y="-229"/>
			<point x="531" y="-145"/>
			<point x="531" y="166" type="curve" smooth="yes"/>
			<point x="531" y="377"/>
			<point x="460" y="472"/>
			<point x="334" y="472" type="curve" smooth="yes"/>
			<point x="261" y="472"/>
			<point x="206" y="428"/>
			<point x="149" y="365" type="curve"/>
			<point x="147" y="365" type="line"/>
			<point x="150" y="491" type="line"/>
			<point x="150" y="719" type="line"/>
			<point x="105" y="719" type="line"/>
			<point x="105" y="0" type="line"/>
			<point x="150" y="0" type="line"/>
			<point x="150" y="324" type="line"/>
			<point x="219" y="397"/>
			<point x="264" y="432"/>
			<point x="325" y="432" type="curve" smooth="yes"/>
			<point x="432" y="432"/>
			<point x="484" y="351"/>
			<point x="484" y="162" type="curve" smooth="yes"/>
			<point x="484" y="-118"/>
			<point x="424" y="-191"/>
			<point x="344" y="-191" type="curve" smooth="yes"/>
			<point x="329" y="-191"/>
			<point x="313" y="-185"/>
			<point x="303" y="-181" type="curve"/>
			<point x="293" y="-217" type="line"/>
			<point x="304" y="-223"/>
			<point x="326" y="-229"/>
		</contour>
		<contour>
			<point x="29" y="579" type="line"/>
			<point x="379" y="579" type="line"/>
			<point x="379" y="616" type="line"/>
			<point x="107" y="616" type="line"/>
			<point x="29" y="612" type="line"/>
		</contour>
	</outline>
</glyph>
<glyph name="izhitsa" format="1">
	<unicode hex="0475"/>
	<advance width="600"/>
	<outline>
		<contour>
			<point x="270" y="0" type="line"/>
			<point x="327" y="0" type="line"/>
			<point x="449" y="367" type="line" smooth="yes"/>
			<point x="468" y="422"/>
			<point x="482" y="447"/>
			<point x="509" y="447" type="curve" smooth="yes"/>
			<point x="520" y="447"/>
			<point x="526" y="444"/>
			<point x="532" y="441" type="curve"/>
			<point x="544" y="484" type="line"/>
			<point x="531" y="490"/>
			<point x="521" y="492"/>
			<point x="509" y="492" type="curve" smooth="yes"/>
			<point x="456" y="492"/>
			<point x="434" y="455"/>
			<point x="407" y="373" type="curve" smooth="yes"/>
			<point x="343" y="179" type="line" smooth="yes"/>
			<point x="329" y="133"/>
			<point x="314" y="85"/>
			<point x="300" y="41" type="curve"/>
			<point x="296" y="41" type="line"/>
			<point x="281" y="85"/>
			<point x="262" y="133"/>
			<point x="246" y="179" type="curve"/>
			<point x="137" y="480" type="line"/>
			<point x="89" y="480" type="line"/>
		</contour>
		<contour>
			<point name="aboveLC" x="310" y="502" type="move"/>
		</contour>
	</outline>
</glyph>
<glyph name="gheup" format="2">
	<unicode hex="0491"/>
	<advance width="600"/>
	<outline>
		<contour>
			<point x="186" y="0" type="line"/>
			<point x="230" y="0" type="line"/>
			<point x="230" y="442" type="line"/>
			<point x="477" y="442" type="line"/>
			<point x="469" y="480" type="line"/>
			<point x="186" y="480" type="line"/>
		</contour>
		<contour>
			<point x="409" y="442" type="line"/>
			<point x="480" y="442" type="line"/>
			<point x="488" y="652" type="line"/>
			<point x="453" y="652" type="line"/>
			<point x="440" y="480" type="line"/>
			<point x="409" y="480" type="line"/>
		</contour>
	</outline>
</glyph>
<glyph name="Ghestroke" format="1">
	<unicode hex="0492"/>
	<advance width="600"/>
	<outline>
		<contour>
			<point x="157" y="0" type="line"/>
			<point x="204" y="0" type="line"/>
			<point x="204" y="620" type="line"/>
			<point x="532" y="620" type="line"/>
			<point x="532" y="659" type="line"/>
			<point x="157" y="659" type="line"/>
		</contour>
		<contour>
			<point x="76" y="319" type="line"/>
			<point x="376" y="319" type="line"/>
			<point x="376" y="356" type="line"/>
			<point x="159" y="356" type="line"/>
			<point x="76" y="354" type="line"/>
		</contour>
	</outline>
</glyph>
<glyph name="kadescender" format="1">
	<unicode hex="049B"/>
	<advance width="600"/>
	<outline>
		<contour>
			<point x="519" y="-172" type="line"/>
			<point x="555" y="-172" type="line"/>
			<point x="561" y="13" type="line"/>
			<point x="561" y="39" type="line"/>
			<point x="507" y="39" type="line"/>
			<point x="507" y="0" type="line"/>
			<point x="519" y="0" type="line"/>
		</contour>
		<component base="ka"/>
	</outline>
</glyph>
<glyph name="kabashkir" format="1">
	<unicode hex="04A1"/>
	<advance width="600"/>
	<outline>
		<contour>
			<point x="220" y="0" type="line"/>
			<point x="262" y="0" type="line"/>
			<point x="262" y="231" type="line"/>
			<point x="382" y="231" type="line"/>
			<point x="528" y="0" type="line"/>
			<point x="575" y="0" type="line"/>
			<point x="403" y="270" type="line"/>
			<point x="262" y="270" type="line"/>
			<point x="262" y="480" type="line"/>
			<point x="220" y="480" type="line"/>
		</contour>
		<contour>
			<point x="35" y="442" type="line"/>
			<point x="220" y="442" type="line"/>
			<point x="262" y="480" type="line"/>
			<point x="35" y="480" type="line"/>
		</contour>
		<contour>
			<point x="410" y="239" type="line"/>
			<point x="464" y="371" type="line" smooth="yes"/>
			<point x="491" y="437"/>
			<point x="511" y="447"/>
			<point x="536" y="447" type="curve" smooth="yes"/>
			<point x="543" y="447"/>
			<point x="545" y="447"/>
			<point x="551" y="445" type="curve"/>
			<point x="561" y="488" type="line"/>
			<point x="556" y="490"/>
			<point x="546" y="492"/>
			<point x="538" y="492" type="curve" smooth="yes"/>
			<point x="497" y="492"/>
			<point x="465" y="474"/>
			<point x="430" y="388" type="curve" smooth="yes"/>
			<point x="371" y="245" type="line"/>
		</contour>
	</outline>
</glyph>
<glyph name="Endescender" format="1">
	<unicode hex="04A2"/>
	<advance width="600"/>
	<outline>
		<contour>
			<point x="89" y="0" type="line"/>
			<point x="135" y="0" type="line"/>
			<point x="135" y="330" type="line"/>
			<point x="465" y="330" type="line"/>
			<point x="465" y="0" type="line"/>
			<point x="511" y="0" type="line"/>
			<point x="511" y="659" type="line"/>
			<point x="465" y="659" type="line"/>
			<point x="465" y="370" type="line"/>
			<point x="135" y="370" type="line"/>
			<point x="135" y="659" type="line"/>
			<point x="89" y="659" type="line"/>
		</contour>
		<contour>
			<point x="536" y="-188" type="line"/>
			<point x="573" y="-188" type="line"/>
			<point x="580" y="14" type="line"/>
			<point x="580" y="40" type="line"/>
			<point x="493" y="40" type="line"/>
			<point x="493" y="0" type="line"/>
			<point x="536" y="0" type="line"/>
		</contour>
	</outline>
</glyph>
<glyph name="Esdescender" format="1">
	<unicode hex="04AA"/>
	<advance width="600"/>
	<outline>
		<contour>
			<point x="328" y="-188" type="line"/>
			<point x="366" y="-188" type="line"/>
			<point x="373" y="13" type="line"/>
			<point x="328" y="0" type="line"/>
		</contour>
		<component base="Es"/>
	</outline>
</glyph>
<glyph name="Ustraightstroke" format="1">
	<unicode hex="04B0"/>
	<advance width="600"/>
	<outline>
		<contour>
			<point x="121" y="236" type="line"/>
			<point x="479" y="236" type="line"/>
			<point x="479" y="273" type="line"/>
			<point x="206" y="273" type="line"/>
			<point x="121" y="271" type="line"/>
		</contour>
		<component base="Ustraight"/>
		<contour>
			<point name="aboveUC" x="300" y="679" type="move"/>
		</contour>
	</outline>
</glyph>
<glyph name="hadescender" format="1">
	<unicode hex="04B3"/>
	<advance width="600"/>
	<outline>
		<contour>
			<point x="507" y="-172" type="line"/>
			<point x="545" y="-172" type="line"/>
			<point x="550" y="13" type="line"/>
			<point x="550" y="39" type="line"/>
			<point x="484" y="39" type="line"/>
			<point x="484" y="0" type="line"/>
			<point x="507" y="0" type="line"/>
		</contour>
		<component base="ha"/>
	</outline>
</glyph>
<glyph name="m.sups" format="2">
	<unicode hex="1D50"/>
	<advance width="600"/>
	<outline>
		<contour>
			<point x="83" y="406" type="line"/>
			<point x="120" y="406" type="line"/>
			<point x="120" y="642" type="line"/>
			<point x="158" y="681"/>
			<point x="185" y="698"/>
			<point x="213" y="698" type="curve" smooth="yes"/>
			<point x="268" y="698"/>
			<point x="283" y="660"/>
			<point x="283" y="603" type="curve" smooth="yes"/>
			<point x="283" y="406" type="line"/>
			<point x="320" y="406" type="line"/>
			<point x="320" y="642" type="line"/>
			<point x="358" y="681"/>
			<point x="384" y="698"/>
			<point x="412" y="698" type="curve" smooth="yes"/>
			<point x="467" y="698"/>
			<point x="482" y="660"/>
			<point x="482" y="603" type="curve" smooth="yes"/>
			<point x="482" y="406" type="line"/>
			<point x="520" y="406" type="line"/>
			<point x="520" y="610" type="line" smooth="yes"/>
			<point x="520" y="681"/>
			<point x="493" y="731"/>
			<point x="422" y="731" type="curve" smooth="yes"/>
			<point x="380" y="731"/>
			<point x="343" y="702"/>
			<point x="311" y="668" type="curve"/>
			<point x="299" y="711"/>
			<point x="267" y="731"/>
			<point x="223" y="731" type="curve" smooth="yes"/>
			<point x="180" y="731"/>
			<point x="149" y="707"/>
			<point x="121" y="676" type="curve"/>
			<point x="117" y="676" type="line"/>
			<point x="113" y="723" type="line"/>
			<point x="83" y="723" type="line"/>
		</contour>
	</outline>
</glyph>
<glyph name="c.sups" format="2">
	<unicode hex="1D9C"/>
	<advance width="600"/>
	<outline>
		<contour>
			<point x="346" y="398" type="curve" smooth="yes"/>
			<point x="390" y="398"/>
			<point x="428" y="415"/>
			<point x="458" y="440" type="curve"/>
			<point x="439" y="467" type="line"/>
			<point x="416" y="448"/>
			<point x="385" y="432"/>
			<point x="348" y="432" type="curve" smooth="yes"/>
			<point x="276" y="432"/>
			<point x="228" y="486"/>
			<point x="228" y="564" type="curve" smooth="yes"/>
			<point x="228" y="643"/>
			<point x="280" y="698"/>
			<point x="350" y="698" type="curve" smooth="yes"/>
			<point x="381" y="698"/>
			<point x="406" y="684"/>
			<point x="428" y="665" type="curve"/>
			<point x="450" y="692" type="line"/>
			<point x="426" y="713"/>
			<point x="395" y="731"/>
			<point x="348" y="731" type="curve" smooth="yes"/>
			<point x="262" y="731"/>
			<point x="187" y="671"/>
			<point x="187" y="564" type="curve" smooth="yes"/>
			<point x="187" y="459"/>
			<point x="255" y="398"/>
		</contour>
	</outline>
</glyph>
<glyph name="iotaadscript" format="1">
	<unicode hex="1FBE"/>
	<advance width="600"/>
	<outline>
		<contour>
			<point x="338" y="-12" type="curve" smooth="yes"/>
			<point x="356" y="-12"/>
			<point x="370" y="-8"/>
			<point x="380" y="-3" type="curve"/>
			<point x="373" y="33" type="line"/>
			<point x="361" y="29"/>
			<point x="353" y="27"/>
			<point x="344" y="27" type="curve" smooth="yes"/>
			<point x="327" y="27"/>
			<point x="314" y="39"/>
			<point x="314" y="64" type="curve" smooth="yes"/>
			<point x="314" y="177"/>
			<point x="315" y="284"/>
			<point x="317" y="400" type="curve"/>
			<point x="273" y="400" type="line"/>
			<point x="273" y="70" type="line" smooth="yes"/>
			<point x="273" y="14"/>
			<point x="295" y="-12"/>
		</contour>
	</outline>
</glyph>
<glyph name="figuredash" format="1">
	<unicode hex="2012"/>
	<advance width="600"/>
	<outline>
		<contour>
			<point x="80" y="226" type="line"/>
			<point x="520" y="226" type="line"/>
			<point x="520" y="275" type="line"/>
			<point x="80" y="275" type="line"/>
		</contour>
	</outline>
</glyph>
<glyph name="underscoredbl" format="1">
	<unicode hex="2017"/>
	<advance width="600"/>
	<outline>
		<contour>
			<point x="60" y="-122" type="line"/>
			<point x="540" y="-122" type="line"/>
			<point x="540" y="-79" type="line"/>
			<point x="60" y="-79" type="line"/>
		</contour>
		<contour>
			<point x="60" y="-228" type="line"/>
			<point x="540" y="-228" type="line"/>
			<point x="540" y="-185" type="line"/>
			<point x="60" y="-185" type="line"/>
		</contour>
	</outline>
</glyph>
<glyph name="quoteright" format="1">
	<unicode hex="2019"/>
	<advance width="600"/>
	<outline>
		<contour>
			<point x="247" y="385" type="line"/>
			<point x="321" y="427"/>
			<point x="372" y="507"/>
			<point x="372" y="602" type="curve" smooth="yes"/>
			<point x="372" y="663"/>
			<point x="338" y="700"/>
			<point x="298" y="700" type="curve" smooth="yes"/>
			<point x="262" y="700"/>
			<point x="237" y="673"/>
			<point x="237" y="636" type="curve" smooth="yes"/>
			<point x="237" y="602"/>
			<point x="261" y="576"/>
			<point x="296" y="576" type="curve" smooth="yes"/>
			<point x="316" y="576"/>
			<point x="335" y="590"/>
			<point x="351" y="610" type="curve"/>
			<point x="299" y="669" type="line"/>
			<point x="326" y="601" type="line"/>
			<point x="326" y="520"/>
			<point x="288" y="456"/>
			<point x="227" y="415" type="curve"/>
		</contour>
	</outline>
</glyph>
<glyph name="quotereversed" format="1">
	<unicode hex="201B"/>
	<advance width="600"/>
	<outline>
		<contour>
			<point x="353" y="385" type="curve"/>
			<point x="373" y="415" type="line"/>
			<point x="312" y="456"/>
			<point x="274" y="520"/>
			<point x="274" y="601" type="curve"/>
			<point x="301" y="669" type="line"/>
			<point x="249" y="610" type="line"/>
			<point x="265" y="590"/>
			<point x="284" y="576"/>
			<point x="304" y="576" type="curve" smooth="yes"/>
			<point x="339" y="576"/>
			<point x="363" y="602"/>
			<point x="363" y="636" type="curve" smooth="yes"/>
			<point x="363" y="673"/>
			<point x="338" y="700"/>
			<point x="302" y="700" type="curve" smooth="yes"/>
			<point x="262" y="700"/>
			<point x="228" y="663"/>
			<point x="228" y="602" type="curve" smooth="yes"/>
			<point x="228" y="507"/>
			<point x="279" y="427"/>
		</contour>
	</outline>
</glyph>
<glyph name="bullet" format="1">
	<unicode hex="2022"/>
	<advance width="600"/>
	<outline>
		<contour>
			<point x="300" y="123" type="curve" smooth="yes"/>
			<point x="371" y="123"/>
			<point x="439" y="177"/>
			<point x="439" y="262" type="curve" smooth="yes"/>
			<point x="439" y="347"/>
			<point x="371" y="401"/>
			<point x="300" y="401" type="curve" smooth="yes"/>
			<point x="229" y="401"/>
			<point x="161" y="347"/>
			<point x="161" y="262" type="curve" smooth="yes"/>
			<point x="161" y="177"/>
			<point x="229" y="123"/>
		</contour>
	</outline>
</glyph>
<glyph name="guilsinglleft" format="1">
	<unicode hex="2039"/>
	<advance width="600"/>
	<outline>
		<contour>
			<point x="352" y="68" type="line"/>
			<point x="377" y="89" type="line"/>
			<point x="251" y="252" type="line"/>
			<point x="377" y="413" type="line"/>
			<point x="352" y="436" type="line"/>
			<point x="210" y="273" type="line"/>
			<point x="210" y="231" type="line"/>
		</contour>
	</outline>
</glyph>
<glyph name="overline" format="2">
	<unicode hex="203E"/>
	<advance width="600"/>
	<outline>
		<contour>
			<point x="62" y="572" type="line"/>
			<point x="538" y="572" type="line"/>
			<point x="538" y="610" type="line"/>
			<point x="62" y="610" type="line"/>
		</contour>
	</outline>
</glyph>
<glyph name="questiondbl" format="1">
	<unicode hex="2047"/>
	<advance width="600"/>
	<outline>
		<contour>
			<point x="117" y="219" type="curve"/>
			<point x="156" y="219" type="line"/>
			<point x="133" y="362"/>
			<point x="286" y="411"/>
			<point x="286" y="551" type="curve" smooth="yes"/>
			<point x="286" y="624"/>
			<point x="237" y="682"/>
			<point x="154" y="682" type="curve" smooth="yes"/>
			<point x="96" y="682"/>
			<point x="55" y="657"/>
			<point x="17" y="610" type="curve"/>
			<point x="44" y="582" type="line"/>
			<point x="77" y="626"/>
			<point x="108" y="643"/>
			<point x="148" y="643" type="curve" smooth="yes"/>
			<point x="213" y="643"/>
			<point x="241" y="598"/>
			<point x="241" y="546" type="curve" smooth="yes"/>
			<point x="241" y="420"/>
			<point x="91" y="369"/>
		</contour>
		<contour>
			<point x="146" y="-12" type="curve" smooth="yes"/>
			<point x="176" y="-12"/>
			<point x="204" y="11"/>
			<point x="204" y="51" type="curve" smooth="yes"/>
			<point x="204" y="92"/>
			<point x="176" y="114"/>
			<point x="146" y="114" type="curve" smooth="yes"/>
			<point x="116" y="114"/>
			<point x="88" y="92"/>
			<point x="88" y="51" type="curve" smooth="yes"/>
			<point x="88" y="11"/>
			<point x="116" y="-12"/>
		</contour>
		<contour>
			<point x="397" y="219" type="curve"/>
			<point x="436" y="219" type="line"/>
			<point x="413" y="362"/>
			<point x="566" y="411"/>
			<point x="566" y="551" type="curve" smooth="yes"/>
			<point x="566" y="624"/>
			<point x="517" y="682"/>
			<point x="434" y="682" type="curve" smooth="yes"/>
			<point x="376" y="682"/>
			<point x="335" y="657"/>
			<point x="297" y="610" type="curve"/>
			<point x="324" y="582" type="line"/>
			<point x="357" y="626"/>
			<point x="388" y="643"/>
			<point x="428" y="643" type="curve" smooth="yes"/>
			<point x="493" y="643"/>
			<point x="521" y="598"/>
			<point x="521" y="546" type="curve" smooth="yes"/>
			<point x="521" y="420"/>
			<point x="371" y="369"/>
		</contour>
		<contour>
			<point x="426" y="-12" type="curve" smooth="yes"/>
			<point x="456" y="-12"/>
			<point x="484" y="11"/>
			<point x="484" y="51" type="curve" smooth="yes"/>
			<point x="484" y="92"/>
			<point x="456" y="114"/>
			<point x="426" y="114" type="curve" smooth="yes"/>
			<point x="396" y="114"/>
			<point x="368" y="92"/>
			<point x="368" y="51" type="curve" smooth="yes"/>
			<point x="368" y="11"/>
			<point x="396" y="-12"/>
		</contour>
	</outline>
</glyph>
<glyph name="eight.subs" format="2">
	<unicode hex="2088"/>
	<advance width="600"/>
	<outline>
		<contour>
			<point x="298" y="-184" type="curve" smooth="yes"/>
			<point x="387" y="-184"/>
			<point x="439" y="-138"/>
			<point x="439" y="-76" type="curve" smooth="yes"/>
			<point x="439" y="-27"/>
			<point x="413" y="1"/>
			<point x="355" y="27" type="curve"/>
			<point x="355" y="31" type="line"/>
			<point x="391" y="51"/>
			<point x="425" y="79"/>
			<point x="425" y="129" type="curve" smooth="yes"/>
			<point x="425" y="190"/>
			<point x="379" y="230"/>
			<point x="298" y="230" type="curve" smooth="yes"/>
			<point x="220" y="230"/>
			<point x="175" y="188"/>
			<point x="175" y="129" type="curve" smooth="yes"/>
			<point x="175" y="87"/>
			<point x="200" y="66"/>
			<point x="243" y="41" type="curve"/>
			<point x="243" y="37" type="line"/>
			<point x="190" y="13"/>
			<point x="158" y="-26"/>
			<point x="158" y="-79" type="curve" smooth="yes"/>
			<point x="158" y="-136"/>
			<point x="204" y="-184"/>
		</contour>
		<contour>
			<point x="325" y="41" type="curve"/>
			<point x="262" y="61"/>
			<point x="213" y="83"/>
			<point x="213" y="129" type="curve" smooth="yes"/>
			<point x="213" y="168"/>
			<point x="243" y="196"/>
			<point x="298" y="196" type="curve" smooth="yes"/>
			<point x="355" y="196"/>
			<point x="387" y="170"/>
			<point x="387" y="130" type="curve" smooth="yes"/>
			<point x="387" y="98"/>
			<point x="374" y="72"/>
		</contour>
		<contour>
			<point x="298" y="-152" type="curve" smooth="yes"/>
			<point x="227" y="-152"/>
			<point x="196" y="-115"/>
			<point x="196" y="-76" type="curve" smooth="yes"/>
			<point x="196" y="-37"/>
			<point x="214" y="-5"/>
			<point x="271" y="22" type="curve"/>
			<point x="337" y="-3"/>
			<point x="401" y="-16"/>
			<point x="401" y="-76" type="curve" smooth="yes"/>
			<point x="401" y="-118"/>
			<point x="364" y="-152"/>
		</contour>
	</outline>
</glyph>
<glyph name="won" format="1">
	<unicode hex="20A9"/>
	<advance width="600"/>
	<outline>
		<contour>
			<point x="163" y="0" type="line"/>
			<point x="220" y="0" type="line"/>
			<point x="269" y="343" type="line"/>
			<point x="298" y="559" type="line"/>
			<point x="302" y="559" type="line"/>
			<point x="329" y="345" type="line"/>
			<point x="381" y="0" type="line"/>
			<point x="442" y="0" type="line"/>
			<point x="526" y="639" type="line"/>
			<point x="484" y="639" type="line"/>
			<point x="428" y="167" type="line"/>
			<point x="413" y="40" type="line"/>
			<point x="409" y="40" type="line"/>
			<point x="395" y="167" type="line"/>
			<point x="330" y="599" type="line"/>
			<point x="273" y="599" type="line"/>
			<point x="209" y="167" type="line"/>
			<point x="194" y="40" type="line"/>
			<point x="190" y="40" type="line"/>
			<point x="177" y="167" type="line"/>
			<point x="119" y="639" type="line"/>
			<point x="74" y="639" type="line"/>
		</contour>
		<contour>
			<point x="45" y="308" type="line"/>
			<point x="551" y="308" type="line"/>
			<point x="551" y="345" type="line"/>
			<point x="122" y="345" type="line"/>
			<point x="45" y="341" type="line"/>
		</contour>
	</outline>
</glyph>
<glyph name="Euro" format="2">
	<unicode hex="20AC"/>
	<advance width="600"/>
	<outline>
		<contour>
			<point x="370" y="-12" type="curve" smooth="yes"/>
			<point x="453" y="-12"/>
			<point x="508" y="24"/>
			<point x="556" y="82" type="curve"/>
			<point x="527" y="107" type="line"/>
			<point x="482" y="53"/>
			<point x="436" y="26"/>
			<point x="372" y="26" type="curve" smooth="yes"/>
			<point x="247" y="26"/>
			<point x="174" y="143"/>
			<point x="174" y="322" type="curve" smooth="yes"/>
			<point x="174" y="500"/>
			<point x="250" y="613"/>
			<point x="384" y="613" type="curve" smooth="yes"/>
			<point x="439" y="613"/>
			<point x="481" y="586"/>
			<point x="517" y="546" type="curve"/>
			<point x="546" y="573" type="line"/>
			<point x="512" y="615"/>
			<point x="453" y="651"/>
			<point x="385" y="651" type="curve" smooth="yes"/>
			<point x="227" y="651"/>
			<point x="126" y="524"/>
			<point x="126" y="321" type="curve" smooth="yes"/>
			<point x="126" y="118"/>
			<point x="223" y="-12"/>
		</contour>
		<contour>
			<point x="65" y="356" type="line"/>
			<point x="496" y="356" type="line"/>
			<point x="496" y="390" type="line"/>
			<point x="132" y="390" type="line"/>
			<point x="65" y="386" type="line"/>
		</contour>
		<contour>
			<point x="65" y="246" type="line"/>
			<point x="456" y="246" type="line"/>
			<point x="456" y="280" type="line"/>
			<point x="130" y="280" type="line"/>
			<point x="65" y="276" type="line"/>
		</contour>
	</outline>
</glyph>
<glyph name="tugrik" format="1">
	<unicode hex="20AE"/>
	<advance width="600"/>
	<outline>
		<contour>
			<point x="124" y="279" type="line"/>
			<point x="280" y="351" type="line"/>
			<point x="320" y="368" type="line"/>
			<point x="490" y="448" type="line"/>
			<point x="476" y="475" type="line"/>
			<point x="320" y="405" type="line"/>
			<point x="280" y="387" type="line"/>
			<point x="110" y="310" type="line"/>
		</contour>
		<contour>
			<point x="124" y="161" type="line"/>
			<point x="280" y="233" type="line"/>
			<point x="320" y="250" type="line"/>
			<point x="490" y="330" type="line"/>
			<point x="476" y="357" type="line"/>
			<point x="320" y="286" type="line"/>
			<point x="280" y="269" type="line"/>
			<point x="110" y="191" type="line"/>
		</contour>
		<contour>
			<point x="277" y="0" type="line"/>
			<point x="323" y="0" type="line"/>
			<point x="323" y="602" type="line"/>
			<point x="534" y="602" type="line"/>
			<point x="534" y="639" type="line"/>
			<point x="66" y="639" type="line"/>
			<point x="66" y="602" type="line"/>
			<point x="277" y="602" type="line"/>
		</contour>
	</outline>
</glyph>
<glyph name="peso" format="2">
	<unicode hex="20B1"/>
	<advance width="600"/>
	<outline>
		<contour>
			<point x="155" y="0" type="line"/>
			<point x="198" y="0" type="line"/>
			<point x="198" y="263" type="line"/>
			<point x="282" y="263" type="line" smooth="yes"/>
			<point x="409" y="263"/>
			<point x="498" y="325"/>
			<point x="498" y="456" type="curve" smooth="yes"/>
			<point x="498" y="589"/>
			<point x="409" y="639"/>
			<point x="282" y="639" type="curve" smooth="yes"/>
			<point x="155" y="639" type="line"/>
		</contour>
		<contour>
			<point x="198" y="299" type="line"/>
			<point x="198" y="604" type="line"/>
			<point x="271" y="604" type="line" smooth="yes"/>
			<point x="388" y="604"/>
			<point x="453" y="566"/>
			<point x="453" y="456" type="curve" smooth="yes"/>
			<point x="453" y="350"/>
			<point x="388" y="299"/>
			<point x="271" y="299" type="curve" smooth="yes"/>
		</contour>
		<contour>
			<point x="55" y="489" type="line"/>
			<point x="581" y="489" type="line"/>
			<point x="581" y="522" type="line"/>
			<point x="155" y="522" type="line"/>
			<point x="55" y="517" type="line"/>
		</contour>
		<contour>
			<point x="55" y="389" type="line"/>
			<point x="581" y="389" type="line"/>
			<point x="581" y="422" type="line"/>
			<point x="155" y="422" type="line"/>
			<point x="55" y="418" type="line"/>
		</contour>
	</outline>
</glyph>
<glyph name="tenge" format="2">
	<unicode hex="20B8"/>
	<advance width="600"/>
	<outline>
		<contour>
			<point x="277" y="0" type="line"/>
			<point x="323" y="0" type="line"/>
			<point x="323" y="496" type="line"/>
			<point x="534" y="496" type="line"/>
			<point x="534" y="529" type="line"/>
			<point x="136" y="529" type="line"/>
			<point x="66" y="525" type="line"/>
			<point x="66" y="496" type="line"/>
			<point x="277" y="496" type="line"/>
		</contour>
		<contour>
			<point x="66" y="606" type="line"/>
			<point x="534" y="606" type="line"/>
			<point x="534" y="639" type="line"/>
			<point x="66" y="639" type="line"/>
		</contour>
	</outline>
</glyph>
<glyph name="ruble" format="1">
	<unicode hex="20BD"/>
	<advance width="600"/>
	<outline>
		<contour>
			<point x="176" y="0" type="line"/>
			<point x="219" y="0" type="line"/>
			<point x="219" y="287" type="line"/>
			<point x="332" y="287" type="line" smooth="yes"/>
			<point x="463" y="287"/>
			<point x="556" y="343"/>
			<point x="556" y="469" type="curve" smooth="yes"/>
			<point x="556" y="591"/>
			<point x="464" y="639"/>
			<point x="332" y="639" type="curve" smooth="yes"/>
			<point x="176" y="639" type="line"/>
		</contour>
		<contour>
			<point x="219" y="321" type="line"/>
			<point x="219" y="604" type="line"/>
			<point x="320" y="604" type="line" smooth="yes"/>
			<point x="443" y="604"/>
			<point x="511" y="568"/>
			<point x="511" y="468" type="curve" smooth="yes"/>
			<point x="511" y="366"/>
			<point x="443" y="321"/>
			<point x="320" y="321" type="curve" smooth="yes"/>
		</contour>
		<contour>
			<point x="55" y="287" type="line"/>
			<point x="199" y="287" type="line"/>
			<point x="199" y="321" type="line"/>
			<point x="177" y="321" type="line"/>
			<point x="55" y="317" type="line"/>
		</contour>
		<contour>
			<point x="55" y="177" type="line"/>
			<point x="491" y="177" type="line"/>
			<point x="491" y="211" type="line"/>
			<point x="177" y="211" type="line"/>
			<point x="55" y="207" type="line"/>
		</contour>
	</outline>
</glyph>
<glyph name="careof" format="1">
	<unicode hex="2105"/>
	<advance width="600"/>
	<outline>
		<contour>
			<point x="163" y="326" type="curve" smooth="yes"/>
			<point x="205" y="326"/>
			<point x="239" y="344"/>
			<point x="267" y="368" type="curve"/>
			<point x="247" y="395" type="line"/>
			<point x="228" y="377"/>
			<point x="201" y="360"/>
			<point x="165" y="360" type="curve" smooth="yes"/>
			<point x="107" y="360"/>
			<point x="68" y="412"/>
			<point x="68" y="489" type="curve" smooth="yes"/>
			<point x="68" y="564"/>
			<point x="111" y="618"/>
			<point x="167" y="618" type="curve" smooth="yes"/>
			<point x="197" y="618"/>
			<point x="218" y="604"/>
			<point x="237" y="585" type="curve"/>
			<point x="259" y="612" type="line"/>
			<point x="237" y="632"/>
			<point x="210" y="651"/>
			<point x="166" y="651" type="curve" smooth="yes"/>
			<point x="95" y="651"/>
			<point x="28" y="591"/>
			<point x="28" y="489" type="curve" smooth="yes"/>
			<point x="28" y="386"/>
			<point x="86" y="326"/>
		</contour>
		<component base="fraction" xOffset="1"/>
		<component base="zero.dnom" xOffset="138"/>
	</outline>
</glyph>
<glyph name="litre" format="1">
	<unicode hex="2113"/>
	<advance width="600"/>
	<outline>
		<contour>
			<point x="356" y="-12" type="curve" smooth="yes"/>
			<point x="407" y="-12"/>
			<point x="445" y="17"/>
			<point x="471" y="43" type="curve"/>
			<point x="451" y="71" type="line"/>
			<point x="427" y="48"/>
			<point x="402" y="27"/>
			<point x="360" y="27" type="curve" smooth="yes"/>
			<point x="308" y="27"/>
			<point x="263" y="66"/>
			<point x="263" y="188" type="curve" smooth="yes"/>
			<point x="263" y="530" type="line" smooth="yes"/>
			<point x="263" y="633"/>
			<point x="299" y="682"/>
			<point x="341" y="682" type="curve" smooth="yes"/>
			<point x="381" y="682"/>
			<point x="411" y="654"/>
			<point x="411" y="573" type="curve" smooth="yes"/>
			<point x="411" y="419"/>
			<point x="285" y="261"/>
			<point x="141" y="163" type="curve"/>
			<point x="162" y="132" type="line"/>
			<point x="313" y="235"/>
			<point x="453" y="410"/>
			<point x="453" y="575" type="curve" smooth="yes"/>
			<point x="453" y="670"/>
			<point x="405" y="720"/>
			<point x="341" y="720" type="curve" smooth="yes"/>
			<point x="273" y="720"/>
			<point x="219" y="665"/>
			<point x="219" y="518" type="curve" smooth="yes"/>
			<point x="219" y="187" type="line" smooth="yes"/>
			<point x="219" y="40"/>
			<point x="282" y="-12"/>
		</contour>
	</outline>
</glyph>
<glyph name="onetenth" format="1">
	<unicode hex="2152"/>
	<advance width="600"/>
	<outline>
		<contour>
			<point x="183" y="402" type="line"/>
			<point x="221" y="402" type="line"/>
			<point x="221" y="639" type="line"/>
			<point x="190" y="639" type="line"/>
			<point x="165" y="625"/>
			<point x="141" y="615"/>
			<point x="101" y="608" type="curve"/>
			<point x="101" y="579" type="line"/>
			<point x="183" y="579" type="line"/>
		</contour>
		<contour>
			<point x="123" y="282" type="line"/>
			<point x="571" y="471" type="line"/>
			<point x="555" y="509" type="line"/>
			<point x="112" y="305" type="line"/>
		</contour>
		<contour>
			<point x="183" y="0" type="line"/>
			<point x="221" y="0" type="line"/>
			<point x="221" y="238" type="line"/>
			<point x="190" y="238" type="line"/>
			<point x="165" y="223"/>
			<point x="141" y="213"/>
			<point x="101" y="206" type="curve"/>
			<point x="101" y="177" type="line"/>
			<point x="183" y="177" type="line"/>
		</contour>
		<contour>
			<point x="432" y="-12" type="curve" smooth="yes"/>
			<point x="498" y="-12"/>
			<point x="542" y="35"/>
			<point x="542" y="120" type="curve" smooth="yes"/>
			<point x="542" y="202"/>
			<point x="498" y="250"/>
			<point x="432" y="250" type="curve" smooth="yes"/>
			<point x="365" y="250"/>
			<point x="321" y="202"/>
			<point x="321" y="120" type="curve" smooth="yes"/>
			<point x="321" y="35"/>
			<point x="365" y="-12"/>
		</contour>
		<contour>
			<point x="432" y="18" type="curve" smooth="yes"/>
			<point x="388" y="18"/>
			<point x="358" y="52"/>
			<point x="358" y="120" type="curve" smooth="yes"/>
			<point x="358" y="184"/>
			<point x="388" y="219"/>
			<point x="432" y="219" type="curve" smooth="yes"/>
			<point x="475" y="219"/>
			<point x="505" y="184"/>
			<point x="505" y="120" type="curve" smooth="yes"/>
			<point x="505" y="52"/>
			<point x="475" y="18"/>
		</contour>
	</outline>
</glyph>
<glyph name="arrowleft" format="1">
	<unicode hex="2190"/>
	<advance width="600"/>
	<outline>
		<contour>
			<point x="288" y="-14" type="line"/>
			<point x="314" y="13" type="line"/>
			<point x="84" y="233" type="line"/>
			<point x="570" y="233" type="line"/>
			<point x="570" y="271" type="line"/>
			<point x="84" y="271" type="line"/>
			<point x="314" y="491" type="line"/>
			<point x="288" y="518" type="line"/>
			<point x="19" y="254" type="line"/>
			<point x="19" y="250" type="line"/>
		</contour>
	</outline>
</glyph>
<glyph name="arrowupdn" format="1">
	<unicode hex="2195"/>
	<advance width="600"/>
	<outline>
		<contour>
			<point x="302" y="-58" type="line"/>
			<point x="508" y="120" type="line"/>
			<point x="484" y="147" type="line"/>
			<point x="319" y="1" type="line"/>
			<point x="319" y="501" type="line"/>
			<point x="484" y="355" type="line"/>
			<point x="508" y="382" type="line"/>
			<point x="302" y="560" type="line"/>
			<point x="298" y="560" type="line"/>
			<point x="92" y="382" type="line"/>
			<point x="116" y="355" type="line"/>
			<point x="281" y="501" type="line"/>
			<point x="281" y="1" type="line"/>
			<point x="116" y="147" type="line"/>
			<point x="92" y="120" type="line"/>
			<point x="298" y="-58" type="line"/>
		</contour>
	</outline>
</glyph>
<glyph name="partialdiff" format="2">
	<unicode hex="2202"/>
	<advance width="600"/>
	<outline>
		<contour>
			<point x="260" y="-12" type="curve" smooth="yes"/>
			<point x="412" y="-12"/>
			<point x="512" y="140"/>
			<point x="512" y="363" type="curve" smooth="yes"/>
			<point x="512" y="584"/>
			<point x="427" y="672"/>
			<point x="313" y="672" type="curve" smooth="yes"/>
			<point x="256" y="672"/>
			<point x="205" y="648"/>
			<point x="168" y="609" type="curve"/>
			<point x="192" y="580" type="line"/>
			<point x="224" y="614"/>
			<point x="266" y="633"/>
			<point x="310" y="633" type="curve" smooth="yes"/>
			<point x="400" y="633"/>
			<point x="467" y="563"/>
			<point x="467" y="363" type="curve" smooth="yes"/>
			<point x="467" y="174"/>
			<point x="393" y="27"/>
			<point x="263" y="27" type="curve" smooth="yes"/>
			<point x="192" y="27"/>
			<point x="131" y="88"/>
			<point x="131" y="180" type="curve" smooth="yes"/>
			<point x="131" y="275"/>
			<point x="182" y="360"/>
			<point x="304" y="360" type="curve" smooth="yes"/>
			<point x="354" y="360"/>
			<point x="410" y="337"/>
			<point x="464" y="273" type="curve"/>
			<point x="470" y="318" type="line"/>
			<point x="425" y="367"/>
			<point x="365" y="399"/>
			<point x="304" y="399" type="curve" smooth="yes"/>
			<point x="164" y="399"/>
			<point x="86" y="306"/>
			<point x="86" y="177" type="curve" smooth="yes"/>
			<point x="86" y="59"/>
			<point x="169" y="-12"/>
		</contour>
	</outline>
</glyph>
<glyph name="minus" format="2">
	<unicode hex="2212"/>
	<advance width="600"/>
	<outline>
		<contour>
			<point x="95" y="311" type="line"/>
			<point x="505" y="311" type="line"/>
			<point x="505" y="349" type="line"/>
			<point x="95" y="349" type="line"/>
		</contour>
	</outline>
</glyph>
<glyph name="integral" format="1">
	<unicode hex="222B"/>
	<advance width="600"/>
	<outline>
		<contour>
			<point x="251" y="-158" type="curve" smooth="yes"/>
			<point x="340" y="-158"/>
			<point x="360" y="-64"/>
			<point x="360" y="60" type="curve" smooth="yes"/>
			<point x="360" y="198"/>
			<point x="315" y="431"/>
			<point x="315" y="573" type="curve" smooth="yes"/>
			<point x="315" y="681"/>
			<point x="327" y="750"/>
			<point x="384" y="750" type="curve" smooth="yes"/>
			<point x="398" y="750"/>
			<point x="410" y="749"/>
			<point x="418" y="746" type="curve"/>
			<point x="425" y="782" type="line"/>
			<point x="418" y="786"/>
			<point x="402" y="788"/>
			<point x="385" y="788" type="curve" smooth="yes"/>
			<point x="294" y="788"/>
			<point x="275" y="693"/>
			<point x="275" y="570" type="curve" smooth="yes"/>
			<point x="275" y="433"/>
			<point x="319" y="198"/>
			<point x="319" y="56" type="curve" smooth="yes"/>
			<point x="319" y="-52"/>
			<point x="309" y="-120"/>
			<point x="250" y="-120" type="curve" smooth="yes"/>
			<point x="236" y="-120"/>
			<point x="224" y="-118"/>
			<point x="216" y="-116" type="curve"/>
			<point x="209" y="-152" type="line"/>
			<point x="217" y="-156"/>
			<point x="232" y="-158"/>
		</contour>
	</outline>
</glyph>
<glyph name="house" format="1">
	<unicode hex="2302"/>
	<advance width="600"/>
	<outline>
		<contour>
			<point x="57" y="0" type="line"/>
			<point x="543" y="0" type="line"/>
			<point x="543" y="360" type="line"/>
			<point x="323" y="669" type="line"/>
			<point x="277" y="669" type="line"/>
			<point x="57" y="360" type="line"/>
		</contour>
		<contour>
			<point x="98" y="37" type="line"/>
			<point x="98" y="345" type="line"/>
			<point x="207" y="502" type="line"/>
			<point x="298" y="634" type="line"/>
			<point x="302" y="634" type="line"/>
			<point x="393" y="502" type="line"/>
			<point x="502" y="345" type="line"/>
			<point x="502" y="37" type="line"/>
		</contour>
	</outline>
</glyph>
<glyph name="ceilingleft" format="1">
	<unicode hex="231C"/>
	<advance width="600"/>
	<outline>
		<contour>
			<point x="240" y="0" type="line"/>
			<point x="279" y="0" type="line"/>
			<point x="279" y="661" type="line"/>
			<point x="505" y="661" type="line"/>
			<point x="505" y="690" type="line"/>
			<point x="240" y="690" type="line"/>
		</contour>
	</outline>
</glyph>
<glyph name="ceilingright" format="2">
	<unicode hex="231D"/>
	<advance width="600"/>
	<outline>
		<contour>
			<point x="321" y="0" type="line"/>
			<point x="360" y="0" type="line"/>
			<point x="360" y="690" type="line"/>
			<point x="95" y="690" type="line"/>
			<point x="95" y="661" type="line"/>
			<point x="321" y="661" type="line"/>
		</contour>
	</outline>
</glyph>
<glyph name="floorleft" format="1">
	<unicode hex="231E"/>
	<advance width="600"/>
	<outline>
		<contour>
			<point x="240" y="-58" type="line"/>
			<point x="505" y="-58" type="line"/>
			<point x="505" y="-30" type="line"/>
			<point x="279" y="-30" type="line"/>
			<point x="279" y="639" type="line"/>
			<point x="240" y="639" type="line"/>
		</contour>
	</outline>
</glyph>
<glyph name="integraltp" format="1">
	<unicode hex="2320"/>
	<advance width="600"/>
	<outline>
		<contour>
			<point x="323" y="-400" type="line"/>
			<point x="323" y="573" type="line"/>
			<point x="323" y="681"/>
			<point x="333" y="750"/>
			<point x="390" y="750" type="curve" smooth="yes"/>
			<point x="404" y="750"/>
			<point x="416" y="749"/>
			<point x="424" y="746" type="curve"/>
			<point x="431" y="782" type="line"/>
			<point x="425" y="786"/>
			<point x="408" y="788"/>
			<point x="391" y="788" type="curve" smooth="yes"/>
			<point x="300" y="788"/>
			<point x="280" y="693"/>
			<point x="280" y="570" type="curve"/>
			<point x="280" y="-400" type="line"/>
		</contour>
	</outline>
</glyph>
<glyph name="integralbt" format="1">
	<unicode hex="2321"/>
	<advance width="600"/>
	<outline>
		<contour>
			<point x="212" y="-158" type="curve" smooth="yes"/>
			<point x="301" y="-158"/>
			<point x="323" y="-64"/>
			<point x="323" y="60" type="curve"/>
			<point x="323" y="1000" type="line"/>
			<point x="280" y="1000" type="line"/>
			<point x="280" y="56" type="line"/>
			<point x="280" y="-52"/>
			<point x="270" y="-120"/>
			<point x="211" y="-120" type="curve" smooth="yes"/>
			<point x="197" y="-120"/>
			<point x="185" y="-118"/>
			<point x="177" y="-116" type="curve"/>
			<point x="170" y="-152" type="line"/>
			<point x="178" y="-156"/>
			<point x="193" y="-158"/>
		</contour>
	</outline>
</glyph>
<glyph name="lightquaddashvertbxd" format="1">
	<unicode hex="250A"/>
	<advance width="600"/>
	<outline>
		<contour>
			<point x="279" y="638" type="line"/>
			<point x="322" y="638" type="line"/>
			<point x="322" y="863" type="line"/>
			<point x="279" y="863" type="line"/>
		</contour>
		<contour>
			<point x="279" y="338" type="line"/>
			<point x="322" y="338" type="line"/>
			<point x="322" y="563" type="line"/>
			<point x="279" y="563" type="line"/>
		</contour>
		<contour>
			<point x="279" y="38" type="line"/>
			<point x="322" y="38" type="line"/>
			<point x="322" y="263" type="line"/>
			<point x="279" y="263" type="line"/>
		</contour>
		<contour>
			<point x="279" y="-263" type="line"/>
			<point x="322" y="-263" type="line"/>
			<point x="322" y="-38" type="line"/>
			<point x="279" y="-38" type="line"/>
		</contour>
	</outline>
</glyph>
<glyph name="heavyquaddashvertbxd" format="1">
	<unicode hex="250B"/>
	<advance width="600"/>
	<outline>
		<contour>
			<point x="257" y="638" type="line"/>
			<point x="343" y="638" type="line"/>
			<point x="343" y="863" type="line"/>
			<point x="257" y="863" type="line"/>
		</contour>
		<contour>
			<point x="257" y="338" type="line"/>
			<point x="343" y="338" type="line"/>
			<point x="343" y="563" type="line"/>
			<point x="257" y="563" type="line"/>
		</contour>
		<contour>
			<point x="257" y="38" type="line"/>
			<point x="343" y="38" type="line"/>
			<point x="343" y="263" type="line"/>
			<point x="257" y="263" type="line"/>
		</contour>
		<contour>
			<point x="257" y="-263" type="line"/>
			<point x="343" y="-263" type="line"/>
			<point x="343" y="-38" type="line"/>
			<point x="257" y="-38" type="line"/>
		</contour>
	</outline>
</glyph>
<glyph name="lightdnrightbxd" format="1">
	<unicode hex="250C"/>
	<advance width="600"/>
	<outline>
		<contour>
			<point x="622" y="279" type="line"/>
			<point x="622" y="322" type="line"/>
			<point x="279" y="322" type="line"/>
			<point x="279" y="-400" type="line"/>
			<point x="322" y="-400" type="line"/>
			<point x="322" y="279" type="line"/>
		</contour>
	</outline>
</glyph>
<glyph name="leftheavyrightdnlightbxd" format="2">
	<unicode hex="252D"/>
	<advance width="600"/>
	<outline>
		<contour>
			<point x="322" y="-400" type="line"/>
			<point x="322" y="278" type="line"/>
			<point x="622" y="278" type="line"/>
			<point x="622" y="322" type="line"/>
			<point x="322" y="322" type="line"/>
			<point x="322" y="343" type="line"/>
			<point x="-22" y="343" type="line"/>
			<point x="-22" y="257" type="line"/>
			<point x="278" y="257" type="line"/>
			<point x="278" y="-400" type="line"/>
		</contour>
	</outline>
</glyph>
<glyph name="rightheavyleftdnlightbxd" format="2">
	<unicode hex="252E"/>
	<advance width="600"/>
	<outline>
		<contour>
			<point x="622" y="257" type="line"/>
			<point x="622" y="343" type="line"/>
			<point x="278" y="343" type="line"/>
			<point x="278" y="322" type="line"/>
			<point x="-22" y="322" type="line"/>
			<point x="-22" y="278" type="line"/>
			<point x="278" y="278" type="line"/>
			<point x="278" y="-400" type="line"/>
			<point x="322" y="-400" type="line"/>
			<point x="322" y="257" type="line"/>
		</contour>
	</outline>
</glyph>
<glyph name="dnlighthorzheavybxd" format="1">
	<unicode hex="252F"/>
	<advance width="600"/>
	<outline>
		<contour>
			<point x="622" y="257" type="line"/>
			<point x="622" y="343" type="line"/>
			<point x="-22" y="343" type="line"/>
			<point x="-22" y="257" type="line"/>
			<point x="279" y="257" type="line"/>
			<point x="279" y="-400" type="line"/>
			<point x="322" y="-400" type="line"/>
			<point x="322" y="257" type="line"/>
		</contour>
	</outline>
</glyph>
<glyph name="dnheavyhorzlightbxd" format="2">
	<unicode hex="2530"/>
	<advance width="600"/>
	<outline>
		<contour>
			<point x="622" y="278" type="line"/>
			<point x="622" y="322" type="line"/>
			<point x="-22" y="322" type="line"/>
			<point x="-22" y="278" type="line"/>
			<point x="257" y="278" type="line"/>
			<point x="257" y="-400" type="line"/>
			<point x="343" y="-400" type="line"/>
			<point x="343" y="278" type="line"/>
		</contour>
	</outline>
</glyph>
<glyph name="leftlightrightdnheavybxd" format="2">
	<unicode hex="2532"/>
	<advance width="600"/>
	<outline>
		<contour>
			<point x="622" y="257" type="line"/>
			<point x="622" y="343" type="line"/>
			<point x="257" y="343" type="line"/>
			<point x="257" y="322" type="line"/>
			<point x="-22" y="322" type="line"/>
			<point x="-22" y="278" type="line"/>
			<point x="257" y="278" type="line"/>
			<point x="257" y="-400" type="line"/>
			<point x="343" y="-400" type="line"/>
			<point x="343" y="257" type="line"/>
		</contour>
	</outline>
</glyph>
<glyph name="vertheavyhorzlightbxd" format="1">
	<unicode hex="2542"/>
	<advance width="600"/>
	<outline>
		<contour>
			<point x="622" y="279" type="line"/>
			<point x="622" y="322" type="line"/>
			<point x="343" y="322" type="line"/>
			<point x="343" y="1000" type="line"/>
			<point x="257" y="1000" type="line"/>
			<point x="257" y="322" type="line"/>
			<point x="-22" y="322" type="line"/>
			<point x="-22" y="279" type="line"/>
			<point x="257" y="279" type="line"/>
			<point x="257" y="-400" type="line"/>
			<point x="343" y="-400" type="line"/>
			<point x="343" y="279" type="line"/>
		</contour>
	</outline>
</glyph>
<glyph name="leftdnheavyrightuplightbxd" format="2">
	<unicode hex="2545"/>
	<advance width="600"/>
	<outline>
		<contour>
			<point x="343" y="-400" type="line"/>
			<point x="343" y="278" type="line"/>
			<point x="622" y="278" type="line"/>
			<point x="622" y="322" type="line"/>
			<point x="343" y="322" type="line"/>
			<point x="343" y="343" type="line"/>
			<point x="322" y="343" type="line"/>
			<point x="322" y="1000" type="line"/>
			<point x="278" y="1000" type="line"/>
			<point x="278" y="343" type="line"/>
			<point x="-22" y="343" type="line"/>
			<point x="-22" y="257" type="line"/>
			<point x="257" y="257" type="line"/>
			<point x="257" y="-400" type="line"/>
		</contour>
	</outline>
</glyph>
<glyph name="lightdbldashvertbxd" format="2">
	<unicode hex="254E"/>
	<advance width="600"/>
	<outline>
		<contour>
			<point x="278" y="450" type="line"/>
			<point x="322" y="450" type="line"/>
			<point x="322" y="750" type="line"/>
			<point x="278" y="750" type="line"/>
		</contour>
		<contour>
			<point x="278" y="-150" type="line"/>
			<point x="322" y="-150" type="line"/>
			<point x="322" y="150" type="line"/>
			<point x="278" y="150" type="line"/>
		</contour>
	</outline>
</glyph>
<glyph name="dbldnleftbxd" format="2">
	<unicode hex="2557"/>
	<advance width="600"/>
	<outline>
		<contour>
			<point x="364" y="-400" type="line"/>
			<point x="364" y="364" type="line"/>
			<point x="-22" y="364" type="line"/>
			<point x="-22" y="322" type="line"/>
			<point x="322" y="322" type="line"/>
			<point x="322" y="-400" type="line"/>
		</contour>
		<contour>
			<point x="278" y="-400" type="line"/>
			<point x="278" y="278" type="line"/>
			<point x="-22" y="278" type="line"/>
			<point x="-22" y="236" type="line"/>
			<point x="236" y="236" type="line"/>
			<point x="236" y="-400" type="line"/>
		</contour>
	</outline>
</glyph>
